<?xml version="1.0" encoding="utf-8"?>
<!-- Generator: Adobe Illustrator 16.0.0, SVG Export Plug-In . SVG Version: 6.00 Build 0)  -->
<!DOCTYPE svg PUBLIC "-//W3C//DTD SVG 1.1//EN" "http://www.w3.org/Graphics/SVG/1.1/DTD/svg11.dtd">
<svg version="1.1" id="Layer_1" xmlns="http://www.w3.org/2000/svg" xmlns:xlink="http://www.w3.org/1999/xlink" x="0px" y="0px"
	 width="506px" height="333px" viewBox="0 0 506 333" enable-background="new 0 0 506 333" xml:space="preserve">
<g>
	<path fill="#FFFFFF" d="M36.081,8.59c2.478,2.393,3.853,5.111,4.126,8.154h-4.736c-0.527-2.311-1.579-4.142-3.153-5.493
		c-1.575-1.351-3.785-2.026-6.629-2.026c-3.469,0-6.27,1.242-8.404,3.726c-2.134,2.484-3.201,6.292-3.201,11.423
		c0,4.203,0.963,7.61,2.89,10.226c1.926,2.614,4.8,3.922,8.622,3.922c3.518,0,6.196-1.375,8.034-4.127
		c0.975-1.447,1.703-3.353,2.183-5.713h4.736c-0.418,3.776-1.802,6.942-4.151,9.497c-2.815,3.076-6.613,4.614-11.391,4.614
		c-4.119,0-7.578-1.262-10.377-3.787c-3.684-3.338-5.526-8.493-5.526-15.464c0-5.293,1.383-9.633,4.15-13.021
		C16.246,6.841,20.372,5,25.633,5C30.121,5.001,33.604,6.197,36.081,8.59z"/>
	<path fill="#FFFFFF" d="M60.251,26.018c1.009-0.129,1.685-0.552,2.026-1.267c0.195-0.392,0.292-0.956,0.292-1.691
		c0-1.503-0.532-2.594-1.596-3.272c-1.064-0.678-2.586-1.017-4.568-1.017c-2.291,0-3.915,0.622-4.874,1.865
		c-0.536,0.688-0.885,1.709-1.047,3.067h-4.102c0.081-3.232,1.125-5.48,3.133-6.745s4.336-1.897,6.986-1.897
		c3.072,0,5.568,0.586,7.486,1.758c1.902,1.172,2.853,2.995,2.853,5.469v15.063c0,0.457,0.093,0.822,0.281,1.1
		c0.187,0.275,0.582,0.414,1.184,0.414c0.195,0,0.415-0.012,0.659-0.037c0.244-0.025,0.504-0.061,0.781-0.109v3.247
		c-0.684,0.195-1.205,0.317-1.562,0.366c-0.358,0.049-0.847,0.072-1.465,0.072c-1.514,0-2.612-0.536-3.296-1.61
		c-0.358-0.569-0.61-1.375-0.757-2.417c-0.896,1.172-2.181,2.188-3.857,3.051c-1.677,0.862-3.524,1.293-5.542,1.293
		c-2.425,0-4.407-0.736-5.945-2.207c-1.538-1.471-2.307-3.312-2.307-5.521c0-2.422,0.757-4.301,2.271-5.633
		c1.514-1.333,3.499-2.154,5.957-2.463L60.251,26.018z M50.999,37.889c0.928,0.731,2.026,1.096,3.296,1.096
		c1.546,0,3.043-0.356,4.492-1.071c2.441-1.187,3.662-3.128,3.662-5.826v-3.535c-0.536,0.343-1.227,0.63-2.071,0.857
		c-0.845,0.229-1.673,0.392-2.485,0.489l-2.656,0.342c-1.592,0.211-2.789,0.544-3.591,0.998c-1.359,0.764-2.039,1.981-2.039,3.654
		C49.606,36.16,50.071,37.159,50.999,37.889z"/>
	<path fill="#FFFFFF" d="M74.045,15.694h4.175v3.711c1.237-1.53,2.547-2.628,3.931-3.296c1.383-0.667,2.921-1.001,4.614-1.001
		c3.711,0,6.217,1.294,7.52,3.882c0.716,1.416,1.074,3.442,1.074,6.079v16.772h-4.469V25.362c0-1.595-0.236-2.881-0.708-3.857
		c-0.781-1.627-2.197-2.441-4.248-2.441c-1.042,0-1.896,0.106-2.563,0.317c-1.205,0.358-2.263,1.074-3.174,2.148
		c-0.732,0.863-1.208,1.754-1.428,2.673c-0.22,0.92-0.33,2.234-0.33,3.943v13.696h-4.395L74.045,15.694L74.045,15.694z"/>
	<path fill="#FFFFFF" d="M132.09,15.694h4.858c-0.619,1.677-1.994,5.504-4.126,11.48c-1.595,4.495-2.93,8.158-4.004,10.991
		c-2.537,6.668-4.326,10.733-5.366,12.198c-1.04,1.464-2.829,2.195-5.366,2.195c-0.618,0-1.094-0.023-1.427-0.072
		s-0.745-0.139-1.232-0.27v-4.004c0.764,0.211,1.316,0.342,1.657,0.391c0.341,0.049,0.642,0.073,0.902,0.073
		c0.812,0,1.409-0.134,1.791-0.401c0.382-0.27,0.703-0.598,0.963-0.987c0.081-0.13,0.374-0.796,0.877-1.998s0.87-2.097,1.097-2.681
		l-9.668-26.917h4.98l7.007,21.299L132.09,15.694z"/>
	<path fill="#FFFFFF" d="M159.689,18.304c2.311,2.244,3.467,5.545,3.467,9.903c0,4.212-1.019,7.691-3.055,10.439
		c-2.037,2.748-5.196,4.123-9.479,4.123c-3.572,0-6.408-1.216-8.509-3.646c-2.101-2.432-3.151-5.696-3.151-9.794
		c0-4.391,1.107-7.887,3.321-10.489s5.188-3.903,8.921-3.903C154.551,14.938,157.378,16.06,159.689,18.304z M156.961,35.682
		c1.07-2.203,1.605-4.654,1.605-7.352c0-2.438-0.386-4.422-1.159-5.95c-1.223-2.406-3.332-3.609-6.325-3.609
		c-2.656,0-4.586,1.024-5.793,3.073c-1.207,2.049-1.811,4.519-1.811,7.413c0,2.78,0.604,5.097,1.811,6.95s3.122,2.779,5.746,2.779
		C153.916,38.984,155.891,37.884,156.961,35.682z"/>
	<path fill="#FFFFFF" d="M172.947,15.694v17.358c0,1.335,0.206,2.425,0.618,3.271c0.761,1.562,2.18,2.345,4.256,2.345
		c2.979,0,5.009-1.367,6.086-4.103c0.586-1.465,0.88-3.475,0.88-6.029V15.694h4.395v26.147h-4.15l0.049-3.856
		c-0.56,0.992-1.255,1.83-2.085,2.515c-1.645,1.367-3.641,2.051-5.989,2.051c-3.658,0-6.149-1.245-7.474-3.735
		c-0.719-1.334-1.078-3.117-1.078-5.347V15.694H172.947z"/>
	<path fill="#FFFFFF" d="M212.303,7.711c1.025-1.497,3.003-2.246,5.933-2.246c0.276,0,0.562,0.008,0.854,0.024
		c0.293,0.017,0.626,0.041,1.001,0.073v4.004c-0.461-0.032-0.794-0.053-1-0.061s-0.399-0.012-0.58-0.012
		c-1.35,0-2.156,0.346-2.419,1.038c-0.263,0.692-0.395,2.454-0.395,5.286h4.395v3.467h-4.395v22.559h-4.346v-22.56h-3.638v-3.467
		h3.638v-4.102C211.415,9.892,211.732,8.558,212.303,7.711z"/>
	<path fill="#FFFFFF" d="M224.143,5.978h4.468v4.98h-4.468V5.978z M224.143,15.816h4.468v26.025h-4.468V15.816z"/>
	<path fill="#FFFFFF" d="M235.251,15.694h4.175v3.711c1.237-1.53,2.547-2.628,3.931-3.296c1.383-0.667,2.921-1.001,4.614-1.001
		c3.711,0,6.217,1.294,7.519,3.882c0.717,1.416,1.074,3.442,1.074,6.079v16.772h-4.467V25.362c0-1.595-0.236-2.881-0.708-3.857
		c-0.781-1.627-2.197-2.441-4.248-2.441c-1.042,0-1.896,0.106-2.563,0.317c-1.205,0.358-2.263,1.074-3.174,2.148
		c-0.732,0.863-1.208,1.754-1.428,2.673c-0.22,0.92-0.33,2.234-0.33,3.943v13.696h-4.395V15.694z"/>
	<path fill="#FFFFFF" d="M277.425,16.5c0.778,0.488,1.661,1.343,2.651,2.563V5.856h4.223v35.986h-3.955v-3.638
		c-1.021,1.61-2.229,2.774-3.623,3.491c-1.395,0.716-2.992,1.074-4.791,1.074c-2.902,0-5.416-1.226-7.54-3.675
		c-2.124-2.448-3.187-5.708-3.187-9.778c0-3.809,0.969-7.107,2.905-9.899c1.938-2.791,4.706-4.187,8.306-4.187
		C274.41,15.231,276.078,15.654,277.425,16.5z M267.615,36.105c1.183,1.888,3.077,2.832,5.686,2.832c2.023,0,3.688-0.875,4.99-2.625
		c1.305-1.75,1.955-4.261,1.955-7.533c0-3.303-0.672-5.75-2.016-7.335s-3.004-2.38-4.979-2.38c-2.202,0-3.988,0.847-5.356,2.539
		c-1.368,1.693-2.053,4.183-2.053,7.471C265.842,31.873,266.434,34.217,267.615,36.105z"/>
	<path fill="#FFFFFF" d="M304.758,15.694h4.176v3.711c1.236-1.53,2.547-2.628,3.93-3.296c1.385-0.667,2.922-1.001,4.615-1.001
		c3.711,0,6.217,1.294,7.52,3.882c0.715,1.416,1.074,3.442,1.074,6.079v16.772h-4.469V25.362c0-1.595-0.236-2.881-0.707-3.857
		c-0.781-1.627-2.197-2.441-4.248-2.441c-1.043,0-1.896,0.106-2.564,0.317c-1.203,0.358-2.262,1.074-3.174,2.148
		c-0.731,0.863-1.207,1.754-1.428,2.673c-0.22,0.92-0.33,2.234-0.33,3.943v13.696h-4.395V15.694z"/>
	<path fill="#FFFFFF" d="M336.961,15.694v17.358c0,1.335,0.205,2.425,0.617,3.271c0.762,1.562,2.18,2.345,4.256,2.345
		c2.979,0,5.01-1.367,6.088-4.103c0.586-1.465,0.879-3.475,0.879-6.029V15.694h4.395v26.147h-4.15l0.05-3.856
		c-0.56,0.992-1.254,1.83-2.084,2.515c-1.646,1.367-3.642,2.051-5.989,2.051c-3.656,0-6.148-1.245-7.474-3.735
		c-0.72-1.334-1.078-3.117-1.078-5.347V15.694H336.961z"/>
	<path fill="#FFFFFF" d="M360.373,15.694h4.346v3.711c1.042-1.286,1.986-2.222,2.832-2.808c1.449-0.993,3.093-1.489,4.932-1.489
		c2.084,0,3.76,0.513,5.029,1.538c0.717,0.586,1.367,1.449,1.953,2.588c0.977-1.399,2.125-2.437,3.443-3.113
		c1.317-0.675,2.799-1.013,4.442-1.013c3.517,0,5.908,1.27,7.179,3.809c0.684,1.367,1.024,3.207,1.024,5.518v17.407h-4.565V23.678
		c0-1.741-0.437-2.938-1.307-3.589c-0.871-0.651-1.934-0.977-3.188-0.977c-1.725,0-3.209,0.578-4.455,1.733
		c-1.244,1.156-1.866,3.084-1.866,5.786v15.21h-4.47V24.776c0-1.774-0.211-3.068-0.635-3.882c-0.667-1.221-1.912-1.831-3.734-1.831
		c-1.659,0-3.17,0.643-4.528,1.929c-1.358,1.286-2.039,3.613-2.039,6.982v13.867h-4.396V15.694H360.373z"/>
	<path fill="#FFFFFF" d="M401.658,5.856h4.271v13.013c0.965-1.253,2.117-2.209,3.456-2.869c1.34-0.659,2.794-0.989,4.362-0.989
		c3.269,0,5.92,1.119,7.953,3.357c2.034,2.238,3.053,5.538,3.053,9.9c0,4.134-1.006,7.568-3.017,10.302
		c-2.01,2.736-4.795,4.103-8.356,4.103c-1.993,0-3.676-0.479-5.049-1.44c-0.816-0.568-1.69-1.48-2.621-2.733v3.345h-4.053V5.856
		L401.658,5.856z M418.461,35.958c1.184-1.888,1.775-4.378,1.775-7.471c0-2.75-0.593-5.029-1.775-6.836
		c-1.184-1.807-2.928-2.71-5.23-2.71c-2.008,0-3.768,0.741-5.277,2.222c-1.512,1.481-2.268,3.923-2.268,7.324
		c0,2.458,0.311,4.453,0.932,5.981c1.158,2.882,3.322,4.321,6.491,4.321C415.492,38.79,417.277,37.846,418.461,35.958z"/>
	<path fill="#FFFFFF" d="M445.982,16.415c1.73,0.871,3.049,1.998,3.955,3.381c0.873,1.318,1.455,2.856,1.747,4.614
		c0.259,1.205,0.388,3.125,0.388,5.762h-19.018c0.08,2.66,0.702,4.795,1.865,6.402c1.162,1.607,2.963,2.41,5.4,2.41
		c2.276,0,4.095-0.76,5.45-2.28c0.76-0.884,1.297-1.905,1.613-3.066h4.322c-0.115,0.96-0.493,2.031-1.137,3.21
		c-0.644,1.18-1.359,2.146-2.15,2.894c-1.325,1.302-2.965,2.181-4.919,2.637c-1.051,0.26-2.237,0.392-3.562,0.392
		c-3.234,0-5.977-1.185-8.225-3.553c-2.248-2.367-3.373-5.684-3.373-9.949c0-4.199,1.133-7.608,3.396-10.229
		c2.266-2.62,5.226-3.931,8.881-3.931C442.464,15.108,444.251,15.544,445.982,16.415z M447.557,26.681
		c-0.178-1.904-0.59-3.426-1.235-4.565c-1.193-2.116-3.188-3.174-5.979-3.174c-2.001,0-3.68,0.729-5.035,2.185
		c-1.355,1.457-2.074,3.308-2.154,5.554H447.557z"/>
	<path fill="#FFFFFF" d="M457.762,15.694h4.174v4.517c0.342-0.879,1.18-1.949,2.516-3.21c1.334-1.261,2.872-1.892,4.613-1.892
		c0.082,0,0.221,0.008,0.416,0.024c0.195,0.017,0.528,0.049,1,0.098v4.639c-0.26-0.049-0.5-0.081-0.72-0.098
		c-0.22-0.016-0.46-0.024-0.72-0.024c-2.216,0-3.915,0.712-5.104,2.136c-1.188,1.424-1.781,3.064-1.781,4.919v15.039h-4.395
		L457.762,15.694L457.762,15.694z"/>
	<path fill="#FFFFFF" d="M477.891,8.724c2.01-2.14,4.771-3.21,8.279-3.21c3.246,0,5.846,0.916,7.799,2.747
		c1.951,1.831,2.928,4.171,2.928,7.019c0,1.726-0.354,3.125-1.062,4.199c-0.708,1.074-2.159,2.653-4.354,4.736
		c-1.596,1.514-2.635,2.795-3.115,3.845c-0.481,1.049-0.723,2.6-0.723,4.651h-4.346c0-2.327,0.274-4.203,0.83-5.627
		c0.553-1.424,1.784-3.056,3.692-4.895l1.992-1.929c0.598-0.553,1.082-1.131,1.454-1.733c0.677-1.058,1.015-2.156,1.015-3.296
		c0-1.595-0.485-2.979-1.459-4.15c-0.972-1.172-2.58-1.758-4.822-1.758c-2.774,0-4.694,1.009-5.759,3.027
		c-0.599,1.123-0.938,2.743-1.021,4.858h-4.346C474.875,13.692,475.881,10.865,477.891,8.724z M483.201,36.764h4.857v5.078h-4.857
		V36.764z"/>
</g>
<g>
	<g>
		
			<line fill-rule="evenodd" clip-rule="evenodd" fill="none" stroke="#FFFFFF" stroke-width="5" stroke-linecap="round" stroke-linejoin="round" stroke-miterlimit="10" x1="123.316" y1="191.862" x2="382.684" y2="191.862"/>
		
			<line fill-rule="evenodd" clip-rule="evenodd" fill="none" stroke="#FFFFFF" stroke-width="5" stroke-linecap="round" stroke-linejoin="round" stroke-miterlimit="10" x1="253.953" y1="63.133" x2="253.953" y2="322.5"/>
		
			<line fill-rule="evenodd" clip-rule="evenodd" fill="none" stroke="#FFFFFF" stroke-width="5" stroke-linecap="round" stroke-linejoin="round" stroke-miterlimit="10" x1="162.136" y1="100.598" x2="345.219" y2="283.681"/>
		
			<line fill-rule="evenodd" clip-rule="evenodd" fill="none" stroke="#FFFFFF" stroke-width="5" stroke-linecap="round" stroke-linejoin="round" stroke-miterlimit="10" x1="345.219" y1="101.952" x2="162.136" y2="285.035"/>
	</g>
	
		<circle fill-rule="evenodd" clip-rule="evenodd" fill="none" stroke="#FFFFFF" stroke-width="5" stroke-linecap="round" stroke-linejoin="round" stroke-miterlimit="10" cx="253" cy="191.23" r="131.27"/>
</g>
<g>
	<path fill="#FFFFFF" d="M218.682,117v-8.203h-14.719v-4.125l15.375-21.328h3.562v21.773h4.945v3.68H222.9V117H218.682z
		 M218.611,105.117V89.873l-10.758,15.244H218.611z"/>
</g>
<g>
	<path fill="#FFFFFF" d="M269.99,95.234V92c3.047-0.297,5.172-0.793,6.375-1.488s2.102-2.34,2.695-4.934h3.328V119h-4.5V95.234
		H269.99z"/>
	<path fill="#FFFFFF" d="M314.498,90.805c1.5,2.766,2.25,6.555,2.25,11.367c0,4.562-0.68,8.336-2.039,11.32
		c-1.969,4.281-5.188,6.422-9.656,6.422c-4.031,0-7.031-1.75-9-5.25c-1.641-2.922-2.461-6.844-2.461-11.766
		c0-3.812,0.492-7.086,1.477-9.82c1.844-5.094,5.18-7.641,10.008-7.641C309.42,85.438,312.561,87.227,314.498,90.805z
		 M310.252,113.164c1.3-1.938,1.949-5.547,1.949-10.828c0-3.812-0.47-6.949-1.408-9.41c-0.939-2.461-2.763-3.691-5.471-3.691
		c-2.488,0-4.308,1.168-5.458,3.504s-1.726,5.777-1.726,10.324c0,3.422,0.367,6.172,1.104,8.25c1.127,3.172,3.052,4.758,5.775,4.758
		C307.208,116.07,308.953,115.102,310.252,113.164z"/>
</g>
<g>
	<path fill="#FFFFFF" d="M209.295,267.207c1.93-2.055,4.58-3.082,7.949-3.082c3.116,0,5.611,0.879,7.486,2.637
		c1.874,1.758,2.812,4.004,2.812,6.738c0,1.656-0.34,3-1.02,4.031s-2.073,2.547-4.179,4.547c-1.532,1.453-2.529,2.684-2.991,3.691
		s-0.693,2.496-0.693,4.465h-4.172c0-2.234,0.266-4.035,0.797-5.402s1.713-2.934,3.546-4.699l1.913-1.852
		c0.573-0.531,1.039-1.086,1.396-1.664c0.649-1.016,0.974-2.07,0.974-3.164c0-1.531-0.467-2.859-1.4-3.984s-2.477-1.688-4.63-1.688
		c-2.664,0-4.507,0.969-5.528,2.906c-0.574,1.078-0.901,2.633-0.981,4.664H206.4C206.4,271.977,207.365,269.262,209.295,267.207z
		 M214.393,294.125h4.664V299h-4.664V294.125z"/>
</g>
<g>
	<path fill="#FFFFFF" d="M284.674,292.445c0.281,2.406,1.398,4.07,3.352,4.992c1,0.469,2.156,0.703,3.469,0.703
		c2.5,0,4.352-0.797,5.555-2.391s1.805-3.359,1.805-5.297c0-2.344-0.715-4.156-2.145-5.438s-3.145-1.922-5.145-1.922
		c-1.453,0-2.699,0.281-3.738,0.844s-1.926,1.344-2.66,2.344l-3.656-0.211l2.556-18.07h17.437v4.078h-14.273l-1.43,9.328
		c0.781-0.594,1.523-1.039,2.227-1.336c1.25-0.516,2.695-0.773,4.336-0.773c3.078,0,5.688,0.992,7.828,2.977s3.211,4.5,3.211,7.547
		c0,3.172-0.98,5.969-2.941,8.391s-5.09,3.633-9.387,3.633c-2.734,0-5.152-0.77-7.254-2.309s-3.277-3.902-3.527-7.09H284.674z"/>
</g>
<g>
	<path fill="#FFFFFF" d="M174.911,141v3.68c-1.078,1.047-2.512,2.867-4.301,5.461s-3.371,5.391-4.746,8.391
		c-1.359,2.922-2.391,5.586-3.094,7.992c-0.453,1.547-1.039,4.039-1.758,7.477h-4.664c1.062-6.406,3.406-12.781,7.031-19.125
		c2.141-3.719,4.391-6.93,6.75-9.633h-18.562V141H174.911z"/>
</g>
<g>
	<path fill="#FFFFFF" d="M329.902,150.234V147c3.047-0.297,5.172-0.793,6.375-1.488s2.102-2.34,2.695-4.934h3.328V174h-4.5v-23.766
		H329.902z"/>
</g>
<g>
	<path fill="#FFFFFF" d="M153.641,243.645c-1.789-2.18-2.684-4.832-2.684-7.957h4.406c0.188,2.172,0.594,3.75,1.219,4.734
		c1.094,1.766,3.07,2.648,5.93,2.648c2.219,0,4-0.594,5.344-1.781s2.016-2.719,2.016-4.594c0-2.312-0.707-3.93-2.121-4.852
		s-3.379-1.383-5.895-1.383c-0.281,0-0.566,0.004-0.855,0.012s-0.582,0.02-0.879,0.035v-3.727c0.438,0.047,0.805,0.078,1.102,0.094
		s0.617,0.023,0.961,0.023c1.578,0,2.875-0.25,3.891-0.75c1.781-0.875,2.672-2.438,2.672-4.688c0-1.672-0.594-2.961-1.781-3.867
		s-2.57-1.359-4.148-1.359c-2.812,0-4.758,0.938-5.836,2.812c-0.594,1.031-0.93,2.5-1.008,4.406h-4.172c0-2.5,0.5-4.625,1.5-6.375
		c1.719-3.125,4.742-4.688,9.07-4.688c3.422,0,6.07,0.762,7.945,2.285s2.812,3.73,2.812,6.621c0,2.062-0.555,3.734-1.664,5.016
		c-0.688,0.797-1.578,1.422-2.672,1.875c1.766,0.484,3.145,1.418,4.137,2.801s1.488,3.074,1.488,5.074
		c0,3.203-1.055,5.812-3.164,7.828s-5.102,3.023-8.977,3.023C158.309,246.914,155.43,245.824,153.641,243.645z"/>
</g>
<g>
	<path fill="#FFFFFF" d="M347.188,215.215c1.477,1.945,2.215,3.949,2.215,6.012h-4.172c-0.25-1.328-0.648-2.367-1.195-3.117
		c-1.016-1.406-2.555-2.109-4.617-2.109c-2.359,0-4.234,1.09-5.625,3.27s-2.164,5.301-2.32,9.363
		c0.969-1.422,2.188-2.484,3.656-3.188c1.344-0.625,2.844-0.938,4.5-0.938c2.812,0,5.266,0.898,7.359,2.695s3.141,4.477,3.141,8.039
		c0,3.047-0.992,5.746-2.977,8.098s-4.812,3.527-8.484,3.527c-3.141,0-5.852-1.191-8.133-3.574s-3.422-6.395-3.422-12.035
		c0-4.172,0.508-7.711,1.523-10.617c1.953-5.562,5.523-8.344,10.711-8.344C343.098,212.297,345.711,213.27,347.188,215.215z
		 M344.023,240.879c1.102-1.492,1.652-3.254,1.652-5.285c0-1.719-0.492-3.355-1.477-4.91s-2.773-2.332-5.367-2.332
		c-1.812,0-3.402,0.602-4.77,1.805s-2.051,3.016-2.051,5.438c0,2.125,0.621,3.91,1.863,5.355s2.965,2.168,5.168,2.168
		C341.262,243.117,342.922,242.371,344.023,240.879z"/>
</g>
</svg>
