<?xml version="1.0" encoding="utf-8"?>
<!-- Generator: Adobe Illustrator 16.0.0, SVG Export Plug-In . SVG Version: 6.00 Build 0)  -->
<!DOCTYPE svg PUBLIC "-//W3C//DTD SVG 1.1//EN" "http://www.w3.org/Graphics/SVG/1.1/DTD/svg11.dtd">
<svg version="1.1" id="Layer_1" xmlns="http://www.w3.org/2000/svg" xmlns:xlink="http://www.w3.org/1999/xlink" x="0px" y="0px"
	 width="745px" height="286px" viewBox="0 0 745 286" enable-background="new 0 0 745 286" xml:space="preserve">
<g>
	<path fill="#FFFFFF" d="M155.581,8.59c2.478,2.393,3.853,5.111,4.126,8.154h-4.736c-0.527-2.311-1.579-4.142-3.153-5.493
		c-1.575-1.351-3.785-2.026-6.629-2.026c-3.469,0-6.27,1.242-8.404,3.726c-2.134,2.484-3.201,6.292-3.201,11.423
		c0,4.203,0.963,7.61,2.89,10.226c1.926,2.614,4.8,3.922,8.622,3.922c3.518,0,6.196-1.375,8.034-4.127
		c0.975-1.447,1.703-3.353,2.183-5.713h4.736c-0.418,3.776-1.802,6.942-4.151,9.497c-2.815,3.076-6.613,4.614-11.391,4.614
		c-4.119,0-7.578-1.262-10.377-3.787c-3.684-3.338-5.526-8.493-5.526-15.464c0-5.293,1.383-9.633,4.15-13.021
		C135.746,6.841,139.872,5,145.133,5C149.621,5.001,153.104,6.197,155.581,8.59z"/>
	<path fill="#FFFFFF" d="M179.751,26.018c1.009-0.129,1.685-0.552,2.026-1.267c0.195-0.392,0.292-0.956,0.292-1.691
		c0-1.503-0.532-2.594-1.596-3.272c-1.064-0.678-2.586-1.017-4.568-1.017c-2.291,0-3.915,0.622-4.874,1.865
		c-0.536,0.688-0.885,1.709-1.047,3.067h-4.102c0.081-3.232,1.125-5.48,3.133-6.745s4.336-1.897,6.986-1.897
		c3.072,0,5.568,0.586,7.486,1.758c1.902,1.172,2.853,2.995,2.853,5.469v15.063c0,0.457,0.093,0.822,0.281,1.1
		c0.187,0.275,0.582,0.414,1.184,0.414c0.195,0,0.415-0.012,0.659-0.037c0.244-0.025,0.504-0.061,0.781-0.109v3.247
		c-0.684,0.195-1.205,0.317-1.562,0.366c-0.358,0.049-0.847,0.072-1.465,0.072c-1.514,0-2.612-0.536-3.296-1.61
		c-0.358-0.569-0.61-1.375-0.757-2.417c-0.896,1.172-2.181,2.188-3.857,3.051c-1.677,0.862-3.524,1.293-5.542,1.293
		c-2.425,0-4.407-0.736-5.945-2.207c-1.538-1.471-2.307-3.312-2.307-5.521c0-2.422,0.757-4.301,2.271-5.633
		c1.514-1.333,3.499-2.154,5.957-2.463L179.751,26.018z M170.499,37.889c0.928,0.731,2.026,1.096,3.296,1.096
		c1.546,0,3.043-0.356,4.492-1.071c2.441-1.187,3.662-3.128,3.662-5.826v-3.535c-0.536,0.343-1.227,0.63-2.071,0.857
		c-0.845,0.229-1.673,0.392-2.485,0.489l-2.656,0.342c-1.592,0.211-2.789,0.544-3.591,0.998c-1.359,0.764-2.039,1.981-2.039,3.654
		C169.106,36.16,169.571,37.159,170.499,37.889z"/>
	<path fill="#FFFFFF" d="M193.545,15.694h4.175v3.711c1.237-1.53,2.547-2.628,3.931-3.296c1.383-0.667,2.921-1.001,4.614-1.001
		c3.711,0,6.217,1.294,7.52,3.882c0.716,1.416,1.074,3.442,1.074,6.079v16.772h-4.469V25.362c0-1.595-0.236-2.881-0.708-3.857
		c-0.781-1.627-2.197-2.441-4.248-2.441c-1.042,0-1.896,0.106-2.563,0.317c-1.205,0.358-2.263,1.074-3.174,2.148
		c-0.732,0.863-1.208,1.754-1.428,2.673c-0.22,0.92-0.33,2.234-0.33,3.943v13.696h-4.395L193.545,15.694L193.545,15.694z"/>
	<path fill="#FFFFFF" d="M251.59,15.694h4.858c-0.619,1.677-1.994,5.504-4.126,11.48c-1.595,4.495-2.93,8.158-4.004,10.991
		c-2.537,6.668-4.326,10.733-5.366,12.198c-1.04,1.464-2.829,2.195-5.366,2.195c-0.618,0-1.094-0.023-1.427-0.072
		s-0.745-0.139-1.232-0.27v-4.004c0.764,0.211,1.316,0.342,1.657,0.391c0.341,0.049,0.642,0.073,0.902,0.073
		c0.812,0,1.409-0.134,1.791-0.401c0.382-0.27,0.703-0.598,0.963-0.987c0.081-0.13,0.374-0.796,0.877-1.998s0.87-2.097,1.097-2.681
		l-9.668-26.917h4.98l7.007,21.299L251.59,15.694z"/>
	<path fill="#FFFFFF" d="M279.189,18.304c2.311,2.244,3.467,5.545,3.467,9.903c0,4.212-1.019,7.691-3.055,10.439
		c-2.037,2.748-5.196,4.123-9.479,4.123c-3.572,0-6.408-1.216-8.509-3.646c-2.101-2.432-3.151-5.696-3.151-9.794
		c0-4.391,1.107-7.887,3.321-10.489s5.188-3.903,8.921-3.903C274.051,14.938,276.878,16.06,279.189,18.304z M276.461,35.682
		c1.07-2.203,1.605-4.654,1.605-7.352c0-2.438-0.386-4.422-1.159-5.95c-1.223-2.406-3.332-3.609-6.325-3.609
		c-2.656,0-4.586,1.024-5.793,3.073c-1.207,2.049-1.811,4.519-1.811,7.413c0,2.78,0.604,5.097,1.811,6.95s3.122,2.779,5.746,2.779
		C273.416,38.984,275.391,37.884,276.461,35.682z"/>
	<path fill="#FFFFFF" d="M292.447,15.694v17.358c0,1.335,0.206,2.425,0.618,3.271c0.761,1.562,2.18,2.345,4.256,2.345
		c2.979,0,5.009-1.367,6.086-4.103c0.586-1.465,0.88-3.475,0.88-6.029V15.694h4.395v26.147h-4.15l0.049-3.856
		c-0.56,0.992-1.255,1.83-2.085,2.515c-1.645,1.367-3.641,2.051-5.989,2.051c-3.658,0-6.149-1.245-7.474-3.735
		c-0.719-1.334-1.078-3.117-1.078-5.347V15.694H292.447z"/>
	<path fill="#FFFFFF" d="M331.803,7.711c1.025-1.497,3.003-2.246,5.933-2.246c0.276,0,0.562,0.008,0.854,0.024
		c0.293,0.017,0.626,0.041,1.001,0.073v4.004c-0.461-0.032-0.794-0.053-1-0.061s-0.399-0.012-0.58-0.012
		c-1.35,0-2.156,0.346-2.419,1.038c-0.263,0.692-0.395,2.454-0.395,5.286h4.395v3.467h-4.395v22.559h-4.346v-22.56h-3.638v-3.467
		h3.638v-4.102C330.915,9.892,331.232,8.558,331.803,7.711z"/>
	<path fill="#FFFFFF" d="M343.643,5.978h4.468v4.98h-4.468V5.978z M343.643,15.816h4.468v26.025h-4.468V15.816z"/>
	<path fill="#FFFFFF" d="M354.751,15.694h4.175v3.711c1.237-1.53,2.547-2.628,3.931-3.296c1.383-0.667,2.921-1.001,4.614-1.001
		c3.711,0,6.217,1.294,7.519,3.882c0.717,1.416,1.074,3.442,1.074,6.079v16.772h-4.467V25.362c0-1.595-0.236-2.881-0.708-3.857
		c-0.781-1.627-2.197-2.441-4.248-2.441c-1.042,0-1.896,0.106-2.563,0.317c-1.205,0.358-2.263,1.074-3.174,2.148
		c-0.732,0.863-1.208,1.754-1.428,2.673c-0.22,0.92-0.33,2.234-0.33,3.943v13.696h-4.395V15.694z"/>
	<path fill="#FFFFFF" d="M396.925,16.5c0.778,0.488,1.661,1.343,2.651,2.563V5.856h4.223v35.986h-3.955v-3.638
		c-1.021,1.61-2.229,2.774-3.623,3.491c-1.395,0.716-2.992,1.074-4.791,1.074c-2.902,0-5.416-1.226-7.54-3.675
		c-2.124-2.448-3.187-5.708-3.187-9.778c0-3.809,0.969-7.107,2.905-9.899c1.938-2.791,4.706-4.187,8.306-4.187
		C393.91,15.231,395.578,15.654,396.925,16.5z M387.115,36.105c1.183,1.888,3.077,2.832,5.686,2.832c2.023,0,3.688-0.875,4.99-2.625
		c1.305-1.75,1.955-4.261,1.955-7.533c0-3.303-0.672-5.75-2.016-7.335s-3.004-2.38-4.979-2.38c-2.202,0-3.988,0.847-5.356,2.539
		c-1.368,1.693-2.053,4.183-2.053,7.471C385.342,31.873,385.934,34.217,387.115,36.105z"/>
	<path fill="#FFFFFF" d="M424.258,15.694h4.176v3.711c1.236-1.53,2.547-2.628,3.93-3.296c1.385-0.667,2.922-1.001,4.615-1.001
		c3.711,0,6.217,1.294,7.52,3.882c0.715,1.416,1.074,3.442,1.074,6.079v16.772h-4.469V25.362c0-1.595-0.236-2.881-0.707-3.857
		c-0.781-1.627-2.197-2.441-4.248-2.441c-1.043,0-1.896,0.106-2.564,0.317c-1.203,0.358-2.262,1.074-3.174,2.148
		c-0.731,0.863-1.207,1.754-1.428,2.673c-0.22,0.92-0.33,2.234-0.33,3.943v13.696h-4.395V15.694z"/>
	<path fill="#FFFFFF" d="M456.461,15.694v17.358c0,1.335,0.205,2.425,0.617,3.271c0.762,1.562,2.18,2.345,4.256,2.345
		c2.979,0,5.01-1.367,6.088-4.103c0.586-1.465,0.879-3.475,0.879-6.029V15.694h4.395v26.147h-4.15l0.05-3.856
		c-0.56,0.992-1.254,1.83-2.084,2.515c-1.646,1.367-3.642,2.051-5.989,2.051c-3.656,0-6.148-1.245-7.474-3.735
		c-0.72-1.334-1.078-3.117-1.078-5.347V15.694H456.461z"/>
	<path fill="#FFFFFF" d="M479.873,15.694h4.346v3.711c1.042-1.286,1.986-2.222,2.832-2.808c1.449-0.993,3.093-1.489,4.932-1.489
		c2.084,0,3.76,0.513,5.029,1.538c0.717,0.586,1.367,1.449,1.953,2.588c0.977-1.399,2.125-2.437,3.443-3.113
		c1.317-0.675,2.799-1.013,4.442-1.013c3.517,0,5.908,1.27,7.179,3.809c0.684,1.367,1.024,3.207,1.024,5.518v17.407h-4.565V23.678
		c0-1.741-0.437-2.938-1.307-3.589c-0.871-0.651-1.934-0.977-3.188-0.977c-1.725,0-3.209,0.578-4.455,1.733
		c-1.244,1.156-1.866,3.084-1.866,5.786v15.21h-4.47V24.776c0-1.774-0.211-3.068-0.635-3.882c-0.667-1.221-1.912-1.831-3.734-1.831
		c-1.659,0-3.17,0.643-4.528,1.929c-1.358,1.286-2.039,3.613-2.039,6.982v13.867h-4.396V15.694H479.873z"/>
	<path fill="#FFFFFF" d="M521.158,5.856h4.271v13.013c0.965-1.253,2.117-2.209,3.456-2.869c1.34-0.659,2.794-0.989,4.362-0.989
		c3.269,0,5.92,1.119,7.953,3.357c2.034,2.238,3.053,5.538,3.053,9.9c0,4.134-1.006,7.568-3.017,10.302
		c-2.01,2.736-4.795,4.103-8.356,4.103c-1.993,0-3.676-0.479-5.049-1.44c-0.816-0.568-1.69-1.48-2.621-2.733v3.345h-4.053V5.856
		L521.158,5.856z M537.961,35.958c1.184-1.888,1.775-4.378,1.775-7.471c0-2.75-0.593-5.029-1.775-6.836
		c-1.184-1.807-2.928-2.71-5.23-2.71c-2.008,0-3.768,0.741-5.277,2.222c-1.512,1.481-2.268,3.923-2.268,7.324
		c0,2.458,0.311,4.453,0.932,5.981c1.158,2.882,3.322,4.321,6.491,4.321C534.992,38.79,536.777,37.846,537.961,35.958z"/>
	<path fill="#FFFFFF" d="M565.482,16.415c1.73,0.871,3.049,1.998,3.955,3.381c0.873,1.318,1.455,2.856,1.747,4.614
		c0.259,1.205,0.388,3.125,0.388,5.762h-19.018c0.08,2.66,0.702,4.795,1.865,6.402c1.162,1.607,2.963,2.41,5.4,2.41
		c2.276,0,4.095-0.76,5.45-2.28c0.76-0.884,1.297-1.905,1.613-3.066h4.322c-0.115,0.96-0.493,2.031-1.137,3.21
		c-0.644,1.18-1.359,2.146-2.15,2.894c-1.325,1.302-2.965,2.181-4.919,2.637c-1.051,0.26-2.237,0.392-3.562,0.392
		c-3.234,0-5.977-1.185-8.225-3.553c-2.248-2.367-3.373-5.684-3.373-9.949c0-4.199,1.133-7.608,3.396-10.229
		c2.266-2.62,5.226-3.931,8.881-3.931C561.964,15.108,563.751,15.544,565.482,16.415z M567.057,26.681
		c-0.178-1.904-0.59-3.426-1.235-4.565c-1.193-2.116-3.188-3.174-5.979-3.174c-2.001,0-3.68,0.729-5.035,2.185
		c-1.355,1.457-2.074,3.308-2.154,5.554H567.057z"/>
	<path fill="#FFFFFF" d="M577.262,15.694h4.174v4.517c0.342-0.879,1.18-1.949,2.516-3.21c1.334-1.261,2.872-1.892,4.613-1.892
		c0.082,0,0.221,0.008,0.416,0.024c0.195,0.017,0.528,0.049,1,0.098v4.639c-0.26-0.049-0.5-0.081-0.72-0.098
		c-0.22-0.016-0.46-0.024-0.72-0.024c-2.216,0-3.915,0.712-5.104,2.136c-1.188,1.424-1.781,3.064-1.781,4.919v15.039h-4.395
		L577.262,15.694L577.262,15.694z"/>
	<path fill="#FFFFFF" d="M597.391,8.724c2.01-2.14,4.771-3.21,8.279-3.21c3.246,0,5.846,0.916,7.799,2.747
		c1.951,1.831,2.928,4.171,2.928,7.019c0,1.726-0.354,3.125-1.062,4.199c-0.708,1.074-2.159,2.653-4.354,4.736
		c-1.596,1.514-2.635,2.795-3.115,3.845c-0.481,1.049-0.723,2.6-0.723,4.651h-4.346c0-2.327,0.274-4.203,0.83-5.627
		c0.553-1.424,1.784-3.056,3.692-4.895l1.992-1.929c0.598-0.553,1.082-1.131,1.454-1.733c0.677-1.058,1.015-2.156,1.015-3.296
		c0-1.595-0.485-2.979-1.459-4.15c-0.972-1.172-2.58-1.758-4.822-1.758c-2.774,0-4.694,1.009-5.759,3.027
		c-0.599,1.123-0.938,2.743-1.021,4.858h-4.346C594.375,13.692,595.381,10.865,597.391,8.724z M602.701,36.764h4.857v5.078h-4.857
		V36.764z"/>
</g>
<g>
	<g>
		<g>
			<path fill="#FFFFFF" d="M369.833,73.667v100h-101v-100H369.833 M374.834,68.667h-5h-101h-5v5v100v5h5h101h5v-5v-100V68.667
				L374.834,68.667z"/>
		</g>
		<g>
			<path fill="#FFFFFF" d="M476.166,73.667v100h-101v-100H476.166 M481.166,68.667h-5h-101h-5v5v100v5h5h101h5v-5v-100V68.667
				L481.166,68.667z"/>
		</g>
	</g>
	<g>
		<path fill="#FFFFFF" d="M423,178.668v100H322v-100H423 M428,173.668h-5H322h-5v5v100v5h5h101h5v-5v-100V173.668L428,173.668z"/>
	</g>
	<g>
		<path fill="#FFFFFF" d="M311.223,121.359c-1.234-1.25-1.852-2.875-1.852-4.875c0-2.5,0.905-4.648,2.715-6.445
			s4.378-2.695,7.703-2.695c3.215,0,5.735,0.848,7.562,2.543s2.739,3.676,2.739,5.941c0,2.094-0.531,3.789-1.593,5.086
			c-0.594,0.734-1.515,1.453-2.764,2.156c1.396,0.641,2.494,1.375,3.294,2.203c1.49,1.562,2.235,3.594,2.235,6.094
			c0,2.953-0.992,5.457-2.977,7.512s-4.789,3.082-8.414,3.082c-3.266,0-6.027-0.887-8.285-2.66s-3.387-4.348-3.387-7.723
			c0-1.984,0.484-3.699,1.453-5.145c0.969-1.445,2.406-2.551,4.312-3.316C312.792,122.617,311.878,122.031,311.223,121.359z
			 M324.828,136.535c1.289-1.055,1.934-2.629,1.934-4.723c0-2.172-0.664-3.82-1.992-4.945s-3.031-1.688-5.109-1.688
			c-2.016,0-3.66,0.574-4.934,1.723s-1.91,2.738-1.91,4.77c0,1.75,0.582,3.262,1.746,4.535s2.965,1.91,5.402,1.91
			C321.918,138.117,323.539,137.59,324.828,136.535z M324.046,119.938c1.045-1.042,1.567-2.283,1.567-3.724
			c0-1.252-0.499-2.403-1.497-3.453s-2.519-1.574-4.561-1.574c-2.027,0-3.494,0.525-4.398,1.574s-1.356,2.279-1.356,3.688
			c0,1.582,0.584,2.819,1.754,3.711c1.17,0.893,2.55,1.339,4.141,1.339C321.551,121.5,323.001,120.979,324.046,119.938z"/>
	</g>
	<g>
		<path fill="#FFFFFF" d="M434.197,110.215c1.477,1.945,2.215,3.949,2.215,6.012h-4.172c-0.25-1.328-0.648-2.367-1.195-3.117
			c-1.016-1.406-2.555-2.109-4.617-2.109c-2.359,0-4.234,1.09-5.625,3.27s-2.164,5.301-2.32,9.363
			c0.969-1.422,2.188-2.484,3.656-3.188c1.344-0.625,2.844-0.938,4.5-0.938c2.812,0,5.266,0.898,7.359,2.695
			s3.141,4.477,3.141,8.039c0,3.047-0.992,5.746-2.977,8.098s-4.812,3.527-8.484,3.527c-3.141,0-5.852-1.191-8.133-3.574
			s-3.422-6.395-3.422-12.035c0-4.172,0.508-7.711,1.523-10.617c1.953-5.562,5.523-8.344,10.711-8.344
			C430.107,107.297,432.721,108.27,434.197,110.215z M431.033,135.879c1.102-1.492,1.652-3.254,1.652-5.285
			c0-1.719-0.492-3.355-1.477-4.91s-2.773-2.332-5.367-2.332c-1.812,0-3.402,0.602-4.77,1.805s-2.051,3.016-2.051,5.438
			c0,2.125,0.621,3.91,1.863,5.355s2.965,2.168,5.168,2.168C428.271,138.117,429.932,137.371,431.033,135.879z"/>
	</g>
	<g>
		<path fill="#FFFFFF" d="M386.92,212v3.68c-1.078,1.047-2.512,2.867-4.301,5.461s-3.371,5.391-4.746,8.391
			c-1.359,2.922-2.391,5.586-3.094,7.992c-0.453,1.547-1.039,4.039-1.758,7.477h-4.664c1.062-6.406,3.406-12.781,7.031-19.125
			c2.141-3.719,4.391-6.93,6.75-9.633h-18.562V212H386.92z"/>
	</g>
</g>
<g>
	<g>
		<g>
			<g>
				<path fill="#FFFFFF" d="M115.671,73.667v100h-101v-100H115.671 M120.671,68.667h-5h-101h-5v5v100v5h5h101h5v-5v-100V68.667
					L120.671,68.667z"/>
			</g>
			<g>
				<path fill="#FFFFFF" d="M222.004,73.667v100h-101v-100H222.004 M227.004,68.667h-5h-101h-5v5v100v5h5h101h5v-5v-100V68.667
					L227.004,68.667z"/>
			</g>
		</g>
		<g>
			<path fill="#FFFFFF" d="M168.838,178.668v100h-101v-100H168.838 M173.838,173.668h-5h-101h-5v5v100v5h5h101h5v-5v-100V173.668
				L173.838,173.668z"/>
		</g>
		<g>
			<path fill="#FFFFFF" d="M77.592,108v3.68c-1.078,1.047-2.512,2.867-4.301,5.461s-3.371,5.391-4.746,8.391
				c-1.359,2.922-2.391,5.586-3.094,7.992c-0.453,1.547-1.039,4.039-1.758,7.477h-4.664c1.062-6.406,3.406-12.781,7.031-19.125
				c2.141-3.719,4.391-6.93,6.75-9.633H54.248V108H77.592z"/>
		</g>
		<g>
			<path fill="#FFFFFF" d="M161.988,138.645c-1.789-2.18-2.684-4.832-2.684-7.957h4.406c0.188,2.172,0.594,3.75,1.219,4.734
				c1.094,1.766,3.07,2.648,5.93,2.648c2.219,0,4-0.594,5.344-1.781s2.016-2.719,2.016-4.594c0-2.312-0.707-3.93-2.121-4.852
				s-3.379-1.383-5.895-1.383c-0.281,0-0.566,0.004-0.855,0.012s-0.582,0.02-0.879,0.035v-3.727
				c0.438,0.047,0.805,0.078,1.102,0.094s0.617,0.023,0.961,0.023c1.578,0,2.875-0.25,3.891-0.75
				c1.781-0.875,2.672-2.438,2.672-4.688c0-1.672-0.594-2.961-1.781-3.867s-2.57-1.359-4.148-1.359
				c-2.812,0-4.758,0.938-5.836,2.812c-0.594,1.031-0.93,2.5-1.008,4.406h-4.172c0-2.5,0.5-4.625,1.5-6.375
				c1.719-3.125,4.742-4.688,9.07-4.688c3.422,0,6.07,0.762,7.945,2.285s2.812,3.73,2.812,6.621c0,2.062-0.555,3.734-1.664,5.016
				c-0.688,0.797-1.578,1.422-2.672,1.875c1.766,0.484,3.145,1.418,4.137,2.801s1.488,3.074,1.488,5.074
				c0,3.203-1.055,5.812-3.164,7.828s-5.102,3.023-8.977,3.023C166.656,141.914,163.777,140.824,161.988,138.645z"/>
		</g>
		<g>
			<path fill="#FFFFFF" d="M113.586,236.445c0.281,2.406,1.398,4.07,3.352,4.992c1,0.469,2.156,0.703,3.469,0.703
				c2.5,0,4.352-0.797,5.555-2.391s1.805-3.359,1.805-5.297c0-2.344-0.715-4.156-2.145-5.438s-3.145-1.922-5.145-1.922
				c-1.453,0-2.699,0.281-3.738,0.844s-1.926,1.344-2.66,2.344l-3.656-0.211l2.556-18.07h17.437v4.078h-14.273l-1.43,9.328
				c0.781-0.594,1.523-1.039,2.227-1.336c1.25-0.516,2.695-0.773,4.336-0.773c3.078,0,5.688,0.992,7.828,2.977
				s3.211,4.5,3.211,7.547c0,3.172-0.98,5.969-2.941,8.391s-5.09,3.633-9.387,3.633c-2.734,0-5.152-0.77-7.254-2.309
				s-3.277-3.902-3.527-7.09H113.586z"/>
		</g>
	</g>
	<g>
		<g>
			<g>
				<path fill="#FFFFFF" d="M623.996,73.667v100h-101v-100H623.996 M628.996,68.667h-5h-101h-5v5v100v5h5h101h5v-5v-100V68.667
					L628.996,68.667z"/>
			</g>
			<g>
				<path fill="#FFFFFF" d="M730.329,73.667v100h-101v-100H730.329 M735.329,68.667h-5h-101h-5v5v100v5h5h101h5v-5v-100V68.667
					L735.329,68.667z"/>
			</g>
		</g>
		<g>
			<path fill="#FFFFFF" d="M677.163,178.668v100h-101v-100H677.163 M682.163,173.668h-5h-101h-5v5v100v5h5h101h5v-5v-100V173.668
				L682.163,173.668z"/>
		</g>
		<g>
			<path fill="#FFFFFF" d="M576.753,141v-8.203h-14.719v-4.125l15.375-21.328h3.562v21.773h4.945v3.68h-4.945V141H576.753z
				 M576.683,129.117v-15.244l-10.758,15.244H576.683z"/>
		</g>
		<g>
			<path fill="#FFFFFF" d="M669.774,133.453c1.039-2.141,3.066-4.086,6.082-5.836l4.5-2.602c2.016-1.172,3.43-2.173,4.242-3.002
				c1.281-1.299,1.922-2.787,1.922-4.461c0-1.957-0.586-3.511-1.758-4.662c-1.172-1.151-2.734-1.726-4.688-1.726
				c-2.891,0-4.891,1.097-6,3.291c-0.594,1.175-0.922,2.805-0.984,4.889h-4.289c0.047-2.922,0.586-5.305,1.617-7.148
				c1.828-3.25,5.055-4.875,9.68-4.875c3.844,0,6.652,1.039,8.426,3.117s2.66,4.391,2.66,6.938c0,2.688-0.945,4.984-2.836,6.891
				c-1.094,1.109-3.055,2.453-5.883,4.031l-3.211,1.781c-1.531,0.844-2.734,1.648-3.609,2.414c-1.562,1.359-2.547,2.867-2.953,4.523
				h18.328V141h-23.039C668.138,138.109,668.735,135.594,669.774,133.453z"/>
		</g>
		<g>
			<path fill="#FFFFFF" d="M622.532,213.207c1.93-2.055,4.579-3.082,7.948-3.082c3.116,0,5.611,0.879,7.486,2.637
				c1.874,1.758,2.812,4.004,2.812,6.738c0,1.656-0.34,3-1.02,4.031s-2.073,2.547-4.179,4.547c-1.531,1.453-2.529,2.684-2.991,3.691
				s-0.693,2.496-0.693,4.465h-4.172c0-2.234,0.266-4.035,0.797-5.402s1.713-2.934,3.546-4.699l1.913-1.852
				c0.573-0.531,1.038-1.086,1.396-1.664c0.649-1.016,0.974-2.07,0.974-3.164c0-1.531-0.467-2.859-1.399-3.984
				c-0.934-1.125-2.478-1.688-4.631-1.688c-2.664,0-4.507,0.969-5.527,2.906c-0.574,1.078-0.901,2.633-0.981,4.664h-4.172
				C619.638,217.977,620.603,215.262,622.532,213.207z M627.63,240.125h4.664V245h-4.664V240.125z"/>
		</g>
	</g>
</g>
</svg>
