<?xml version="1.0" encoding="utf-8"?>
<!-- Generator: Adobe Illustrator 16.0.0, SVG Export Plug-In . SVG Version: 6.00 Build 0)  -->
<!DOCTYPE svg PUBLIC "-//W3C//DTD SVG 1.1//EN" "http://www.w3.org/Graphics/SVG/1.1/DTD/svg11.dtd">
<svg version="1.1" id="Layer_1" xmlns="http://www.w3.org/2000/svg" xmlns:xlink="http://www.w3.org/1999/xlink" x="0px" y="0px"
	 width="506px" height="303.605px" viewBox="0 0 506 303.605" enable-background="new 0 0 506 303.605" xml:space="preserve">
<g>
	<path fill="#FFFFFF" d="M36.19,7.963c2.478,2.393,3.853,5.111,4.126,8.154h-4.736c-0.527-2.311-1.579-4.142-3.153-5.493
		c-1.575-1.351-3.785-2.026-6.629-2.026c-3.469,0-6.27,1.242-8.404,3.726c-2.134,2.484-3.201,6.292-3.201,11.423
		c0,4.203,0.963,7.611,2.89,10.226c1.926,2.614,4.8,3.921,8.622,3.921c3.518,0,6.196-1.375,8.034-4.126
		c0.975-1.448,1.703-3.353,2.183-5.713h4.736c-0.418,3.776-1.802,6.942-4.151,9.497c-2.815,3.076-6.613,4.614-11.391,4.614
		c-4.119,0-7.578-1.262-10.377-3.787c-3.684-3.338-5.526-8.493-5.526-15.464c0-5.293,1.383-9.633,4.15-13.021
		c2.992-3.68,7.118-5.521,12.379-5.521C30.23,4.374,33.713,5.57,36.19,7.963z"/>
	<path fill="#FFFFFF" d="M60.361,25.391c1.009-0.129,1.685-0.552,2.026-1.267c0.195-0.392,0.292-0.956,0.292-1.691
		c0-1.503-0.532-2.594-1.596-3.272c-1.064-0.678-2.586-1.017-4.568-1.017c-2.291,0-3.915,0.622-4.874,1.865
		c-0.536,0.688-0.885,1.709-1.047,3.067h-4.102c0.081-3.232,1.125-5.48,3.133-6.745s4.336-1.897,6.986-1.897
		c3.072,0,5.568,0.586,7.486,1.758c1.902,1.172,2.853,2.995,2.853,5.469v15.064c0,0.456,0.093,0.822,0.281,1.099
		c0.187,0.276,0.582,0.414,1.184,0.414c0.195,0,0.415-0.012,0.659-0.037s0.504-0.061,0.781-0.109v3.247
		c-0.684,0.195-1.205,0.317-1.562,0.366c-0.358,0.049-0.847,0.073-1.465,0.073c-1.514,0-2.612-0.537-3.296-1.611
		c-0.358-0.57-0.61-1.375-0.757-2.417c-0.896,1.172-2.181,2.188-3.857,3.051c-1.677,0.862-3.524,1.293-5.542,1.293
		c-2.425,0-4.407-0.736-5.945-2.207c-1.538-1.471-2.307-3.312-2.307-5.522c0-2.422,0.757-4.3,2.271-5.633
		c1.514-1.333,3.499-2.154,5.957-2.463L60.361,25.391z M51.108,37.262c0.928,0.731,2.026,1.096,3.296,1.096
		c1.546,0,3.043-0.357,4.492-1.072c2.441-1.187,3.662-3.128,3.662-5.826v-3.535c-0.536,0.343-1.227,0.629-2.071,0.857
		c-0.845,0.229-1.673,0.392-2.485,0.489l-2.656,0.342c-1.592,0.211-2.789,0.544-3.591,0.999c-1.359,0.763-2.039,1.981-2.039,3.654
		C49.716,35.533,50.18,36.532,51.108,37.262z"/>
	<path fill="#FFFFFF" d="M74.155,15.067h4.175v3.711c1.237-1.53,2.547-2.628,3.931-3.296c1.383-0.667,2.921-1.001,4.614-1.001
		c3.711,0,6.217,1.294,7.52,3.882c0.716,1.416,1.074,3.442,1.074,6.079v16.772H91V24.735c0-1.595-0.236-2.881-0.708-3.857
		c-0.781-1.627-2.197-2.441-4.248-2.441c-1.042,0-1.896,0.106-2.563,0.317c-1.205,0.358-2.263,1.074-3.174,2.148
		c-0.732,0.863-1.208,1.754-1.428,2.673c-0.22,0.92-0.33,2.234-0.33,3.943v13.696h-4.395V15.067z"/>
	<path fill="#FFFFFF" d="M132.199,15.067h4.858c-0.619,1.677-1.994,5.504-4.126,11.48c-1.595,4.495-2.93,8.158-4.004,10.991
		c-2.537,6.668-4.326,10.734-5.366,12.198s-2.829,2.196-5.366,2.196c-0.618,0-1.094-0.024-1.427-0.073
		c-0.333-0.049-0.745-0.139-1.232-0.269v-4.004c0.764,0.211,1.316,0.342,1.657,0.391c0.341,0.049,0.642,0.073,0.902,0.073
		c0.812,0,1.409-0.134,1.791-0.402c0.382-0.269,0.703-0.597,0.963-0.987c0.081-0.13,0.374-0.796,0.877-1.998
		c0.503-1.202,0.87-2.096,1.097-2.68l-9.668-26.917h4.98l7.007,21.299L132.199,15.067z"/>
	<path fill="#FFFFFF" d="M159.799,17.677c2.311,2.244,3.467,5.545,3.467,9.903c0,4.212-1.019,7.692-3.055,10.44
		c-2.037,2.748-5.196,4.122-9.479,4.122c-3.572,0-6.408-1.215-8.509-3.646s-3.151-5.696-3.151-9.794
		c0-4.391,1.107-7.887,3.321-10.489c2.214-2.602,5.188-3.903,8.921-3.903C154.66,14.311,157.488,15.433,159.799,17.677z
		 M157.071,35.055c1.07-2.203,1.605-4.654,1.605-7.352c0-2.438-0.386-4.422-1.159-5.95c-1.223-2.406-3.332-3.609-6.325-3.609
		c-2.656,0-4.586,1.024-5.793,3.073s-1.811,4.519-1.811,7.413c0,2.78,0.604,5.097,1.811,6.95s3.122,2.78,5.746,2.78
		C154.025,38.358,156,37.257,157.071,35.055z"/>
	<path fill="#FFFFFF" d="M173.056,15.067v17.358c0,1.335,0.206,2.425,0.618,3.271c0.761,1.562,2.18,2.344,4.256,2.344
		c2.979,0,5.009-1.367,6.086-4.102c0.586-1.465,0.88-3.475,0.88-6.03V15.067h4.395v26.147h-4.15l0.049-3.857
		c-0.56,0.993-1.255,1.831-2.085,2.515c-1.645,1.367-3.641,2.051-5.989,2.051c-3.658,0-6.149-1.245-7.474-3.735
		c-0.719-1.334-1.078-3.117-1.078-5.347V15.067H173.056z"/>
	<path fill="#FFFFFF" d="M212.412,7.084c1.025-1.497,3.003-2.246,5.933-2.246c0.276,0,0.562,0.008,0.854,0.024
		c0.293,0.017,0.626,0.041,1.001,0.073v4.004c-0.461-0.032-0.794-0.053-1-0.061c-0.206-0.008-0.399-0.012-0.58-0.012
		c-1.35,0-2.156,0.346-2.419,1.038c-0.263,0.692-0.395,2.454-0.395,5.286h4.395v3.467h-4.395v22.559h-4.346V18.656h-3.638v-3.467
		h3.638v-4.102C211.524,9.265,211.842,7.931,212.412,7.084z"/>
	<path fill="#FFFFFF" d="M224.252,5.351h4.468v4.98h-4.468V5.351z M224.252,15.189h4.468v26.025h-4.468V15.189z"/>
	<path fill="#FFFFFF" d="M235.361,15.067h4.175v3.711c1.237-1.53,2.547-2.628,3.931-3.296c1.383-0.667,2.921-1.001,4.614-1.001
		c3.711,0,6.217,1.294,7.519,3.882c0.717,1.416,1.074,3.442,1.074,6.079v16.772h-4.467V24.735c0-1.595-0.236-2.881-0.708-3.857
		c-0.781-1.627-2.197-2.441-4.248-2.441c-1.042,0-1.896,0.106-2.563,0.317c-1.205,0.358-2.263,1.074-3.174,2.148
		c-0.732,0.863-1.208,1.754-1.428,2.673c-0.22,0.92-0.33,2.234-0.33,3.943v13.696h-4.395V15.067z"/>
	<path fill="#FFFFFF" d="M277.534,15.873c0.778,0.488,1.661,1.343,2.651,2.563V5.229h4.223v35.986h-3.955v-3.638
		c-1.021,1.611-2.229,2.775-3.623,3.491s-2.992,1.074-4.791,1.074c-2.902,0-5.416-1.225-7.54-3.674
		c-2.124-2.449-3.187-5.708-3.187-9.778c0-3.809,0.969-7.108,2.906-9.9c1.938-2.791,4.706-4.187,8.306-4.187
		C274.519,14.604,276.188,15.027,277.534,15.873z M267.725,35.478c1.182,1.888,3.077,2.832,5.685,2.832
		c2.024,0,3.688-0.875,4.991-2.625c1.304-1.75,1.955-4.26,1.955-7.532c0-3.304-0.672-5.75-2.016-7.336s-3.004-2.38-4.979-2.38
		c-2.202,0-3.988,0.847-5.356,2.539c-1.368,1.693-2.053,4.183-2.053,7.471C265.951,31.246,266.543,33.59,267.725,35.478z"/>
	<path fill="#FFFFFF" d="M304.867,15.067h4.176v3.711c1.236-1.53,2.547-2.628,3.93-3.296c1.384-0.667,2.922-1.001,4.615-1.001
		c3.711,0,6.217,1.294,7.52,3.882c0.715,1.416,1.074,3.442,1.074,6.079v16.772h-4.469V24.735c0-1.595-0.236-2.881-0.707-3.857
		c-0.781-1.627-2.197-2.441-4.248-2.441c-1.043,0-1.896,0.106-2.564,0.317c-1.204,0.358-2.262,1.074-3.174,2.148
		c-0.732,0.863-1.208,1.754-1.428,2.673c-0.22,0.92-0.33,2.234-0.33,3.943v13.696h-4.395V15.067z"/>
	<path fill="#FFFFFF" d="M337.07,15.067v17.358c0,1.335,0.205,2.425,0.617,3.271c0.762,1.562,2.18,2.344,4.257,2.344
		c2.979,0,5.009-1.367,6.087-4.102c0.586-1.465,0.879-3.475,0.879-6.03V15.067h4.395v26.147h-4.15l0.049-3.857
		c-0.559,0.993-1.254,1.831-2.084,2.515c-1.646,1.367-3.642,2.051-5.989,2.051c-3.657,0-6.149-1.245-7.474-3.735
		c-0.719-1.334-1.078-3.117-1.078-5.347V15.067H337.07z"/>
	<path fill="#FFFFFF" d="M360.482,15.067h4.346v3.711c1.042-1.286,1.986-2.222,2.832-2.808c1.449-0.993,3.093-1.489,4.932-1.489
		c2.084,0,3.76,0.513,5.029,1.538c0.717,0.586,1.367,1.449,1.953,2.588c0.977-1.399,2.125-2.437,3.443-3.113
		c1.318-0.675,2.799-1.013,4.443-1.013c3.516,0,5.908,1.27,7.178,3.809c0.684,1.367,1.025,3.207,1.025,5.518v17.407h-4.566V23.051
		c0-1.741-0.436-2.938-1.306-3.589c-0.871-0.651-1.933-0.977-3.187-0.977c-1.725,0-3.21,0.578-4.455,1.733
		c-1.245,1.156-1.867,3.084-1.867,5.786v15.21h-4.469V24.149c0-1.774-0.211-3.068-0.635-3.882c-0.667-1.221-1.912-1.831-3.734-1.831
		c-1.66,0-3.17,0.643-4.529,1.929c-1.359,1.286-2.039,3.613-2.039,6.982v13.867h-4.395V15.067z"/>
	<path fill="#FFFFFF" d="M401.768,5.229h4.271v13.013c0.965-1.253,2.117-2.209,3.456-2.869c1.34-0.659,2.794-0.989,4.362-0.989
		c3.269,0,5.92,1.119,7.954,3.357c2.034,2.238,3.052,5.538,3.052,9.9c0,4.134-1.006,7.568-3.016,10.303s-4.795,4.102-8.357,4.102
		c-1.993,0-3.676-0.48-5.049-1.44c-0.816-0.569-1.69-1.481-2.621-2.734v3.345h-4.053V5.229z M418.57,35.331
		c1.184-1.888,1.775-4.378,1.775-7.471c0-2.75-0.592-5.029-1.775-6.836s-2.928-2.71-5.23-2.71c-2.008,0-3.768,0.741-5.278,2.222
		c-1.511,1.481-2.267,3.923-2.267,7.324c0,2.458,0.311,4.452,0.932,5.981c1.158,2.881,3.322,4.321,6.491,4.321
		C415.602,38.163,417.387,37.219,418.57,35.331z"/>
	<path fill="#FFFFFF" d="M446.092,15.788c1.73,0.871,3.049,1.998,3.955,3.381c0.873,1.318,1.455,2.856,1.747,4.614
		c0.259,1.205,0.388,3.125,0.388,5.762h-19.018c0.08,2.66,0.702,4.795,1.865,6.402c1.162,1.607,2.963,2.411,5.401,2.411
		c2.276,0,4.094-0.76,5.45-2.281c0.76-0.883,1.297-1.905,1.613-3.066h4.322c-0.115,0.96-0.493,2.031-1.136,3.21
		c-0.644,1.18-1.36,2.145-2.151,2.893c-1.325,1.302-2.965,2.181-4.919,2.637c-1.05,0.26-2.237,0.391-3.562,0.391
		c-3.234,0-5.977-1.184-8.225-3.552s-3.373-5.684-3.373-9.949c0-4.199,1.133-7.609,3.397-10.229c2.265-2.62,5.225-3.931,8.881-3.931
		C442.573,14.481,444.36,14.917,446.092,15.788z M447.666,26.054c-0.178-1.904-0.59-3.426-1.235-4.565
		c-1.194-2.116-3.188-3.174-5.979-3.174c-2.001,0-3.68,0.729-5.035,2.185c-1.355,1.457-2.074,3.308-2.154,5.554H447.666z"/>
	<path fill="#FFFFFF" d="M457.871,15.067h4.174v4.517c0.342-0.879,1.18-1.949,2.516-3.21c1.334-1.261,2.872-1.892,4.613-1.892
		c0.082,0,0.221,0.008,0.416,0.024c0.195,0.017,0.528,0.049,1,0.098v4.639c-0.26-0.049-0.5-0.081-0.72-0.098
		c-0.22-0.016-0.46-0.024-0.72-0.024c-2.215,0-3.915,0.712-5.104,2.136c-1.188,1.424-1.781,3.064-1.781,4.919v15.039h-4.395V15.067z
		"/>
	<path fill="#FFFFFF" d="M478,8.097c2.01-2.14,4.771-3.21,8.279-3.21c3.246,0,5.846,0.916,7.799,2.747
		c1.951,1.831,2.928,4.171,2.928,7.019c0,1.726-0.354,3.125-1.062,4.199s-2.159,2.653-4.353,4.736
		c-1.596,1.514-2.635,2.795-3.115,3.845c-0.482,1.05-0.723,2.6-0.723,4.651h-4.346c0-2.327,0.275-4.203,0.83-5.627
		c0.553-1.424,1.784-3.056,3.693-4.895l1.992-1.929c0.598-0.553,1.082-1.131,1.454-1.733c0.677-1.058,1.015-2.156,1.015-3.296
		c0-1.595-0.486-2.979-1.459-4.15c-0.972-1.172-2.58-1.758-4.823-1.758c-2.774,0-4.694,1.009-5.758,3.027
		c-0.599,1.123-0.938,2.743-1.022,4.858h-4.346C474.984,13.065,475.99,10.238,478,8.097z M483.311,36.137h4.857v5.078h-4.857V36.137
		z"/>
</g>
<g>
	<g>
		<g>
			
				<path fill-rule="evenodd" clip-rule="evenodd" fill="none" stroke="#FFFFFF" stroke-width="5" stroke-linecap="square" stroke-miterlimit="10" d="
				M181.672,82.199c0-10.189,8.267-18.456,18.455-18.456c10.189,0,18.456,8.267,18.456,18.456c0,10.188-8.267,18.455-18.456,18.455
				C189.938,100.654,181.672,92.387,181.672,82.199z"/>
		</g>
		<g>
			
				<path fill-rule="evenodd" clip-rule="evenodd" fill="none" stroke="#FFFFFF" stroke-width="5" stroke-linecap="square" stroke-miterlimit="10" d="
				M234.212,82.199c0-10.189,8.268-18.456,18.455-18.456c10.19,0,18.456,8.267,18.456,18.456c0,10.188-8.266,18.455-18.456,18.455
				C242.479,100.654,234.212,92.387,234.212,82.199z"/>
		</g>
		<g>
			
				<path fill-rule="evenodd" clip-rule="evenodd" fill="none" stroke="#FFFFFF" stroke-width="5" stroke-linecap="square" stroke-miterlimit="10" d="
				M286.814,82.199c0-10.189,8.267-18.456,18.455-18.456c10.189,0,18.455,8.267,18.455,18.456c0,10.188-8.266,18.455-18.455,18.455
				C295.081,100.654,286.814,92.387,286.814,82.199z"/>
		</g>
	</g>
	<g>
		<g>
			
				<path fill-rule="evenodd" clip-rule="evenodd" fill="none" stroke="#FFFFFF" stroke-width="5" stroke-linecap="square" stroke-miterlimit="10" d="
				M181.672,278.341c0-10.188,8.267-18.455,18.455-18.455c10.189,0,18.456,8.267,18.456,18.455s-8.267,18.456-18.456,18.456
				C189.938,296.797,181.672,288.529,181.672,278.341z"/>
		</g>
		<g>
			
				<path fill-rule="evenodd" clip-rule="evenodd" fill="none" stroke="#FFFFFF" stroke-width="5" stroke-linecap="square" stroke-miterlimit="10" d="
				M234.212,278.341c0-10.188,8.268-18.455,18.455-18.455c10.19,0,18.456,8.267,18.456,18.455s-8.266,18.456-18.456,18.456
				C242.479,296.797,234.212,288.529,234.212,278.341z"/>
		</g>
		<g>
			
				<path fill-rule="evenodd" clip-rule="evenodd" fill="none" stroke="#FFFFFF" stroke-width="5" stroke-linecap="square" stroke-miterlimit="10" d="
				M286.814,278.341c0-10.188,8.267-18.455,18.455-18.455c10.189,0,18.455,8.267,18.455,18.455s-8.266,18.456-18.455,18.456
				C295.081,296.797,286.814,288.529,286.814,278.341z"/>
		</g>
	</g>
	<g>
		<g>
			
				<path fill-rule="evenodd" clip-rule="evenodd" fill="none" stroke="#FFFFFF" stroke-width="5" stroke-linecap="square" stroke-miterlimit="10" d="
				M181.672,130.849c0-10.188,8.267-18.455,18.455-18.455c10.189,0,18.456,8.266,18.456,18.455c0,10.19-8.267,18.457-18.456,18.457
				C189.938,149.306,181.672,141.039,181.672,130.849z"/>
		</g>
		<g>
			
				<path fill-rule="evenodd" clip-rule="evenodd" fill="none" stroke="#FFFFFF" stroke-width="5" stroke-linecap="square" stroke-miterlimit="10" d="
				M128.196,130.849c0-10.188,8.266-18.455,18.455-18.455c10.188,0,18.456,8.266,18.456,18.455c0,10.19-8.267,18.457-18.456,18.457
				C136.462,149.306,128.196,141.039,128.196,130.849z"/>
		</g>
		<g>
			
				<path fill-rule="evenodd" clip-rule="evenodd" fill="none" stroke="#FFFFFF" stroke-width="5" stroke-linecap="square" stroke-miterlimit="10" d="
				M234.212,130.849c0-10.188,8.268-18.455,18.455-18.455c10.19,0,18.456,8.266,18.456,18.455c0,10.19-8.266,18.457-18.456,18.457
				C242.479,149.306,234.212,141.039,234.212,130.849z"/>
		</g>
		<g>
			
				<path fill-rule="evenodd" clip-rule="evenodd" fill="none" stroke="#FFFFFF" stroke-width="5" stroke-linecap="square" stroke-miterlimit="10" d="
				M286.814,130.849c0-10.188,8.267-18.455,18.455-18.455c10.189,0,18.455,8.266,18.455,18.455c0,10.19-8.266,18.457-18.455,18.457
				C295.081,149.306,286.814,141.039,286.814,130.849z"/>
		</g>
		<g>
			
				<path fill-rule="evenodd" clip-rule="evenodd" fill="none" stroke="#FFFFFF" stroke-width="5" stroke-linecap="square" stroke-miterlimit="10" d="
				M340.607,130.849c0-10.188,8.267-18.455,18.455-18.455c10.189,0,18.455,8.266,18.455,18.455c0,10.19-8.266,18.457-18.455,18.457
				C348.874,149.306,340.607,141.039,340.607,130.849z"/>
		</g>
	</g>
	<g>
		<g>
			
				<path fill-rule="evenodd" clip-rule="evenodd" fill="none" stroke="#FFFFFF" stroke-width="5" stroke-linecap="square" stroke-miterlimit="10" d="
				M181.672,228.992c0-10.19,8.267-18.455,18.455-18.455c10.189,0,18.456,8.265,18.456,18.455s-8.267,18.456-18.456,18.456
				C189.938,247.448,181.672,239.182,181.672,228.992z"/>
		</g>
		<g>
			
				<path fill-rule="evenodd" clip-rule="evenodd" fill="none" stroke="#FFFFFF" stroke-width="5" stroke-linecap="square" stroke-miterlimit="10" d="
				M128.196,228.992c0-10.19,8.266-18.455,18.455-18.455c10.188,0,18.456,8.265,18.456,18.455s-8.267,18.456-18.456,18.456
				C136.462,247.448,128.196,239.182,128.196,228.992z"/>
		</g>
		<g>
			
				<path fill-rule="evenodd" clip-rule="evenodd" fill="none" stroke="#FFFFFF" stroke-width="5" stroke-linecap="square" stroke-miterlimit="10" d="
				M234.212,228.992c0-10.19,8.268-18.455,18.455-18.455c10.19,0,18.456,8.265,18.456,18.455s-8.266,18.456-18.456,18.456
				C242.479,247.448,234.212,239.182,234.212,228.992z"/>
		</g>
		<g>
			
				<path fill-rule="evenodd" clip-rule="evenodd" fill="none" stroke="#FFFFFF" stroke-width="5" stroke-linecap="square" stroke-miterlimit="10" d="
				M286.814,228.992c0-10.19,8.267-18.455,18.455-18.455c10.189,0,18.455,8.265,18.455,18.455s-8.266,18.456-18.455,18.456
				C295.081,247.448,286.814,239.182,286.814,228.992z"/>
		</g>
		<g>
			
				<path fill-rule="evenodd" clip-rule="evenodd" fill="none" stroke="#FFFFFF" stroke-width="5" stroke-linecap="square" stroke-miterlimit="10" d="
				M340.607,228.992c0-10.19,8.267-18.455,18.455-18.455c10.189,0,18.455,8.265,18.455,18.455s-8.266,18.456-18.455,18.456
				C348.874,247.448,340.607,239.182,340.607,228.992z"/>
		</g>
	</g>
	<g>
		<g>
			
				<path fill-rule="evenodd" clip-rule="evenodd" fill="none" stroke="#FFFFFF" stroke-width="5" stroke-linecap="square" stroke-miterlimit="10" d="
				M181.672,180.063c0-10.189,8.267-18.456,18.455-18.456c10.189,0,18.456,8.267,18.456,18.456c0,10.189-8.267,18.455-18.456,18.455
				C189.938,198.519,181.672,190.252,181.672,180.063z"/>
		</g>
		<g>
			
				<path fill-rule="evenodd" clip-rule="evenodd" fill="none" stroke="#FFFFFF" stroke-width="5" stroke-linecap="square" stroke-miterlimit="10" d="
				M128.196,180.063c0-10.189,8.266-18.456,18.455-18.456c10.188,0,18.456,8.267,18.456,18.456c0,10.189-8.267,18.455-18.456,18.455
				C136.462,198.519,128.196,190.252,128.196,180.063z"/>
		</g>
		<g>
			
				<path fill-rule="evenodd" clip-rule="evenodd" fill="none" stroke="#FFFFFF" stroke-width="5" stroke-linecap="square" stroke-miterlimit="10" d="
				M75.548,180.063c0-10.189,8.266-18.456,18.455-18.456s18.456,8.267,18.456,18.456c0,10.189-8.267,18.455-18.456,18.455
				S75.548,190.252,75.548,180.063z"/>
		</g>
		<g>
			
				<path fill-rule="evenodd" clip-rule="evenodd" fill="none" stroke="#FFFFFF" stroke-width="5" stroke-linecap="square" stroke-miterlimit="10" d="
				M234.212,180.063c0-10.189,8.268-18.456,18.455-18.456c10.19,0,18.456,8.267,18.456,18.456c0,10.189-8.266,18.455-18.456,18.455
				C242.479,198.519,234.212,190.252,234.212,180.063z"/>
		</g>
		<g>
			
				<path fill-rule="evenodd" clip-rule="evenodd" fill="none" stroke="#FFFFFF" stroke-width="5" stroke-linecap="square" stroke-miterlimit="10" d="
				M286.814,180.063c0-10.189,8.267-18.456,18.455-18.456c10.189,0,18.455,8.267,18.455,18.456c0,10.189-8.266,18.455-18.455,18.455
				C295.081,198.519,286.814,190.252,286.814,180.063z"/>
		</g>
		<g>
			
				<path fill-rule="evenodd" clip-rule="evenodd" fill="none" stroke="#FFFFFF" stroke-width="5" stroke-linecap="square" stroke-miterlimit="10" d="
				M340.607,180.063c0-10.189,8.267-18.456,18.455-18.456c10.189,0,18.455,8.267,18.455,18.456c0,10.189-8.266,18.455-18.455,18.455
				C348.874,198.519,340.607,190.252,340.607,180.063z"/>
		</g>
		<g>
			
				<path fill-rule="evenodd" clip-rule="evenodd" fill="none" stroke="#FFFFFF" stroke-width="5" stroke-linecap="square" stroke-miterlimit="10" d="
				M393.541,180.063c0-10.189,8.268-18.456,18.455-18.456c10.189,0,18.456,8.267,18.456,18.456c0,10.189-8.267,18.455-18.456,18.455
				C401.809,198.519,393.541,190.252,393.541,180.063z"/>
		</g>
	</g>
	<g>
		<g>
			<path fill="#FFFFFF" d="M201.748,92.685V87.55h-9.211v-2.582l9.623-13.35h2.23v13.628h3.094v2.303h-3.094v5.134H201.748z
				 M201.705,85.247v-9.542l-6.732,9.542H201.705z"/>
		</g>
		<g>
			<path fill="#FFFFFF" d="M246.714,91.21c-1.121-1.364-1.681-3.024-1.681-4.98h2.758c0.118,1.36,0.372,2.347,0.764,2.963
				c0.684,1.106,1.922,1.659,3.711,1.659c1.388,0,2.504-0.372,3.346-1.115c0.841-0.743,1.261-1.702,1.261-2.875
				c0-1.447-0.442-2.459-1.326-3.036c-0.887-0.578-2.116-0.866-3.69-0.866c-0.177,0-0.355,0.002-0.536,0.008
				c-0.182,0.005-0.364,0.012-0.55,0.022v-2.332c0.272,0.029,0.503,0.048,0.689,0.058c0.186,0.01,0.387,0.015,0.602,0.015
				c0.987,0,1.8-0.156,2.435-0.47c1.116-0.547,1.673-1.525,1.673-2.934c0-1.046-0.372-1.853-1.115-2.42s-1.608-0.851-2.598-0.851
				c-1.758,0-2.976,0.586-3.652,1.76c-0.371,0.646-0.581,1.565-0.63,2.758h-2.611c0-1.564,0.312-2.895,0.939-3.991
				c1.074-1.956,2.967-2.934,5.676-2.934c2.143,0,3.8,0.477,4.973,1.431c1.176,0.953,1.763,2.334,1.763,4.144
				c0,1.292-0.349,2.337-1.042,3.14c-0.431,0.499-0.989,0.89-1.673,1.173c1.104,0.304,1.968,0.888,2.589,1.753
				c0.621,0.866,0.933,1.924,0.933,3.176c0,2.005-0.66,3.639-1.98,4.9c-1.321,1.262-3.195,1.892-5.619,1.892
				C249.636,93.257,247.834,92.575,246.714,91.21z"/>
		</g>
		<g>
			<path fill="#FFFFFF" d="M298.977,87.961c0.651-1.34,1.92-2.558,3.808-3.652l2.816-1.628c1.262-0.733,2.146-1.36,2.655-1.88
				c0.802-0.812,1.203-1.744,1.203-2.792c0-1.225-0.367-2.197-1.1-2.917c-0.734-0.721-1.713-1.081-2.937-1.081
				c-1.807,0-3.06,0.687-3.755,2.06c-0.371,0.736-0.577,1.756-0.614,3.061h-2.686c0.029-1.829,0.367-3.321,1.013-4.475
				c1.144-2.033,3.163-3.051,6.058-3.051c2.406,0,4.164,0.651,5.275,1.951c1.108,1.301,1.664,2.749,1.664,4.343
				c0,1.682-0.593,3.119-1.775,4.312c-0.684,0.695-1.912,1.536-3.683,2.524l-2.009,1.115c-0.959,0.528-1.712,1.032-2.258,1.511
				c-0.979,0.851-1.595,1.794-1.85,2.831h11.472v2.494h-14.42C297.952,90.876,298.326,89.302,298.977,87.961z"/>
		</g>
		<g>
			<path fill="#FFFFFF" d="M195.764,283.736c0.078,1.458,0.641,2.465,1.688,3.022c0.538,0.293,1.144,0.439,1.818,0.439
				c1.262,0,2.338-0.526,3.229-1.577c0.89-1.051,1.521-3.187,1.893-6.403c-0.588,0.931-1.313,1.583-2.18,1.958
				c-0.865,0.377-1.797,0.566-2.795,0.566c-2.023,0-3.626-0.63-4.804-1.891c-1.179-1.261-1.768-2.884-1.768-4.866
				c0-1.904,0.583-3.581,1.746-5.026c1.164-1.446,2.88-2.169,5.148-2.169c3.062,0,5.175,1.378,6.338,4.135
				c0.645,1.515,0.968,3.41,0.968,5.688c0,2.57-0.386,4.848-1.159,6.831c-1.28,3.305-3.453,4.955-6.514,4.955
				c-2.054,0-3.612-0.537-4.679-1.613c-1.065-1.075-1.6-2.425-1.6-4.049H195.764z M202.637,278.391
				c0.865-0.688,1.298-1.891,1.298-3.61c0-1.543-0.388-2.691-1.166-3.45c-0.777-0.756-1.768-1.134-2.971-1.134
				c-1.291,0-2.314,0.432-3.073,1.297c-0.758,0.863-1.137,2.018-1.137,3.463c0,1.368,0.333,2.454,0.998,3.259
				c0.665,0.806,1.727,1.208,3.183,1.208C200.814,279.423,201.771,279.079,202.637,278.391z"/>
		</g>
		<g>
			<path fill="#FFFFFF" d="M248.416,268.927c1.207-1.285,2.865-1.93,4.975-1.93c1.95,0,3.512,0.552,4.686,1.651
				c1.172,1.102,1.759,2.507,1.759,4.219c0,1.036-0.211,1.877-0.638,2.522c-0.426,0.646-1.297,1.593-2.614,2.846
				c-0.959,0.909-1.585,1.68-1.873,2.311c-0.288,0.63-0.435,1.562-0.435,2.795h-2.611c0-1.399,0.166-2.525,0.498-3.382
				c0.334-0.855,1.073-1.836,2.22-2.941l1.199-1.159c0.358-0.332,0.649-0.679,0.872-1.042c0.407-0.635,0.61-1.295,0.61-1.98
				c0-0.958-0.294-1.789-0.877-2.494c-0.584-0.703-1.551-1.055-2.897-1.055c-1.669,0-2.82,0.606-3.461,1.818
				c-0.359,0.676-0.563,1.648-0.614,2.919h-2.61C246.604,271.912,247.206,270.213,248.416,268.927z M251.606,285.775h2.918v3.051
				h-2.918V285.775z"/>
		</g>
		<g>
			<path fill="#FFFFFF" d="M299.314,287.354c-1.12-1.365-1.68-3.024-1.68-4.98h2.758c0.116,1.358,0.371,2.346,0.764,2.963
				c0.684,1.104,1.922,1.657,3.711,1.657c1.389,0,2.504-0.371,3.344-1.115c0.842-0.742,1.263-1.701,1.263-2.875
				c0-1.447-0.443-2.459-1.327-3.036c-0.886-0.577-2.116-0.865-3.69-0.865c-0.176,0-0.354,0.002-0.535,0.007
				c-0.182,0.005-0.365,0.013-0.551,0.022v-2.333c0.274,0.029,0.504,0.049,0.69,0.058c0.186,0.011,0.386,0.016,0.602,0.016
				c0.986,0,1.799-0.157,2.434-0.47c1.115-0.548,1.673-1.525,1.673-2.935c0-1.047-0.371-1.853-1.113-2.42
				c-0.744-0.566-1.61-0.851-2.598-0.851c-1.761,0-2.979,0.586-3.651,1.761c-0.373,0.645-0.582,1.564-0.632,2.757h-2.611
				c0-1.563,0.312-2.894,0.939-3.99c1.075-1.956,2.969-2.934,5.678-2.934c2.14,0,3.799,0.477,4.973,1.431
				c1.173,0.954,1.76,2.336,1.76,4.145c0,1.29-0.347,2.337-1.042,3.138c-0.431,0.501-0.988,0.891-1.672,1.175
				c1.105,0.304,1.969,0.888,2.589,1.753c0.622,0.865,0.932,1.925,0.932,3.176c0,2.006-0.66,3.639-1.981,4.899
				c-1.318,1.262-3.192,1.893-5.617,1.893C302.236,289.398,300.434,288.718,299.314,287.354z"/>
		</g>
		<g>
			<path fill="#FFFFFF" d="M194.172,139.862c-1.12-1.365-1.68-3.025-1.68-4.981h2.759c0.117,1.359,0.371,2.347,0.763,2.964
				c0.684,1.105,1.922,1.657,3.71,1.657c1.39,0,2.505-0.372,3.346-1.115c0.842-0.744,1.262-1.702,1.262-2.875
				c0-1.447-0.442-2.459-1.327-3.037c-0.886-0.577-2.116-0.865-3.69-0.865c-0.176,0-0.354,0.002-0.534,0.007
				c-0.181,0.005-0.364,0.013-0.551,0.022v-2.333c0.273,0.03,0.503,0.049,0.689,0.06c0.186,0.01,0.387,0.014,0.602,0.014
				c0.986,0,1.799-0.156,2.435-0.469c1.115-0.547,1.673-1.526,1.673-2.934c0-1.047-0.372-1.854-1.115-2.421
				c-0.742-0.567-1.608-0.851-2.596-0.851c-1.761,0-2.979,0.587-3.653,1.76c-0.372,0.646-0.581,1.565-0.631,2.758h-2.61
				c0-1.564,0.312-2.895,0.938-3.99c1.075-1.956,2.969-2.934,5.678-2.934c2.141,0,3.799,0.476,4.973,1.429
				c1.173,0.955,1.76,2.336,1.76,4.146c0,1.29-0.347,2.337-1.041,3.138c-0.432,0.499-0.988,0.891-1.673,1.175
				c1.105,0.302,1.969,0.887,2.59,1.751c0.62,0.866,0.931,1.925,0.931,3.176c0,2.006-0.659,3.639-1.979,4.899
				c-1.32,1.262-3.194,1.893-5.619,1.893C197.095,141.908,195.292,141.226,194.172,139.862z"/>
		</g>
		<g>
			<path fill="#FFFFFF" d="M142.009,135.982c0.176,1.506,0.875,2.547,2.098,3.125c0.626,0.292,1.35,0.44,2.171,0.44
				c1.564,0,2.724-0.499,3.477-1.497c0.752-0.997,1.129-2.103,1.129-3.315c0-1.468-0.447-2.602-1.342-3.404
				c-0.896-0.802-1.969-1.203-3.22-1.203c-0.909,0-1.689,0.176-2.34,0.528c-0.651,0.353-1.205,0.841-1.665,1.467l-2.289-0.132
				l1.599-11.31h10.914v2.553h-8.934l-0.894,5.838c0.489-0.372,0.953-0.65,1.393-0.836c0.782-0.323,1.688-0.484,2.714-0.484
				c1.927,0,3.559,0.622,4.899,1.863c1.34,1.242,2.01,2.817,2.01,4.724c0,1.986-0.614,3.736-1.841,5.252
				c-1.227,1.515-3.186,2.273-5.875,2.273c-1.712,0-3.225-0.481-4.54-1.444c-1.316-0.963-2.052-2.443-2.208-4.438H142.009z"/>
		</g>
		<g>
			<path fill="#FFFFFF" d="M248.026,135.982c0.176,1.506,0.876,2.547,2.097,3.125c0.626,0.292,1.351,0.44,2.173,0.44
				c1.564,0,2.722-0.499,3.477-1.497c0.753-0.997,1.128-2.103,1.128-3.315c0-1.468-0.447-2.602-1.342-3.404
				c-0.894-0.802-1.968-1.203-3.22-1.203c-0.91,0-1.689,0.176-2.341,0.528c-0.649,0.353-1.205,0.841-1.664,1.467l-2.289-0.132
				l1.601-11.31h10.914v2.553h-8.935l-0.895,5.838c0.488-0.372,0.954-0.65,1.393-0.836c0.784-0.323,1.688-0.484,2.715-0.484
				c1.926,0,3.56,0.622,4.9,1.863c1.339,1.242,2.01,2.817,2.01,4.724c0,1.986-0.614,3.736-1.842,5.252
				c-1.227,1.515-3.186,2.273-5.875,2.273c-1.711,0-3.227-0.481-4.541-1.444c-1.314-0.963-2.051-2.443-2.207-4.438H248.026z"/>
		</g>
		<g>
			<path fill="#FFFFFF" d="M299.791,126.461v-2.024c1.907-0.186,3.237-0.496,3.99-0.931c0.754-0.436,1.315-1.465,1.687-3.089h2.084
				v20.919h-2.816v-14.875H299.791z"/>
		</g>
		<g>
			<path fill="#FFFFFF" d="M353.584,126.461v-2.024c1.908-0.186,3.237-0.496,3.989-0.931c0.754-0.436,1.317-1.465,1.688-3.089h2.083
				v20.919h-2.817v-14.875H353.584z"/>
		</g>
		<g>
			<path fill="#FFFFFF" d="M193.835,234.753c0.65-1.339,1.92-2.557,3.807-3.653l2.816-1.628c1.263-0.733,2.147-1.359,2.655-1.879
				c0.802-0.813,1.202-1.744,1.202-2.792c0-1.226-0.364-2.198-1.099-2.918c-0.734-0.721-1.712-1.081-2.935-1.081
				c-1.809,0-3.062,0.687-3.755,2.06c-0.372,0.735-0.577,1.756-0.616,3.06h-2.685c0.029-1.829,0.365-3.319,1.013-4.474
				c1.144-2.035,3.163-3.052,6.059-3.052c2.406,0,4.163,0.651,5.273,1.952c1.109,1.301,1.665,2.748,1.665,4.341
				c0,1.682-0.592,3.12-1.776,4.313c-0.684,0.694-1.912,1.536-3.682,2.523l-2.01,1.115c-0.958,0.527-1.712,1.032-2.258,1.511
				c-0.979,0.85-1.596,1.793-1.85,2.83h11.472v2.495h-14.42C192.811,237.668,193.184,236.094,193.835,234.753z"/>
		</g>
		<g>
			<path fill="#FFFFFF" d="M154.009,218.822v2.304c-0.675,0.655-1.572,1.794-2.692,3.417c-1.12,1.624-2.11,3.375-2.97,5.251
				c-0.851,1.83-1.497,3.497-1.936,5.003c-0.284,0.968-0.651,2.528-1.101,4.68h-2.919c0.665-4.009,2.132-8,4.401-11.97
				c1.339-2.328,2.748-4.338,4.225-6.03h-11.619v-2.655H154.009z"/>
		</g>
		<g>
			<path fill="#FFFFFF" d="M247.176,227.184c-0.772-0.781-1.16-1.799-1.16-3.051c0-1.565,0.566-2.91,1.699-4.034
				c1.135-1.125,2.741-1.688,4.822-1.688c2.013,0,3.59,0.53,4.733,1.592c1.142,1.062,1.714,2.3,1.714,3.718
				c0,1.311-0.333,2.372-0.998,3.184c-0.37,0.459-0.947,0.91-1.729,1.349c0.873,0.401,1.562,0.861,2.062,1.379
				c0.933,0.979,1.399,2.25,1.399,3.813c0,1.849-0.621,3.417-1.863,4.702c-1.243,1.287-2.999,1.93-5.268,1.93
				c-2.044,0-3.772-0.555-5.186-1.665c-1.414-1.11-2.119-2.722-2.119-4.834c0-1.242,0.302-2.315,0.909-3.22
				c0.605-0.904,1.506-1.596,2.699-2.076C248.157,227.971,247.586,227.604,247.176,227.184z M255.69,236.683
				c0.808-0.66,1.21-1.645,1.21-2.956c0-1.359-0.414-2.391-1.246-3.095c-0.831-0.705-1.896-1.057-3.199-1.057
				c-1.26,0-2.289,0.359-3.087,1.079c-0.796,0.717-1.195,1.713-1.195,2.984c0,1.095,0.364,2.042,1.093,2.838
				c0.729,0.797,1.855,1.196,3.382,1.196C253.87,237.673,254.885,237.344,255.69,236.683z M255.201,226.294
				c0.653-0.652,0.981-1.428,0.981-2.331c0-0.783-0.312-1.504-0.938-2.161c-0.623-0.656-1.574-0.985-2.854-0.985
				c-1.269,0-2.186,0.329-2.752,0.985c-0.565,0.657-0.85,1.426-0.85,2.308c0,0.99,0.367,1.765,1.1,2.323
				c0.731,0.56,1.595,0.839,2.59,0.839C253.641,227.272,254.548,226.946,255.201,226.294z"/>
		</g>
		<g>
			<path fill="#FFFFFF" d="M306.891,239.478v-5.134h-9.211v-2.583l9.622-13.35h2.229v13.628h3.097v2.304h-3.097v5.134H306.891z
				 M306.847,232.04v-9.542l-6.732,9.542H306.847z"/>
		</g>
		<g>
			<path fill="#FFFFFF" d="M353.108,238.003c-1.12-1.365-1.681-3.025-1.681-4.979h2.758c0.117,1.358,0.371,2.347,0.763,2.962
				c0.686,1.105,1.922,1.658,3.712,1.658c1.389,0,2.503-0.372,3.345-1.115c0.841-0.743,1.262-1.701,1.262-2.875
				c0-1.447-0.443-2.458-1.328-3.036c-0.885-0.578-2.115-0.865-3.689-0.865c-0.176,0-0.354,0.002-0.536,0.007
				c-0.18,0.004-0.364,0.012-0.55,0.021v-2.333c0.273,0.03,0.505,0.05,0.689,0.06c0.187,0.01,0.386,0.014,0.602,0.014
				c0.988,0,1.8-0.156,2.436-0.469c1.115-0.547,1.673-1.525,1.673-2.934c0-1.046-0.373-1.854-1.115-2.42
				c-0.743-0.567-1.609-0.852-2.597-0.852c-1.761,0-2.978,0.587-3.653,1.761c-0.371,0.645-0.582,1.565-0.631,2.758h-2.611
				c0-1.565,0.312-2.896,0.939-3.99c1.077-1.956,2.968-2.934,5.677-2.934c2.144,0,3.8,0.476,4.973,1.43
				c1.175,0.954,1.762,2.335,1.762,4.145c0,1.29-0.349,2.337-1.041,3.139c-0.431,0.499-0.989,0.891-1.673,1.174
				c1.104,0.303,1.968,0.888,2.588,1.752c0.622,0.866,0.933,1.925,0.933,3.175c0,2.007-0.66,3.639-1.98,4.901
				c-1.32,1.261-3.194,1.892-5.619,1.892C356.028,240.049,354.227,239.367,353.108,238.003z"/>
		</g>
		<g>
			<path fill="#FFFFFF" d="M193.835,185.825c0.65-1.339,1.92-2.557,3.807-3.652l2.816-1.628c1.263-0.734,2.147-1.36,2.655-1.88
				c0.802-0.812,1.202-1.744,1.202-2.792c0-1.225-0.364-2.197-1.099-2.918c-0.734-0.719-1.712-1.08-2.935-1.08
				c-1.809,0-3.062,0.687-3.755,2.06c-0.372,0.735-0.577,1.756-0.616,3.06h-2.685c0.029-1.829,0.365-3.32,1.013-4.475
				c1.144-2.034,3.163-3.051,6.059-3.051c2.406,0,4.163,0.65,5.273,1.951c1.109,1.301,1.665,2.748,1.665,4.343
				c0,1.682-0.592,3.119-1.776,4.312c-0.684,0.695-1.912,1.536-3.682,2.524l-2.01,1.114c-0.958,0.529-1.712,1.033-2.258,1.511
				c-0.979,0.852-1.596,1.795-1.85,2.832h11.472v2.494h-14.42C192.811,188.74,193.184,187.166,193.835,185.825z"/>
		</g>
		<g>
			<path fill="#FFFFFF" d="M141.172,175.675v-2.025c1.907-0.186,3.237-0.496,3.99-0.931c0.753-0.436,1.315-1.465,1.687-3.089h2.083
				v20.919h-2.817v-14.875H141.172z"/>
		</g>
		<g>
			<path fill="#FFFFFF" d="M99.344,171.281c0.924,1.217,1.386,2.471,1.386,3.762h-2.612c-0.156-0.831-0.405-1.482-0.748-1.951
				c-0.635-0.88-1.598-1.32-2.889-1.32c-1.477,0-2.651,0.682-3.521,2.046c-0.871,1.365-1.355,3.318-1.453,5.861
				c0.606-0.89,1.37-1.555,2.289-1.995c0.84-0.391,1.78-0.587,2.816-0.587c1.76,0,3.296,0.562,4.606,1.688
				c1.31,1.125,1.965,2.802,1.965,5.032c0,1.907-0.621,3.596-1.863,5.068c-1.242,1.472-3.013,2.208-5.311,2.208
				c-1.965,0-3.662-0.745-5.089-2.236c-1.428-1.492-2.143-4.003-2.143-7.533c0-2.611,0.318-4.826,0.954-6.646
				c1.222-3.481,3.457-5.223,6.704-5.223C96.785,169.454,98.42,170.063,99.344,171.281z M97.364,187.344
				c0.69-0.934,1.034-2.036,1.034-3.308c0-1.076-0.308-2.1-0.925-3.074c-0.616-0.973-1.735-1.459-3.359-1.459
				c-1.134,0-2.129,0.376-2.985,1.129c-0.856,0.754-1.284,1.889-1.284,3.404c0,1.329,0.389,2.448,1.167,3.352
				c0.778,0.905,1.856,1.357,3.234,1.357C95.635,188.745,96.674,188.278,97.364,187.344z"/>
		</g>
		<g>
			<path fill="#FFFFFF" d="M247.176,178.256c-0.772-0.782-1.16-1.799-1.16-3.051c0-1.564,0.566-2.91,1.699-4.034
				c1.135-1.125,2.741-1.687,4.822-1.687c2.013,0,3.59,0.53,4.733,1.591c1.142,1.062,1.714,2.301,1.714,3.719
				c0,1.311-0.333,2.372-0.998,3.183c-0.37,0.46-0.947,0.91-1.729,1.35c0.873,0.401,1.562,0.86,2.062,1.379
				c0.933,0.977,1.399,2.249,1.399,3.813c0,1.848-0.621,3.415-1.863,4.702c-1.243,1.287-2.999,1.929-5.268,1.929
				c-2.044,0-3.772-0.555-5.186-1.665c-1.414-1.111-2.119-2.721-2.119-4.834c0-1.243,0.302-2.315,0.909-3.221
				c0.605-0.904,1.506-1.596,2.699-2.075C248.157,179.043,247.586,178.677,247.176,178.256z M255.69,187.755
				c0.808-0.66,1.21-1.645,1.21-2.956c0-1.359-0.414-2.391-1.246-3.096c-0.831-0.704-1.896-1.056-3.199-1.056
				c-1.26,0-2.289,0.359-3.087,1.079c-0.796,0.718-1.195,1.714-1.195,2.985c0,1.095,0.364,2.041,1.093,2.838
				c0.729,0.796,1.855,1.195,3.382,1.195C253.87,188.745,254.885,188.415,255.69,187.755z M255.201,177.367
				c0.653-0.652,0.981-1.429,0.981-2.331c0-0.784-0.312-1.504-0.938-2.162c-0.623-0.657-1.574-0.985-2.854-0.985
				c-1.269,0-2.186,0.328-2.752,0.985c-0.565,0.657-0.85,1.427-0.85,2.309c0,0.989,0.367,1.764,1.1,2.323
				c0.731,0.559,1.595,0.838,2.59,0.838C253.641,178.344,254.548,178.019,255.201,177.367z"/>
		</g>
		<g>
			<path fill="#FFFFFF" d="M299.314,189.075c-1.12-1.364-1.68-3.024-1.68-4.98h2.758c0.116,1.359,0.371,2.347,0.764,2.963
				c0.684,1.106,1.922,1.659,3.711,1.659c1.389,0,2.504-0.373,3.344-1.116c0.842-0.743,1.263-1.701,1.263-2.875
				c0-1.447-0.443-2.458-1.327-3.037c-0.886-0.577-2.116-0.865-3.69-0.865c-0.176,0-0.354,0.002-0.535,0.007
				c-0.182,0.005-0.365,0.013-0.551,0.022v-2.332c0.274,0.029,0.504,0.049,0.69,0.059c0.186,0.01,0.386,0.014,0.602,0.014
				c0.986,0,1.799-0.156,2.434-0.469c1.115-0.547,1.673-1.525,1.673-2.934c0-1.047-0.371-1.854-1.113-2.421
				c-0.744-0.567-1.61-0.851-2.598-0.851c-1.761,0-2.979,0.587-3.651,1.76c-0.373,0.646-0.582,1.565-0.632,2.758h-2.611
				c0-1.564,0.312-2.895,0.939-3.989c1.075-1.957,2.969-2.935,5.678-2.935c2.14,0,3.799,0.477,4.973,1.43
				c1.173,0.955,1.76,2.336,1.76,4.145c0,1.291-0.347,2.336-1.042,3.139c-0.431,0.499-0.988,0.89-1.672,1.174
				c1.105,0.303,1.969,0.888,2.589,1.752c0.622,0.866,0.932,1.925,0.932,3.176c0,2.006-0.66,3.639-1.981,4.899
				c-1.318,1.262-3.192,1.893-5.617,1.893C302.236,191.121,300.434,190.439,299.314,189.075z"/>
		</g>
		<g>
			<path fill="#FFFFFF" d="M353.108,189.075c-1.12-1.364-1.681-3.024-1.681-4.98h2.758c0.117,1.359,0.371,2.347,0.763,2.963
				c0.686,1.106,1.922,1.659,3.712,1.659c1.389,0,2.503-0.373,3.345-1.116c0.841-0.743,1.262-1.701,1.262-2.875
				c0-1.447-0.443-2.458-1.328-3.037c-0.885-0.577-2.115-0.865-3.689-0.865c-0.176,0-0.354,0.002-0.536,0.007
				c-0.18,0.005-0.364,0.013-0.55,0.022v-2.332c0.273,0.029,0.505,0.049,0.689,0.059c0.187,0.01,0.386,0.014,0.602,0.014
				c0.988,0,1.8-0.156,2.436-0.469c1.115-0.547,1.673-1.525,1.673-2.934c0-1.047-0.373-1.854-1.115-2.421
				c-0.743-0.567-1.609-0.851-2.597-0.851c-1.761,0-2.978,0.587-3.653,1.76c-0.371,0.646-0.582,1.565-0.631,2.758h-2.611
				c0-1.564,0.312-2.895,0.939-3.989c1.077-1.957,2.968-2.935,5.677-2.935c2.144,0,3.8,0.477,4.973,1.43
				c1.175,0.955,1.762,2.336,1.762,4.145c0,1.291-0.349,2.336-1.041,3.139c-0.431,0.499-0.989,0.89-1.673,1.174
				c1.104,0.303,1.968,0.888,2.588,1.752c0.622,0.866,0.933,1.925,0.933,3.176c0,2.006-0.66,3.639-1.98,4.899
				c-1.32,1.262-3.194,1.893-5.619,1.893C356.028,191.121,354.227,190.439,353.108,189.075z"/>
		</g>
		<g>
			<path fill="#FFFFFF" d="M406.518,175.675v-2.025c1.908-0.186,3.237-0.496,3.991-0.931c0.753-0.436,1.315-1.465,1.686-3.089h2.084
				v20.919h-2.816v-14.875H406.518z"/>
		</g>
	</g>
</g>
</svg>
