<?xml version="1.0" encoding="utf-8"?>
<!-- Generator: Adobe Illustrator 16.0.0, SVG Export Plug-In . SVG Version: 6.00 Build 0)  -->
<!DOCTYPE svg PUBLIC "-//W3C//DTD SVG 1.1//EN" "http://www.w3.org/Graphics/SVG/1.1/DTD/svg11.dtd">
<svg version="1.1" id="Layer_1" xmlns="http://www.w3.org/2000/svg" xmlns:xlink="http://www.w3.org/1999/xlink" x="0px" y="0px"
	 width="506px" height="353px" viewBox="0 0 506 353" enable-background="new 0 0 506 353" xml:space="preserve">
<g>
	<path fill="#FFFFFF" d="M36.081,8.59c2.478,2.393,3.853,5.111,4.126,8.154h-4.736c-0.527-2.311-1.579-4.142-3.153-5.493
		c-1.575-1.351-3.785-2.026-6.629-2.026c-3.469,0-6.27,1.242-8.404,3.726c-2.134,2.484-3.201,6.292-3.201,11.423
		c0,4.203,0.963,7.61,2.89,10.226c1.926,2.614,4.8,3.922,8.622,3.922c3.518,0,6.196-1.375,8.034-4.127
		c0.975-1.447,1.703-3.353,2.183-5.713h4.736c-0.418,3.776-1.802,6.942-4.151,9.497c-2.815,3.076-6.613,4.614-11.391,4.614
		c-4.119,0-7.578-1.262-10.377-3.787c-3.684-3.338-5.526-8.493-5.526-15.464c0-5.293,1.383-9.633,4.15-13.021
		C16.246,6.841,20.372,5,25.633,5C30.121,5.001,33.604,6.197,36.081,8.59z"/>
	<path fill="#FFFFFF" d="M60.251,26.018c1.009-0.129,1.685-0.552,2.026-1.267c0.195-0.392,0.292-0.956,0.292-1.691
		c0-1.503-0.532-2.594-1.596-3.272c-1.064-0.678-2.586-1.017-4.568-1.017c-2.291,0-3.915,0.622-4.874,1.865
		c-0.536,0.688-0.885,1.709-1.047,3.067h-4.102c0.081-3.232,1.125-5.48,3.133-6.745s4.336-1.897,6.986-1.897
		c3.072,0,5.568,0.586,7.486,1.758c1.902,1.172,2.853,2.995,2.853,5.469v15.063c0,0.457,0.093,0.822,0.281,1.1
		c0.187,0.275,0.582,0.414,1.184,0.414c0.195,0,0.415-0.012,0.659-0.037c0.244-0.025,0.504-0.061,0.781-0.109v3.247
		c-0.684,0.195-1.205,0.317-1.562,0.366c-0.358,0.049-0.847,0.072-1.465,0.072c-1.514,0-2.612-0.536-3.296-1.61
		c-0.358-0.569-0.61-1.375-0.757-2.417c-0.896,1.172-2.181,2.188-3.857,3.051c-1.677,0.862-3.524,1.293-5.542,1.293
		c-2.425,0-4.407-0.736-5.945-2.207c-1.538-1.471-2.307-3.312-2.307-5.521c0-2.422,0.757-4.301,2.271-5.633
		c1.514-1.333,3.499-2.154,5.957-2.463L60.251,26.018z M50.999,37.889c0.928,0.731,2.026,1.096,3.296,1.096
		c1.546,0,3.043-0.356,4.492-1.071c2.441-1.187,3.662-3.128,3.662-5.826v-3.535c-0.536,0.343-1.227,0.63-2.071,0.857
		c-0.845,0.229-1.673,0.392-2.485,0.489l-2.656,0.342c-1.592,0.211-2.789,0.544-3.591,0.998c-1.359,0.764-2.039,1.981-2.039,3.654
		C49.606,36.16,50.071,37.159,50.999,37.889z"/>
	<path fill="#FFFFFF" d="M74.045,15.694h4.175v3.711c1.237-1.53,2.547-2.628,3.931-3.296c1.383-0.667,2.921-1.001,4.614-1.001
		c3.711,0,6.217,1.294,7.52,3.882c0.716,1.416,1.074,3.442,1.074,6.079v16.772h-4.469V25.362c0-1.595-0.236-2.881-0.708-3.857
		c-0.781-1.627-2.197-2.441-4.248-2.441c-1.042,0-1.896,0.106-2.563,0.317c-1.205,0.358-2.263,1.074-3.174,2.148
		c-0.732,0.863-1.208,1.754-1.428,2.673c-0.22,0.92-0.33,2.234-0.33,3.943v13.696h-4.395L74.045,15.694L74.045,15.694z"/>
	<path fill="#FFFFFF" d="M132.09,15.694h4.858c-0.619,1.677-1.994,5.504-4.126,11.48c-1.595,4.495-2.93,8.158-4.004,10.991
		c-2.537,6.668-4.326,10.733-5.366,12.198c-1.04,1.464-2.829,2.195-5.366,2.195c-0.618,0-1.094-0.023-1.427-0.072
		s-0.745-0.139-1.232-0.27v-4.004c0.764,0.211,1.316,0.342,1.657,0.391c0.341,0.049,0.642,0.073,0.902,0.073
		c0.812,0,1.409-0.134,1.791-0.401c0.382-0.27,0.703-0.598,0.963-0.987c0.081-0.13,0.374-0.796,0.877-1.998s0.87-2.097,1.097-2.681
		l-9.668-26.917h4.98l7.007,21.299L132.09,15.694z"/>
	<path fill="#FFFFFF" d="M159.689,18.304c2.311,2.244,3.467,5.545,3.467,9.903c0,4.212-1.019,7.691-3.055,10.439
		c-2.037,2.748-5.196,4.123-9.479,4.123c-3.572,0-6.408-1.216-8.509-3.646c-2.101-2.432-3.151-5.696-3.151-9.794
		c0-4.391,1.107-7.887,3.321-10.489s5.188-3.903,8.921-3.903C154.551,14.938,157.378,16.06,159.689,18.304z M156.961,35.682
		c1.07-2.203,1.605-4.654,1.605-7.352c0-2.438-0.386-4.422-1.159-5.95c-1.223-2.406-3.332-3.609-6.325-3.609
		c-2.656,0-4.586,1.024-5.793,3.073c-1.207,2.049-1.811,4.519-1.811,7.413c0,2.78,0.604,5.097,1.811,6.95s3.122,2.779,5.746,2.779
		C153.916,38.984,155.891,37.884,156.961,35.682z"/>
	<path fill="#FFFFFF" d="M172.947,15.694v17.358c0,1.335,0.206,2.425,0.618,3.271c0.761,1.562,2.18,2.345,4.256,2.345
		c2.979,0,5.009-1.367,6.086-4.103c0.586-1.465,0.88-3.475,0.88-6.029V15.694h4.395v26.147h-4.15l0.049-3.856
		c-0.56,0.992-1.255,1.83-2.085,2.515c-1.645,1.367-3.641,2.051-5.989,2.051c-3.658,0-6.149-1.245-7.474-3.735
		c-0.719-1.334-1.078-3.117-1.078-5.347V15.694H172.947z"/>
	<path fill="#FFFFFF" d="M212.303,7.711c1.025-1.497,3.003-2.246,5.933-2.246c0.276,0,0.562,0.008,0.854,0.024
		c0.293,0.017,0.626,0.041,1.001,0.073v4.004c-0.461-0.032-0.794-0.053-1-0.061s-0.399-0.012-0.58-0.012
		c-1.35,0-2.156,0.346-2.419,1.038c-0.263,0.692-0.395,2.454-0.395,5.286h4.395v3.467h-4.395v22.559h-4.346v-22.56h-3.638v-3.467
		h3.638v-4.102C211.415,9.892,211.732,8.558,212.303,7.711z"/>
	<path fill="#FFFFFF" d="M224.143,5.978h4.468v4.98h-4.468V5.978z M224.143,15.816h4.468v26.025h-4.468V15.816z"/>
	<path fill="#FFFFFF" d="M235.251,15.694h4.175v3.711c1.237-1.53,2.547-2.628,3.931-3.296c1.383-0.667,2.921-1.001,4.614-1.001
		c3.711,0,6.217,1.294,7.519,3.882c0.717,1.416,1.074,3.442,1.074,6.079v16.772h-4.467V25.362c0-1.595-0.236-2.881-0.708-3.857
		c-0.781-1.627-2.197-2.441-4.248-2.441c-1.042,0-1.896,0.106-2.563,0.317c-1.205,0.358-2.263,1.074-3.174,2.148
		c-0.732,0.863-1.208,1.754-1.428,2.673c-0.22,0.92-0.33,2.234-0.33,3.943v13.696h-4.395V15.694z"/>
	<path fill="#FFFFFF" d="M277.425,16.5c0.778,0.488,1.661,1.343,2.651,2.563V5.856h4.223v35.986h-3.955v-3.638
		c-1.021,1.61-2.229,2.774-3.623,3.491c-1.395,0.716-2.992,1.074-4.791,1.074c-2.902,0-5.416-1.226-7.54-3.675
		c-2.124-2.448-3.187-5.708-3.187-9.778c0-3.809,0.969-7.107,2.905-9.899c1.938-2.791,4.706-4.187,8.306-4.187
		C274.41,15.231,276.078,15.654,277.425,16.5z M267.615,36.105c1.183,1.888,3.077,2.832,5.686,2.832c2.023,0,3.688-0.875,4.99-2.625
		c1.305-1.75,1.955-4.261,1.955-7.533c0-3.303-0.672-5.75-2.016-7.335s-3.004-2.38-4.979-2.38c-2.202,0-3.988,0.847-5.356,2.539
		c-1.368,1.693-2.053,4.183-2.053,7.471C265.842,31.873,266.434,34.217,267.615,36.105z"/>
	<path fill="#FFFFFF" d="M304.758,15.694h4.176v3.711c1.236-1.53,2.547-2.628,3.93-3.296c1.385-0.667,2.922-1.001,4.615-1.001
		c3.711,0,6.217,1.294,7.52,3.882c0.715,1.416,1.074,3.442,1.074,6.079v16.772h-4.469V25.362c0-1.595-0.236-2.881-0.707-3.857
		c-0.781-1.627-2.197-2.441-4.248-2.441c-1.043,0-1.896,0.106-2.564,0.317c-1.203,0.358-2.262,1.074-3.174,2.148
		c-0.731,0.863-1.207,1.754-1.428,2.673c-0.22,0.92-0.33,2.234-0.33,3.943v13.696h-4.395V15.694z"/>
	<path fill="#FFFFFF" d="M336.961,15.694v17.358c0,1.335,0.205,2.425,0.617,3.271c0.762,1.562,2.18,2.345,4.256,2.345
		c2.979,0,5.01-1.367,6.088-4.103c0.586-1.465,0.879-3.475,0.879-6.029V15.694h4.395v26.147h-4.15l0.05-3.856
		c-0.56,0.992-1.254,1.83-2.084,2.515c-1.646,1.367-3.642,2.051-5.989,2.051c-3.656,0-6.148-1.245-7.474-3.735
		c-0.72-1.334-1.078-3.117-1.078-5.347V15.694H336.961z"/>
	<path fill="#FFFFFF" d="M360.373,15.694h4.346v3.711c1.042-1.286,1.986-2.222,2.832-2.808c1.449-0.993,3.093-1.489,4.932-1.489
		c2.084,0,3.76,0.513,5.029,1.538c0.717,0.586,1.367,1.449,1.953,2.588c0.977-1.399,2.125-2.437,3.443-3.113
		c1.317-0.675,2.799-1.013,4.442-1.013c3.517,0,5.908,1.27,7.179,3.809c0.684,1.367,1.024,3.207,1.024,5.518v17.407h-4.565V23.678
		c0-1.741-0.437-2.938-1.307-3.589c-0.871-0.651-1.934-0.977-3.188-0.977c-1.725,0-3.209,0.578-4.455,1.733
		c-1.244,1.156-1.866,3.084-1.866,5.786v15.21h-4.47V24.776c0-1.774-0.211-3.068-0.635-3.882c-0.667-1.221-1.912-1.831-3.734-1.831
		c-1.659,0-3.17,0.643-4.528,1.929c-1.358,1.286-2.039,3.613-2.039,6.982v13.867h-4.396V15.694H360.373z"/>
	<path fill="#FFFFFF" d="M401.658,5.856h4.271v13.013c0.965-1.253,2.117-2.209,3.456-2.869c1.34-0.659,2.794-0.989,4.362-0.989
		c3.269,0,5.92,1.119,7.953,3.357c2.034,2.238,3.053,5.538,3.053,9.9c0,4.134-1.006,7.568-3.017,10.302
		c-2.01,2.736-4.795,4.103-8.356,4.103c-1.993,0-3.676-0.479-5.049-1.44c-0.816-0.568-1.69-1.48-2.621-2.733v3.345h-4.053V5.856
		L401.658,5.856z M418.461,35.958c1.184-1.888,1.775-4.378,1.775-7.471c0-2.75-0.593-5.029-1.775-6.836
		c-1.184-1.807-2.928-2.71-5.23-2.71c-2.008,0-3.768,0.741-5.277,2.222c-1.512,1.481-2.268,3.923-2.268,7.324
		c0,2.458,0.311,4.453,0.932,5.981c1.158,2.882,3.322,4.321,6.491,4.321C415.492,38.79,417.277,37.846,418.461,35.958z"/>
	<path fill="#FFFFFF" d="M445.982,16.415c1.73,0.871,3.049,1.998,3.955,3.381c0.873,1.318,1.455,2.856,1.747,4.614
		c0.259,1.205,0.388,3.125,0.388,5.762h-19.018c0.08,2.66,0.702,4.795,1.865,6.402c1.162,1.607,2.963,2.41,5.4,2.41
		c2.276,0,4.095-0.76,5.45-2.28c0.76-0.884,1.297-1.905,1.613-3.066h4.322c-0.115,0.96-0.493,2.031-1.137,3.21
		c-0.644,1.18-1.359,2.146-2.15,2.894c-1.325,1.302-2.965,2.181-4.919,2.637c-1.051,0.26-2.237,0.392-3.562,0.392
		c-3.234,0-5.977-1.185-8.225-3.553c-2.248-2.367-3.373-5.684-3.373-9.949c0-4.199,1.133-7.608,3.396-10.229
		c2.266-2.62,5.226-3.931,8.881-3.931C442.464,15.108,444.251,15.544,445.982,16.415z M447.557,26.681
		c-0.178-1.904-0.59-3.426-1.235-4.565c-1.193-2.116-3.188-3.174-5.979-3.174c-2.001,0-3.68,0.729-5.035,2.185
		c-1.355,1.457-2.074,3.308-2.154,5.554H447.557z"/>
	<path fill="#FFFFFF" d="M457.762,15.694h4.174v4.517c0.342-0.879,1.18-1.949,2.516-3.21c1.334-1.261,2.872-1.892,4.613-1.892
		c0.082,0,0.221,0.008,0.416,0.024c0.195,0.017,0.528,0.049,1,0.098v4.639c-0.26-0.049-0.5-0.081-0.72-0.098
		c-0.22-0.016-0.46-0.024-0.72-0.024c-2.216,0-3.915,0.712-5.104,2.136c-1.188,1.424-1.781,3.064-1.781,4.919v15.039h-4.395
		L457.762,15.694L457.762,15.694z"/>
	<path fill="#FFFFFF" d="M477.891,8.724c2.01-2.14,4.771-3.21,8.279-3.21c3.246,0,5.846,0.916,7.799,2.747
		c1.951,1.831,2.928,4.171,2.928,7.019c0,1.726-0.354,3.125-1.062,4.199c-0.708,1.074-2.159,2.653-4.354,4.736
		c-1.596,1.514-2.635,2.795-3.115,3.845c-0.481,1.049-0.723,2.6-0.723,4.651h-4.346c0-2.327,0.274-4.203,0.83-5.627
		c0.553-1.424,1.784-3.056,3.692-4.895l1.992-1.929c0.598-0.553,1.082-1.131,1.454-1.733c0.677-1.058,1.015-2.156,1.015-3.296
		c0-1.595-0.485-2.979-1.459-4.15c-0.972-1.172-2.58-1.758-4.822-1.758c-2.774,0-4.694,1.009-5.759,3.027
		c-0.599,1.123-0.938,2.743-1.021,4.858h-4.346C474.875,13.692,475.881,10.865,477.891,8.724z M483.201,36.764h4.857v5.078h-4.857
		V36.764z"/>
</g>
<g>
	<g>
		<path fill="#FFFFFF" d="M292.663,68v43.008h-79.326V68H292.663 M297.663,63h-5h-79.326h-5v5v43.008v5h5h79.326h5v-5V68V63
			L297.663,63z"/>
	</g>
	<g>
		<path fill="#FFFFFF" d="M245.421,101.06c-1.425-1.736-2.137-3.848-2.137-6.337h3.509c0.149,1.73,0.473,2.986,0.971,3.771
			c0.871,1.407,2.445,2.109,4.723,2.109c1.767,0,3.186-0.473,4.256-1.418s1.605-2.166,1.605-3.659c0-1.842-0.563-3.13-1.689-3.864
			c-1.126-0.734-2.691-1.101-4.694-1.101c-0.224,0-0.451,0.003-0.682,0.009s-0.464,0.016-0.699,0.028v-2.968
			c0.348,0.038,0.641,0.063,0.877,0.075c0.236,0.013,0.491,0.019,0.766,0.019c1.256,0,2.289-0.199,3.099-0.598
			c1.418-0.697,2.128-1.941,2.128-3.733c0-1.331-0.474-2.358-1.419-3.08c-0.946-0.721-2.048-1.083-3.304-1.083
			c-2.24,0-3.789,0.747-4.648,2.24c-0.473,0.821-0.74,1.991-0.803,3.509h-3.322c0-1.991,0.398-3.684,1.194-5.078
			c1.369-2.489,3.777-3.733,7.224-3.733c2.726,0,4.835,0.607,6.328,1.82c1.494,1.213,2.24,2.971,2.24,5.273
			c0,1.643-0.442,2.975-1.325,3.995c-0.548,0.635-1.257,1.132-2.128,1.493c1.405,0.386,2.504,1.129,3.295,2.231
			c0.789,1.101,1.186,2.448,1.186,4.041c0,2.551-0.841,4.629-2.521,6.235s-4.063,2.408-7.149,2.408
			C249.139,103.664,246.846,102.795,245.421,101.06z"/>
	</g>
	<g>
		<path fill="#FFFFFF" d="M292.663,114.771v43.008h-79.326v-43.008H292.663 M297.663,109.771h-5h-79.326h-5v5v43.008v5h5h79.326h5
			v-5v-43.008V109.771L297.663,109.771z"/>
	</g>
	<g>
		<path fill="#FFFFFF" d="M247.092,142.893c0.225,1.917,1.113,3.242,2.67,3.976c0.796,0.374,1.717,0.56,2.762,0.56
			c1.991,0,3.466-0.635,4.425-1.904c0.957-1.27,1.437-2.676,1.437-4.219c0-1.867-0.569-3.31-1.708-4.331
			c-1.139-1.02-2.505-1.53-4.097-1.53c-1.157,0-2.15,0.224-2.978,0.672c-0.828,0.448-1.534,1.07-2.118,1.867l-2.912-0.168
			l2.035-14.392h13.887v3.248h-11.367l-1.139,7.429c0.622-0.473,1.213-0.827,1.773-1.064c0.995-0.411,2.146-0.616,3.453-0.616
			c2.45,0,4.529,0.791,6.234,2.371c1.704,1.581,2.558,3.584,2.558,6.011c0,2.526-0.781,4.754-2.343,6.683
			c-1.562,1.929-4.055,2.893-7.477,2.893c-2.178,0-4.104-0.613-5.776-1.838c-1.675-1.226-2.611-3.108-2.81-5.647H247.092z"/>
	</g>
	<g>
		<path fill="#FFFFFF" d="M292.663,162.557v43.009h-79.326v-43.009H292.663 M297.663,157.557h-5h-79.326h-5v5v43.009v5h5h79.326h5
			v-5v-43.009V157.557L297.663,157.557z"/>
	</g>
	<g>
		<path fill="#FFFFFF" d="M246.01,181.85c-0.983-0.995-1.476-2.289-1.476-3.883c0-1.99,0.721-3.702,2.163-5.133
			s3.487-2.147,6.135-2.147c2.561,0,4.567,0.675,6.021,2.025c1.454,1.351,2.183,2.928,2.183,4.732c0,1.668-0.423,3.019-1.269,4.051
			c-0.474,0.585-1.207,1.157-2.202,1.718c1.113,0.51,1.986,1.096,2.624,1.754c1.187,1.245,1.78,2.863,1.78,4.854
			c0,2.353-0.791,4.347-2.371,5.983c-1.581,1.637-3.814,2.454-6.701,2.454c-2.602,0-4.801-0.706-6.599-2.118
			c-1.799-1.412-2.697-3.463-2.697-6.151c0-1.58,0.385-2.945,1.156-4.097s1.917-2.031,3.436-2.642
			C247.26,182.853,246.531,182.386,246.01,181.85z M256.845,193.937c1.027-0.84,1.54-2.094,1.54-3.761
			c0-1.729-0.528-3.043-1.586-3.939c-1.059-0.896-2.415-1.344-4.069-1.344c-1.605,0-2.915,0.457-3.93,1.372
			s-1.521,2.182-1.521,3.799c0,1.395,0.464,2.599,1.391,3.612s2.361,1.521,4.303,1.521
			C254.526,195.196,255.818,194.776,256.845,193.937z M256.222,180.718c0.833-0.829,1.249-1.817,1.249-2.966
			c0-0.997-0.397-1.914-1.193-2.75c-0.795-0.835-2.005-1.253-3.632-1.253c-1.614,0-2.782,0.418-3.503,1.253
			c-0.72,0.836-1.08,1.815-1.08,2.938c0,1.26,0.466,2.245,1.397,2.956s2.03,1.066,3.297,1.066
			C254.235,181.962,255.39,181.548,256.222,180.718z"/>
	</g>
	<g>
		<path fill="#FFFFFF" d="M292.663,209.327v43.009h-79.326v-43.009H292.663 M297.663,204.327h-5h-79.326h-5v5v43.009v5h5h79.326h5
			v-5v-43.009V204.327L297.663,204.327z"/>
	</g>
	<g>
		<path fill="#FFFFFF" d="M235.397,225.335v-2.576c2.427-0.235,4.118-0.632,5.077-1.185c0.958-0.554,1.674-1.864,2.146-3.93h2.651
			v26.619h-3.585v-18.929H235.397z"/>
		<path fill="#FFFFFF" d="M256.052,242.388c-1.425-1.736-2.138-3.849-2.138-6.338h3.51c0.149,1.729,0.473,2.987,0.971,3.771
			c0.871,1.407,2.445,2.109,4.723,2.109c1.767,0,3.186-0.473,4.256-1.418c1.069-0.946,1.605-2.166,1.605-3.659
			c0-1.842-0.563-3.13-1.689-3.864s-2.691-1.101-4.694-1.101c-0.225,0-0.452,0.002-0.682,0.009c-0.23,0.007-0.464,0.016-0.7,0.028
			v-2.968c0.349,0.037,0.641,0.062,0.878,0.074c0.236,0.012,0.49,0.019,0.765,0.019c1.257,0,2.29-0.198,3.099-0.598
			c1.419-0.697,2.129-1.941,2.129-3.733c0-1.331-0.474-2.358-1.419-3.079c-0.946-0.722-2.048-1.083-3.304-1.083
			c-2.24,0-3.79,0.746-4.648,2.24c-0.474,0.821-0.741,1.99-0.803,3.509h-3.322c0-1.99,0.397-3.684,1.194-5.077
			c1.368-2.489,3.776-3.733,7.224-3.733c2.726,0,4.835,0.606,6.328,1.82c1.493,1.213,2.24,2.971,2.24,5.273
			c0,1.643-0.442,2.975-1.325,3.994c-0.548,0.635-1.257,1.133-2.128,1.493c1.405,0.386,2.504,1.13,3.295,2.231
			c0.789,1.101,1.185,2.448,1.185,4.041c0,2.551-0.84,4.629-2.52,6.234s-4.063,2.408-7.149,2.408
			C259.77,244.991,257.477,244.123,256.052,242.388z"/>
	</g>
	<g>
		<path fill="#FFFFFF" d="M292.663,257.114v43.01h-79.326v-43.01H292.663 M297.663,252.114h-5h-79.326h-5v5v43.01v5h5h79.326h5v-5
			v-43.01V252.114L297.663,252.114z"/>
	</g>
	<g>
		<path fill="#FFFFFF" d="M234.361,286.04c0.827-1.705,2.442-3.255,4.844-4.648l3.584-2.072c1.605-0.933,2.731-1.73,3.379-2.391
			c1.021-1.035,1.53-2.22,1.53-3.554c0-1.559-0.466-2.796-1.399-3.713c-0.934-0.916-2.178-1.375-3.733-1.375
			c-2.303,0-3.896,0.874-4.779,2.621c-0.473,0.937-0.734,2.234-0.783,3.895h-3.416c0.037-2.327,0.466-4.226,1.288-5.693
			c1.456-2.589,4.025-3.883,7.709-3.883c3.062,0,5.298,0.827,6.711,2.482c1.412,1.654,2.118,3.497,2.118,5.525
			c0,2.14-0.753,3.97-2.259,5.488c-0.871,0.884-2.433,1.953-4.685,3.21l-2.558,1.419c-1.22,0.672-2.178,1.313-2.875,1.923
			c-1.244,1.083-2.028,2.284-2.352,3.603h14.597v3.174h-18.349C233.058,289.748,233.533,287.745,234.361,286.04z"/>
		<path fill="#FFFFFF" d="M255.622,286.04c0.827-1.705,2.442-3.255,4.845-4.648l3.584-2.072c1.605-0.933,2.73-1.73,3.379-2.391
			c1.02-1.035,1.53-2.22,1.53-3.554c0-1.559-0.467-2.796-1.4-3.713c-0.933-0.916-2.178-1.375-3.733-1.375
			c-2.302,0-3.896,0.874-4.778,2.621c-0.474,0.937-0.734,2.234-0.784,3.895h-3.416c0.037-2.327,0.467-4.226,1.288-5.693
			c1.456-2.589,4.025-3.883,7.709-3.883c3.062,0,5.298,0.827,6.711,2.482c1.412,1.654,2.119,3.497,2.119,5.525
			c0,2.14-0.753,3.97-2.259,5.488c-0.872,0.884-2.434,1.953-4.686,3.21l-2.558,1.419c-1.22,0.672-2.178,1.313-2.874,1.923
			c-1.245,1.083-2.029,2.284-2.353,3.603h14.598v3.174h-18.35C254.318,289.748,254.795,287.745,255.622,286.04z"/>
	</g>
	<g>
		<path fill="#FFFFFF" d="M292.663,303.885v43.009h-79.326v-43.009H292.663 M297.663,298.885h-5h-79.326h-5v5v43.009v5h5h79.326h5
			v-5v-43.009V298.885L297.663,298.885z"/>
	</g>
	<g>
		<path fill="#FFFFFF" d="M247.587,313.5c1.537-1.637,3.647-2.455,6.33-2.455c2.482,0,4.469,0.7,5.962,2.1
			c1.493,1.4,2.239,3.189,2.239,5.367c0,1.319-0.271,2.39-0.812,3.211s-1.651,2.028-3.328,3.621
			c-1.22,1.157-2.015,2.138-2.382,2.939c-0.369,0.803-0.553,1.988-0.553,3.557h-3.322c0-1.779,0.211-3.214,0.634-4.303
			c0.423-1.088,1.365-2.336,2.824-3.743l1.523-1.475c0.458-0.423,0.827-0.864,1.112-1.325c0.517-0.809,0.775-1.648,0.775-2.52
			c0-1.22-0.372-2.277-1.114-3.174c-0.744-0.896-1.974-1.344-3.689-1.344c-2.121,0-3.589,0.771-4.402,2.314
			c-0.457,0.858-0.718,2.098-0.78,3.715h-3.323C245.281,317.298,246.05,315.137,247.587,313.5z M251.646,334.938h3.715v3.883h-3.715
			V334.938z"/>
	</g>
</g>
</svg>
