<?xml version="1.0" encoding="utf-8"?>
<!-- Generator: Adobe Illustrator 16.0.0, SVG Export Plug-In . SVG Version: 6.00 Build 0)  -->
<!DOCTYPE svg PUBLIC "-//W3C//DTD SVG 1.1//EN" "http://www.w3.org/Graphics/SVG/1.1/DTD/svg11.dtd">
<svg version="1.1" id="Layer_1" xmlns="http://www.w3.org/2000/svg" xmlns:xlink="http://www.w3.org/1999/xlink" x="0px" y="0px"
	 width="506px" height="180px" viewBox="0 0 506 180" enable-background="new 0 0 506 180" xml:space="preserve">
<g>
	<path fill="#FFFFFF" d="M25.984,4.492h4.711v14.227h17.695V4.492h4.711v34.43h-4.711V22.82H30.695v16.102h-4.711V4.492z"/>
	<path fill="#FFFFFF" d="M78.156,16.326c2.219,2.154,3.328,5.323,3.328,9.507c0,4.043-0.978,7.384-2.933,10.023
		c-1.955,2.638-4.988,3.957-9.1,3.957c-3.429,0-6.152-1.167-8.169-3.5c-2.017-2.334-3.025-5.469-3.025-9.403
		c0-4.215,1.062-7.571,3.188-10.069c2.125-2.498,4.98-3.747,8.564-3.747C73.222,13.094,75.938,14.171,78.156,16.326z M75.537,33.008
		c1.028-2.114,1.542-4.467,1.542-7.058c0-2.341-0.371-4.245-1.112-5.712c-1.174-2.31-3.198-3.465-6.072-3.465
		c-2.549,0-4.403,0.983-5.562,2.95c-1.159,1.967-1.738,4.338-1.738,7.116c0,2.668,0.579,4.893,1.738,6.672
		c1.158,1.778,2.997,2.668,5.516,2.668C72.613,36.18,74.509,35.123,75.537,33.008z"/>
	<path fill="#FFFFFF" d="M88.621,13.82l4.828,19.781l4.898-19.781h4.734l4.922,19.664l5.133-19.664h4.219l-7.289,25.102h-4.383
		l-5.109-19.43l-4.945,19.43h-4.383L84.004,13.82H88.621z"/>
	<path fill="#FFFFFF" d="M134.664,13.82h4.172v3.562c1-1.234,1.906-2.133,2.719-2.695c1.391-0.953,2.969-1.43,4.734-1.43
		c2,0,3.609,0.492,4.828,1.477c0.688,0.562,1.312,1.391,1.875,2.484c0.938-1.344,2.039-2.34,3.305-2.988s2.688-0.973,4.266-0.973
		c3.375,0,5.672,1.219,6.891,3.656c0.656,1.312,0.984,3.078,0.984,5.297v16.711h-4.383V21.484c0-1.672-0.418-2.82-1.254-3.445
		s-1.855-0.938-3.059-0.938c-1.656,0-3.082,0.555-4.277,1.664s-1.793,2.961-1.793,5.555v14.602h-4.289V22.539
		c0-1.703-0.203-2.945-0.609-3.727c-0.641-1.172-1.836-1.758-3.586-1.758c-1.594,0-3.043,0.617-4.348,1.852
		s-1.957,3.469-1.957,6.703v13.312h-4.219V13.82z"/>
	<path fill="#FFFFFF" d="M188.102,23.73c0.968-0.124,1.617-0.53,1.945-1.216c0.187-0.376,0.281-0.917,0.281-1.624
		c0-1.443-0.511-2.49-1.532-3.141s-2.483-0.977-4.385-0.977c-2.199,0-3.758,0.597-4.678,1.79c-0.515,0.66-0.85,1.642-1.006,2.944
		h-3.938c0.078-3.103,1.081-5.261,3.008-6.476c1.928-1.214,4.163-1.821,6.707-1.821c2.949,0,5.345,0.562,7.187,1.688
		c1.826,1.125,2.739,2.875,2.739,5.25V34.61c0,0.438,0.09,0.789,0.27,1.055c0.18,0.265,0.559,0.397,1.137,0.397
		c0.188,0,0.398-0.012,0.633-0.035s0.484-0.059,0.75-0.105v3.117c-0.656,0.188-1.156,0.305-1.5,0.352s-0.812,0.07-1.406,0.07
		c-1.453,0-2.508-0.516-3.164-1.547c-0.344-0.547-0.586-1.32-0.727-2.319c-0.859,1.125-2.094,2.101-3.703,2.929
		s-3.383,1.242-5.32,1.242c-2.328,0-4.23-0.707-5.707-2.119s-2.215-3.179-2.215-5.301c0-2.326,0.727-4.128,2.18-5.408
		s3.359-2.068,5.719-2.365L188.102,23.73z M179.219,35.127c0.891,0.702,1.945,1.053,3.164,1.053c1.484,0,2.922-0.344,4.312-1.029
		c2.344-1.139,3.516-3.003,3.516-5.593v-3.393c-0.515,0.329-1.177,0.604-1.988,0.823c-0.811,0.22-1.606,0.376-2.386,0.47
		l-2.55,0.328c-1.528,0.202-2.677,0.521-3.447,0.959c-1.305,0.732-1.957,1.902-1.957,3.508
		C177.883,33.467,178.328,34.426,179.219,35.127z"/>
	<path fill="#FFFFFF" d="M201.344,13.82h4.008v3.562c1.188-1.469,2.445-2.523,3.773-3.164s2.805-0.961,4.43-0.961
		c3.562,0,5.969,1.242,7.219,3.727c0.688,1.359,1.031,3.305,1.031,5.836v16.102h-4.289v-15.82c0-1.531-0.227-2.766-0.68-3.703
		c-0.75-1.562-2.109-2.344-4.078-2.344c-1,0-1.82,0.102-2.461,0.305c-1.156,0.344-2.172,1.031-3.047,2.062
		c-0.703,0.828-1.16,1.684-1.371,2.566s-0.316,2.145-0.316,3.785v13.148h-4.219V13.82z"/>
	<path fill="#FFFFFF" d="M243.73,13.82h4.664c-0.594,1.61-1.914,5.284-3.961,11.021c-1.531,4.315-2.812,7.832-3.844,10.552
		c-2.436,6.401-4.152,10.305-5.151,11.711c-0.999,1.404-2.716,2.107-5.151,2.107c-0.594,0-1.05-0.023-1.37-0.07
		c-0.32-0.047-0.715-0.133-1.183-0.258v-3.844c0.733,0.203,1.264,0.328,1.591,0.375s0.616,0.07,0.866,0.07
		c0.779,0,1.353-0.129,1.719-0.386c0.367-0.258,0.675-0.573,0.925-0.948c0.078-0.124,0.358-0.764,0.842-1.917
		c0.483-1.154,0.834-2.013,1.053-2.573l-9.281-25.84h4.781l6.727,20.447L243.73,13.82z"/>
	<path fill="#FFFFFF" d="M278.828,23.73c0.969-0.124,1.617-0.53,1.945-1.216c0.188-0.376,0.281-0.917,0.281-1.624
		c0-1.443-0.511-2.49-1.532-3.141s-2.483-0.977-4.386-0.977c-2.198,0-3.758,0.597-4.678,1.79c-0.515,0.66-0.85,1.642-1.006,2.944
		h-3.938c0.078-3.103,1.08-5.261,3.008-6.476c1.928-1.214,4.163-1.821,6.707-1.821c2.949,0,5.346,0.562,7.188,1.688
		c1.825,1.125,2.738,2.875,2.738,5.25V34.61c0,0.438,0.09,0.789,0.27,1.055c0.18,0.265,0.559,0.397,1.137,0.397
		c0.188,0,0.398-0.012,0.633-0.035s0.484-0.059,0.75-0.105v3.117c-0.656,0.188-1.156,0.305-1.5,0.352s-0.812,0.07-1.406,0.07
		c-1.453,0-2.508-0.516-3.164-1.547c-0.344-0.547-0.586-1.32-0.727-2.319c-0.859,1.125-2.094,2.101-3.703,2.929
		s-3.383,1.242-5.32,1.242c-2.328,0-4.23-0.707-5.707-2.119s-2.215-3.179-2.215-5.301c0-2.326,0.727-4.128,2.18-5.408
		s3.359-2.068,5.719-2.365L278.828,23.73z M269.945,35.127c0.891,0.702,1.945,1.053,3.164,1.053c1.484,0,2.922-0.344,4.312-1.029
		c2.344-1.139,3.516-3.003,3.516-5.593v-3.393c-0.515,0.329-1.178,0.604-1.988,0.823c-0.811,0.22-1.605,0.376-2.386,0.47
		l-2.55,0.328c-1.527,0.202-2.678,0.521-3.447,0.959c-1.305,0.732-1.957,1.902-1.957,3.508
		C268.609,33.467,269.055,34.426,269.945,35.127z"/>
	<path fill="#FFFFFF" d="M291.719,13.938h4.125v3.328c0.846-1.141,1.771-2.023,2.773-2.648c1.425-0.938,3.102-1.406,5.027-1.406
		c2.852,0,5.272,1.09,7.262,3.27s2.984,5.293,2.984,9.34c0,5.469-1.436,9.375-4.306,11.719c-1.819,1.484-3.938,2.227-6.354,2.227
		c-1.897,0-3.49-0.414-4.776-1.242c-0.753-0.469-1.592-1.273-2.518-2.414v12.82h-4.219V13.938z M307.591,33.613
		c1.31-1.648,1.964-4.113,1.964-7.395c0-2-0.29-3.719-0.87-5.156c-1.098-2.766-3.104-4.148-6.021-4.148
		c-2.932,0-4.938,1.461-6.021,4.383c-0.58,1.562-0.87,3.547-0.87,5.953c0,1.938,0.29,3.586,0.87,4.945
		c1.097,2.594,3.104,3.891,6.021,3.891C304.64,36.086,306.281,35.262,307.591,33.613z"/>
	<path fill="#FFFFFF" d="M318.414,13.938h4.125v3.328c0.846-1.141,1.771-2.023,2.773-2.648c1.425-0.938,3.102-1.406,5.027-1.406
		c2.852,0,5.272,1.09,7.262,3.27s2.984,5.293,2.984,9.34c0,5.469-1.436,9.375-4.306,11.719c-1.819,1.484-3.938,2.227-6.354,2.227
		c-1.897,0-3.49-0.414-4.776-1.242c-0.753-0.469-1.592-1.273-2.518-2.414v12.82h-4.219V13.938z M334.286,33.613
		c1.31-1.648,1.964-4.113,1.964-7.395c0-2-0.29-3.719-0.87-5.156c-1.098-2.766-3.104-4.148-6.021-4.148
		c-2.932,0-4.938,1.461-6.021,4.383c-0.58,1.562-0.87,3.547-0.87,5.953c0,1.938,0.29,3.586,0.87,4.945
		c1.097,2.594,3.104,3.891,6.021,3.891C331.335,36.086,332.977,35.262,334.286,33.613z"/>
	<path fill="#FFFFFF" d="M345.578,4.492h4.219v34.43h-4.219V4.492z"/>
	<path fill="#FFFFFF" d="M371.63,14.512c1.661,0.836,2.927,1.918,3.797,3.246c0.839,1.266,1.397,2.742,1.677,4.43
		c0.248,1.156,0.373,3,0.373,5.531h-18.258c0.078,2.554,0.675,4.604,1.791,6.146s2.845,2.314,5.186,2.314
		c2.186,0,3.93-0.73,5.232-2.189c0.729-0.848,1.245-1.828,1.549-2.943h4.148c-0.109,0.922-0.473,1.949-1.09,3.082
		s-1.306,2.059-2.065,2.777c-1.272,1.25-2.846,2.094-4.722,2.531c-1.008,0.25-2.148,0.375-3.42,0.375
		c-3.105,0-5.737-1.137-7.896-3.41s-3.237-5.457-3.237-9.551c0-4.031,1.087-7.305,3.262-9.82c2.174-2.516,5.016-3.773,8.525-3.773
		C368.252,13.258,369.968,13.676,371.63,14.512z M373.141,24.367c-0.171-1.828-0.566-3.289-1.186-4.383
		c-1.146-2.031-3.061-3.047-5.74-3.047c-1.921,0-3.532,0.699-4.834,2.098s-1.991,3.176-2.068,5.332H373.141z"/>
	<path fill="#FFFFFF" d="M396.273,4.492h4.219v34.43h-4.219V4.492z"/>
	<path fill="#FFFFFF" d="M422.325,14.512c1.661,0.836,2.927,1.918,3.797,3.246c0.839,1.266,1.397,2.742,1.677,4.43
		c0.248,1.156,0.373,3,0.373,5.531h-18.258c0.078,2.554,0.675,4.604,1.791,6.146s2.845,2.314,5.186,2.314
		c2.186,0,3.93-0.73,5.232-2.189c0.729-0.848,1.245-1.828,1.549-2.943h4.148c-0.109,0.922-0.473,1.949-1.09,3.082
		s-1.306,2.059-2.065,2.777c-1.272,1.25-2.846,2.094-4.722,2.531c-1.008,0.25-2.148,0.375-3.42,0.375
		c-3.105,0-5.737-1.137-7.896-3.41s-3.237-5.457-3.237-9.551c0-4.031,1.087-7.305,3.262-9.82c2.174-2.516,5.016-3.773,8.525-3.773
		C418.947,13.258,420.663,13.676,422.325,14.512z M423.836,24.367c-0.171-1.828-0.566-3.289-1.186-4.383
		c-1.146-2.031-3.061-3.047-5.74-3.047c-1.921,0-3.532,0.699-4.834,2.098s-1.991,3.176-2.068,5.332H423.836z"/>
	<path fill="#FFFFFF" d="M435.484,6.156C436.469,4.719,438.367,4,441.18,4c0.266,0,0.539,0.008,0.82,0.023s0.602,0.039,0.961,0.07
		v3.844c-0.442-0.031-0.763-0.051-0.96-0.059c-0.198-0.008-0.384-0.012-0.557-0.012c-1.296,0-2.07,0.332-2.323,0.996
		c-0.252,0.664-0.379,2.355-0.379,5.074h4.219v3.328h-4.219v21.656h-4.172V17.266h-3.492v-3.328h3.492V10
		C434.633,8.25,434.938,6.969,435.484,6.156z"/>
	<path fill="#FFFFFF" d="M447.695,6.812h4.266v7.008h4.008v3.445h-4.008v16.383c0,0.875,0.297,1.461,0.891,1.758
		c0.328,0.172,0.875,0.258,1.641,0.258c0.203,0,0.422-0.005,0.656-0.016c0.234-0.01,0.508-0.036,0.82-0.078v3.352
		c-0.484,0.141-0.988,0.242-1.512,0.305s-1.09,0.094-1.699,0.094c-1.969,0-3.305-0.504-4.008-1.512s-1.055-2.316-1.055-3.926V17.266
		h-3.398V13.82h3.398V6.812z"/>
	<path fill="#FFFFFF" d="M463.645,7.129c1.93-2.055,4.58-3.082,7.949-3.082c3.115,0,5.611,0.879,7.485,2.637
		s2.812,4.004,2.812,6.738c0,1.656-0.34,3-1.02,4.031S478.799,20,476.692,22c-1.532,1.453-2.528,2.684-2.991,3.691
		s-0.693,2.496-0.693,4.465h-4.172c0-2.234,0.266-4.035,0.797-5.402s1.713-2.934,3.546-4.699l1.913-1.852
		c0.573-0.531,1.039-1.086,1.396-1.664c0.649-1.016,0.974-2.07,0.974-3.164c0-1.531-0.467-2.859-1.4-3.984
		c-0.933-1.125-2.477-1.688-4.63-1.688c-2.664,0-4.507,0.969-5.528,2.906c-0.574,1.078-0.9,2.633-0.98,4.664h-4.172
		C460.75,11.898,461.715,9.184,463.645,7.129z M468.742,34.047h4.664v4.875h-4.664V34.047z"/>
</g>
<g>
	<path fill-rule="evenodd" clip-rule="evenodd" fill="#FFFFFF" d="M114.126,69.684c-4.959,3.409-8.369,8.679-11.158,13.328
		c-0.31,0.31-4.345,11.467-4.345,13.947v3.41c0.31,0.31,0,0.31,0.936,0.31c4.339,0,6.818-5.269,15.497-5.269
		c8.678,0,19.526,4.648,22.315,15.186c0.93,3.101,1.24,7.129,1.24,10.849c0,9.305,0.31,3.726-2.17,16.742
		c-0.31,1.24-0.93,2.17-1.24,3.721c-2.169,8.677-12.087,26.344-23.865,25.724c-0.31,0-0.62,0.62-1.55,0.62h-7.438
		c-2.479-2.169-4.035-1.86-5.895-1.86c-0.62,0-1.859-0.309-2.789,0c-0.93,0-1.86,1.86-2.789,1.86h-7.439
		c-0.31-0.311-0.62-0.311-0.93-0.62c-12.087,1.24-23.245-17.356-25.105-27.274c-0.31-1.859-2.479-9.918-2.479-12.397v-13.023
		c1.55-14.257,13.637-19.525,22.936-19.525c0.93,0,4.959,0.31,7.128,0.929c2.169,0.62,4.649,2.79,7.128,4.03
		c0.31-0.311,0.31-0.621,0.31-1.24c0-0.93-0.31-1.55-0.93-1.859c-12.398-4.029-18.286-13.637-18.286-22.315
		c0-0.62,0.31-4.029,0.929-5.889h3.409c8.679,0,14.877,11.158,15.188,16.737c0.31,0.31,0.31,0.62,0.62,0.93
		c0.93-2.479,1.24-5.269,1.86-8.059c1.55-5.269,3.1-11.157,5.895-16.427C105.448,63.795,109.787,66.895,114.126,69.684z"/>
	<path fill-rule="evenodd" clip-rule="evenodd" fill="#FFFFFF" d="M218.298,69.684c-4.959,3.409-8.368,8.679-11.157,13.328
		c-0.311,0.31-4.346,11.467-4.346,13.947v3.41c0.311,0.31,0,0.31,0.936,0.31c4.34,0,6.818-5.269,15.498-5.269
		c8.678,0,19.525,4.648,22.314,15.186c0.93,3.101,1.24,7.129,1.24,10.849c0,9.305,0.31,3.726-2.17,16.742
		c-0.311,1.24-0.93,2.17-1.24,3.721c-2.169,8.677-12.087,26.344-23.865,25.724c-0.309,0-0.619,0.62-1.549,0.62h-7.439
		c-2.479-2.169-4.034-1.86-5.895-1.86c-0.619,0-1.859-0.309-2.789,0c-0.93,0-1.859,1.86-2.789,1.86h-7.439
		c-0.31-0.311-0.619-0.311-0.93-0.62c-12.087,1.24-23.245-17.356-25.104-27.274c-0.31-1.859-2.479-9.918-2.479-12.397v-13.023
		c1.55-14.257,13.637-19.525,22.936-19.525c0.93,0,4.959,0.31,7.129,0.929c2.169,0.62,4.648,2.79,7.128,4.03
		c0.31-0.311,0.31-0.621,0.31-1.24c0-0.93-0.31-1.55-0.93-1.859c-12.397-4.029-18.285-13.637-18.285-22.315
		c0-0.62,0.309-4.029,0.929-5.889h3.409c8.679,0,14.877,11.158,15.188,16.737c0.31,0.31,0.31,0.62,0.619,0.93
		c0.931-2.479,1.24-5.269,1.86-8.059c1.55-5.269,3.1-11.157,5.895-16.427C209.62,63.795,213.959,66.895,218.298,69.684z"/>
	<path fill-rule="evenodd" clip-rule="evenodd" fill="#FFFFFF" d="M312.664,150.043c0-6.979,3.284-13.186,8.386-17.175
		c-3.797-3.94-6.136-9.296-6.136-15.2c0-10.065,6.788-18.541,16.035-21.112c-2.558-0.764-5.169-1.146-7.61-1.146
		c-8.68,0-11.158,5.269-15.498,5.269c-0.936,0-0.625,0-0.936-0.31v-3.41c0-2.479,4.035-13.637,4.346-13.947
		c2.789-4.649,6.198-9.918,11.157-13.328c-4.339-2.789-8.679-5.889-13.018-7.438c-2.795,5.27-4.345,11.158-5.895,16.427
		c-0.62,2.79-0.93,5.579-1.86,8.059c-0.31-0.31-0.31-0.62-0.619-0.93c-0.311-5.579-6.509-16.737-15.188-16.737h-3.409
		c-0.62,1.86-0.929,5.269-0.929,5.889c0,8.678,5.888,18.286,18.285,22.315c0.62,0.31,0.93,0.93,0.93,1.859c0,0.619,0,0.93-0.31,1.24
		c-2.479-1.24-4.959-3.41-7.128-4.03c-2.17-0.619-6.199-0.929-7.129-0.929c-1.737,0-3.572,0.185-5.418,0.576
		c9.826,3.234,16.923,12.481,16.923,23.39c0,6.479-2.507,12.372-6.599,16.769c1.729,3.5,2.704,7.438,2.704,11.606
		c0,7.57-3.209,14.388-8.336,19.179c1.751,0.617,3.552,0.888,5.374,0.701c0.311,0.31,0.62,0.31,0.93,0.62h7.439
		c0.93,0,1.859-1.86,2.789-1.86c0.93-0.309,2.17,0,2.789,0c1.86,0,3.416-0.309,5.895,1.86h7.439c0.93,0,1.24-0.62,1.549-0.62
		c0.634,0.033,1.261,0.004,1.883-0.064C316.141,163.596,312.664,157.226,312.664,150.043z"/>
	<path fill-rule="evenodd" clip-rule="evenodd" fill="#FFFFFF" d="M417.164,150.043c0-6.979,3.284-13.186,8.386-17.175
		c-3.797-3.94-6.136-9.296-6.136-15.2c0-10.065,6.788-18.541,16.035-21.112c-2.558-0.764-5.169-1.146-7.61-1.146
		c-8.68,0-11.158,5.269-15.498,5.269c-0.936,0-0.625,0-0.936-0.31v-3.41c0-2.479,4.035-13.637,4.346-13.947
		c2.789-4.649,6.198-9.918,11.157-13.328c-4.339-2.789-8.679-5.889-13.018-7.438c-2.795,5.27-4.345,11.158-5.895,16.427
		c-0.62,2.79-0.93,5.579-1.86,8.059c-0.31-0.31-0.31-0.62-0.619-0.93c-0.311-5.579-6.509-16.737-15.188-16.737h-3.409
		c-0.62,1.86-0.929,5.269-0.929,5.889c0,8.678,5.888,18.286,18.285,22.315c0.62,0.31,0.93,0.93,0.93,1.859c0,0.619,0,0.93-0.31,1.24
		c-2.479-1.24-4.959-3.41-7.128-4.03c-2.17-0.619-6.199-0.929-7.129-0.929c-1.737,0-3.572,0.185-5.418,0.576
		c9.826,3.234,16.923,12.481,16.923,23.39c0,6.479-2.507,12.372-6.599,16.769c1.729,3.5,2.704,7.438,2.704,11.606
		c0,7.57-3.209,14.388-8.336,19.179c1.751,0.617,3.552,0.888,5.374,0.701c0.311,0.31,0.62,0.31,0.93,0.62h7.439
		c0.93,0,1.859-1.86,2.789-1.86c0.93-0.309,2.17,0,2.789,0c1.86,0,3.416-0.309,5.895,1.86h7.439c0.93,0,1.24-0.62,1.549-0.62
		c0.634,0.033,1.261,0.004,1.883-0.064C420.641,163.596,417.164,157.226,417.164,150.043z"/>
</g>
</svg>
