<?xml version="1.0" encoding="utf-8"?>
<!-- Generator: Adobe Illustrator 16.0.0, SVG Export Plug-In . SVG Version: 6.00 Build 0)  -->
<!DOCTYPE svg PUBLIC "-//W3C//DTD SVG 1.1//EN" "http://www.w3.org/Graphics/SVG/1.1/DTD/svg11.dtd">
<svg version="1.1" id="Layer_1" xmlns="http://www.w3.org/2000/svg" xmlns:xlink="http://www.w3.org/1999/xlink" x="0px" y="0px"
	 width="815px" height="287px" viewBox="0 0 815 287" enable-background="new 0 0 815 287" xml:space="preserve">
<g>
	<path fill="#FFFFFF" d="M191.19,8.59c2.478,2.393,3.853,5.111,4.126,8.154h-4.736c-0.527-2.311-1.579-4.142-3.153-5.493
		c-1.575-1.351-3.785-2.026-6.629-2.026c-3.469,0-6.27,1.242-8.404,3.726c-2.134,2.484-3.201,6.292-3.201,11.423
		c0,4.203,0.963,7.61,2.89,10.226c1.926,2.614,4.8,3.922,8.622,3.922c3.518,0,6.196-1.375,8.034-4.127
		c0.975-1.447,1.703-3.353,2.183-5.713h4.736c-0.418,3.776-1.802,6.942-4.151,9.497c-2.815,3.076-6.613,4.614-11.391,4.614
		c-4.119,0-7.578-1.262-10.377-3.787c-3.684-3.338-5.526-8.493-5.526-15.464c0-5.293,1.383-9.633,4.15-13.021
		C171.355,6.841,175.481,5,180.742,5C185.23,5.001,188.713,6.197,191.19,8.59z"/>
	<path fill="#FFFFFF" d="M215.361,26.018c1.009-0.129,1.685-0.552,2.026-1.267c0.195-0.392,0.292-0.956,0.292-1.691
		c0-1.503-0.532-2.594-1.596-3.272c-1.064-0.678-2.586-1.017-4.568-1.017c-2.291,0-3.915,0.622-4.874,1.865
		c-0.536,0.688-0.885,1.709-1.047,3.067h-4.102c0.081-3.232,1.125-5.48,3.133-6.745s4.336-1.897,6.986-1.897
		c3.072,0,5.568,0.586,7.486,1.758c1.902,1.172,2.853,2.995,2.853,5.469v15.063c0,0.457,0.093,0.822,0.281,1.1
		c0.187,0.275,0.582,0.414,1.184,0.414c0.195,0,0.415-0.012,0.659-0.037c0.244-0.025,0.504-0.061,0.781-0.109v3.247
		c-0.684,0.195-1.205,0.317-1.562,0.366c-0.358,0.049-0.847,0.072-1.465,0.072c-1.514,0-2.612-0.536-3.296-1.61
		c-0.358-0.569-0.61-1.375-0.757-2.417c-0.896,1.172-2.181,2.188-3.857,3.051c-1.677,0.862-3.524,1.293-5.542,1.293
		c-2.425,0-4.407-0.736-5.945-2.207c-1.538-1.471-2.307-3.312-2.307-5.521c0-2.422,0.757-4.301,2.271-5.633
		c1.514-1.333,3.499-2.154,5.957-2.463L215.361,26.018z M206.108,37.889c0.928,0.731,2.026,1.096,3.296,1.096
		c1.546,0,3.043-0.356,4.492-1.071c2.441-1.187,3.662-3.128,3.662-5.826v-3.535c-0.536,0.343-1.227,0.63-2.071,0.857
		c-0.845,0.229-1.673,0.392-2.485,0.489l-2.656,0.342c-1.592,0.211-2.789,0.544-3.591,0.998c-1.359,0.764-2.039,1.981-2.039,3.654
		C204.716,36.16,205.18,37.159,206.108,37.889z"/>
	<path fill="#FFFFFF" d="M229.155,15.694h4.175v3.711c1.237-1.53,2.547-2.628,3.931-3.296c1.383-0.667,2.921-1.001,4.614-1.001
		c3.711,0,6.217,1.294,7.52,3.882c0.716,1.416,1.074,3.442,1.074,6.079v16.772H246V25.362c0-1.595-0.236-2.881-0.708-3.857
		c-0.781-1.627-2.197-2.441-4.248-2.441c-1.042,0-1.896,0.106-2.563,0.317c-1.205,0.358-2.263,1.074-3.174,2.148
		c-0.732,0.863-1.208,1.754-1.428,2.673c-0.22,0.92-0.33,2.234-0.33,3.943v13.696h-4.395L229.155,15.694L229.155,15.694z"/>
	<path fill="#FFFFFF" d="M287.199,15.694h4.858c-0.619,1.677-1.994,5.504-4.126,11.48c-1.595,4.495-2.93,8.158-4.004,10.991
		c-2.537,6.668-4.326,10.733-5.366,12.198c-1.04,1.464-2.829,2.195-5.366,2.195c-0.618,0-1.094-0.023-1.427-0.072
		s-0.745-0.139-1.232-0.27v-4.004c0.764,0.211,1.316,0.342,1.657,0.391c0.341,0.049,0.642,0.073,0.902,0.073
		c0.812,0,1.409-0.134,1.791-0.401c0.382-0.27,0.703-0.598,0.963-0.987c0.081-0.13,0.374-0.796,0.877-1.998s0.87-2.097,1.097-2.681
		l-9.668-26.917h4.98l7.007,21.299L287.199,15.694z"/>
	<path fill="#FFFFFF" d="M314.799,18.304c2.311,2.244,3.467,5.545,3.467,9.903c0,4.212-1.019,7.691-3.055,10.439
		c-2.037,2.748-5.196,4.123-9.479,4.123c-3.572,0-6.408-1.216-8.509-3.646c-2.101-2.432-3.151-5.696-3.151-9.794
		c0-4.391,1.107-7.887,3.321-10.489s5.188-3.903,8.921-3.903C309.66,14.938,312.488,16.06,314.799,18.304z M312.071,35.682
		c1.07-2.203,1.605-4.654,1.605-7.352c0-2.438-0.386-4.422-1.159-5.95c-1.223-2.406-3.332-3.609-6.325-3.609
		c-2.656,0-4.586,1.024-5.793,3.073c-1.207,2.049-1.811,4.519-1.811,7.413c0,2.78,0.604,5.097,1.811,6.95s3.122,2.779,5.746,2.779
		C309.025,38.984,311,37.884,312.071,35.682z"/>
	<path fill="#FFFFFF" d="M328.056,15.694v17.358c0,1.335,0.206,2.425,0.618,3.271c0.761,1.562,2.18,2.345,4.256,2.345
		c2.979,0,5.009-1.367,6.086-4.103c0.586-1.465,0.88-3.475,0.88-6.029V15.694h4.395v26.147h-4.15l0.049-3.856
		c-0.56,0.992-1.255,1.83-2.085,2.515c-1.645,1.367-3.641,2.051-5.989,2.051c-3.658,0-6.149-1.245-7.474-3.735
		c-0.719-1.334-1.078-3.117-1.078-5.347V15.694H328.056z"/>
	<path fill="#FFFFFF" d="M367.412,7.711c1.025-1.497,3.003-2.246,5.933-2.246c0.276,0,0.562,0.008,0.854,0.024
		c0.293,0.017,0.626,0.041,1.001,0.073v4.004c-0.461-0.032-0.794-0.053-1-0.061s-0.399-0.012-0.58-0.012
		c-1.35,0-2.156,0.346-2.419,1.038c-0.263,0.692-0.395,2.454-0.395,5.286h4.395v3.467h-4.395v22.559h-4.346v-22.56h-3.638v-3.467
		h3.638v-4.102C366.524,9.892,366.842,8.558,367.412,7.711z"/>
	<path fill="#FFFFFF" d="M379.252,5.978h4.468v4.98h-4.468V5.978z M379.252,15.816h4.468v26.025h-4.468V15.816z"/>
	<path fill="#FFFFFF" d="M390.361,15.694h4.175v3.711c1.237-1.53,2.547-2.628,3.931-3.296c1.383-0.667,2.921-1.001,4.614-1.001
		c3.711,0,6.217,1.294,7.519,3.882c0.717,1.416,1.074,3.442,1.074,6.079v16.772h-4.467V25.362c0-1.595-0.236-2.881-0.708-3.857
		c-0.781-1.627-2.197-2.441-4.248-2.441c-1.042,0-1.896,0.106-2.563,0.317c-1.205,0.358-2.263,1.074-3.174,2.148
		c-0.732,0.863-1.208,1.754-1.428,2.673c-0.22,0.92-0.33,2.234-0.33,3.943v13.696h-4.395V15.694z"/>
	<path fill="#FFFFFF" d="M432.534,16.5c0.778,0.488,1.661,1.343,2.651,2.563V5.856h4.223v35.986h-3.955v-3.638
		c-1.021,1.61-2.229,2.774-3.623,3.491c-1.395,0.716-2.992,1.074-4.791,1.074c-2.902,0-5.416-1.226-7.54-3.675
		c-2.124-2.448-3.187-5.708-3.187-9.778c0-3.809,0.969-7.107,2.905-9.899c1.938-2.791,4.706-4.187,8.306-4.187
		C429.52,15.231,431.188,15.654,432.534,16.5z M422.725,36.105c1.183,1.888,3.077,2.832,5.686,2.832c2.023,0,3.688-0.875,4.99-2.625
		c1.305-1.75,1.955-4.261,1.955-7.533c0-3.303-0.672-5.75-2.016-7.335s-3.004-2.38-4.979-2.38c-2.202,0-3.988,0.847-5.356,2.539
		c-1.368,1.693-2.053,4.183-2.053,7.471C420.951,31.873,421.543,34.217,422.725,36.105z"/>
	<path fill="#FFFFFF" d="M459.867,15.694h4.176v3.711c1.236-1.53,2.547-2.628,3.93-3.296c1.385-0.667,2.922-1.001,4.615-1.001
		c3.711,0,6.217,1.294,7.52,3.882c0.715,1.416,1.074,3.442,1.074,6.079v16.772h-4.469V25.362c0-1.595-0.236-2.881-0.707-3.857
		c-0.781-1.627-2.197-2.441-4.248-2.441c-1.043,0-1.896,0.106-2.564,0.317c-1.203,0.358-2.262,1.074-3.174,2.148
		c-0.731,0.863-1.207,1.754-1.428,2.673c-0.22,0.92-0.33,2.234-0.33,3.943v13.696h-4.395V15.694z"/>
	<path fill="#FFFFFF" d="M492.07,15.694v17.358c0,1.335,0.205,2.425,0.617,3.271c0.762,1.562,2.18,2.345,4.256,2.345
		c2.979,0,5.01-1.367,6.088-4.103c0.586-1.465,0.879-3.475,0.879-6.029V15.694h4.395v26.147h-4.15l0.05-3.856
		c-0.56,0.992-1.254,1.83-2.084,2.515c-1.646,1.367-3.642,2.051-5.989,2.051c-3.656,0-6.148-1.245-7.474-3.735
		c-0.72-1.334-1.078-3.117-1.078-5.347V15.694H492.07z"/>
	<path fill="#FFFFFF" d="M515.482,15.694h4.346v3.711c1.042-1.286,1.986-2.222,2.832-2.808c1.449-0.993,3.093-1.489,4.932-1.489
		c2.084,0,3.76,0.513,5.029,1.538c0.717,0.586,1.367,1.449,1.953,2.588c0.977-1.399,2.125-2.437,3.443-3.113
		c1.317-0.675,2.799-1.013,4.442-1.013c3.517,0,5.908,1.27,7.179,3.809c0.684,1.367,1.024,3.207,1.024,5.518v17.407h-4.565V23.678
		c0-1.741-0.437-2.938-1.307-3.589c-0.871-0.651-1.934-0.977-3.188-0.977c-1.725,0-3.209,0.578-4.455,1.733
		c-1.244,1.156-1.866,3.084-1.866,5.786v15.21h-4.47V24.776c0-1.774-0.211-3.068-0.635-3.882c-0.667-1.221-1.912-1.831-3.734-1.831
		c-1.659,0-3.17,0.643-4.528,1.929c-1.358,1.286-2.039,3.613-2.039,6.982v13.867h-4.396V15.694H515.482z"/>
	<path fill="#FFFFFF" d="M556.768,5.856h4.271v13.013c0.965-1.253,2.117-2.209,3.456-2.869c1.34-0.659,2.794-0.989,4.362-0.989
		c3.269,0,5.92,1.119,7.953,3.357c2.034,2.238,3.053,5.538,3.053,9.9c0,4.134-1.006,7.568-3.017,10.302
		c-2.01,2.736-4.795,4.103-8.356,4.103c-1.993,0-3.676-0.479-5.049-1.44c-0.816-0.568-1.69-1.48-2.621-2.733v3.345h-4.053V5.856
		L556.768,5.856z M573.57,35.958c1.184-1.888,1.775-4.378,1.775-7.471c0-2.75-0.593-5.029-1.775-6.836
		c-1.184-1.807-2.928-2.71-5.23-2.71c-2.008,0-3.768,0.741-5.277,2.222c-1.512,1.481-2.268,3.923-2.268,7.324
		c0,2.458,0.311,4.453,0.932,5.981c1.158,2.882,3.322,4.321,6.491,4.321C570.602,38.79,572.387,37.846,573.57,35.958z"/>
	<path fill="#FFFFFF" d="M601.092,16.415c1.73,0.871,3.049,1.998,3.955,3.381c0.873,1.318,1.455,2.856,1.747,4.614
		c0.259,1.205,0.388,3.125,0.388,5.762h-19.018c0.08,2.66,0.702,4.795,1.865,6.402c1.162,1.607,2.963,2.41,5.4,2.41
		c2.276,0,4.095-0.76,5.45-2.28c0.76-0.884,1.297-1.905,1.613-3.066h4.322c-0.115,0.96-0.493,2.031-1.137,3.21
		c-0.644,1.18-1.359,2.146-2.15,2.894c-1.325,1.302-2.965,2.181-4.919,2.637c-1.051,0.26-2.237,0.392-3.562,0.392
		c-3.234,0-5.977-1.185-8.225-3.553c-2.248-2.367-3.373-5.684-3.373-9.949c0-4.199,1.133-7.608,3.396-10.229
		c2.266-2.62,5.226-3.931,8.881-3.931C597.573,15.108,599.36,15.544,601.092,16.415z M602.666,26.681
		c-0.178-1.904-0.59-3.426-1.235-4.565c-1.193-2.116-3.188-3.174-5.979-3.174c-2.001,0-3.68,0.729-5.035,2.185
		c-1.355,1.457-2.074,3.308-2.154,5.554H602.666z"/>
	<path fill="#FFFFFF" d="M612.871,15.694h4.174v4.517c0.342-0.879,1.18-1.949,2.516-3.21c1.334-1.261,2.872-1.892,4.613-1.892
		c0.082,0,0.221,0.008,0.416,0.024c0.195,0.017,0.528,0.049,1,0.098v4.639c-0.26-0.049-0.5-0.081-0.72-0.098
		c-0.22-0.016-0.46-0.024-0.72-0.024c-2.216,0-3.915,0.712-5.104,2.136c-1.188,1.424-1.781,3.064-1.781,4.919v15.039h-4.395
		L612.871,15.694L612.871,15.694z"/>
	<path fill="#FFFFFF" d="M633,8.724c2.01-2.14,4.771-3.21,8.279-3.21c3.246,0,5.846,0.916,7.799,2.747
		c1.951,1.831,2.928,4.171,2.928,7.019c0,1.726-0.354,3.125-1.062,4.199c-0.708,1.074-2.159,2.653-4.354,4.736
		c-1.596,1.514-2.635,2.795-3.115,3.845c-0.481,1.049-0.723,2.6-0.723,4.651h-4.346c0-2.327,0.274-4.203,0.83-5.627
		c0.553-1.424,1.784-3.056,3.692-4.895l1.992-1.929c0.598-0.553,1.082-1.131,1.454-1.733c0.677-1.058,1.015-2.156,1.015-3.296
		c0-1.595-0.485-2.979-1.459-4.15c-0.972-1.172-2.58-1.758-4.822-1.758c-2.774,0-4.694,1.009-5.759,3.027
		c-0.599,1.123-0.938,2.743-1.021,4.858h-4.346C629.984,13.692,630.99,10.865,633,8.724z M638.311,36.764h4.857v5.078h-4.857V36.764
		z"/>
</g>
<g>
	
		<polygon fill-rule="evenodd" clip-rule="evenodd" fill="none" stroke="#FFFFFF" stroke-width="5" stroke-linecap="square" stroke-miterlimit="10" points="
		408,113.643 494.6,263.643 321.4,263.643 	"/>
</g>
<g>
	
		<polygon fill-rule="evenodd" clip-rule="evenodd" fill="none" stroke="#FFFFFF" stroke-width="5" stroke-linecap="square" stroke-miterlimit="10" points="
		132.902,113.643 219.501,263.643 46.302,263.643 	"/>
</g>
<g>
	
		<polygon fill-rule="evenodd" clip-rule="evenodd" fill="none" stroke="#FFFFFF" stroke-width="5" stroke-linecap="square" stroke-miterlimit="10" points="
		682.1,113.643 768.699,263.643 595.498,263.643 	"/>
</g>
<g>
	<path fill="#FFFFFF" d="M135.492,101v-8.203h-14.719v-4.125l15.375-21.328h3.562v21.773h4.945v3.68h-4.945V101H135.492z
		 M135.421,89.117V73.873l-10.758,15.244H135.421z"/>
</g>
<g>
	<path fill="#FFFFFF" d="M110.8,199.567v-3.234c3.047-0.297,5.172-0.793,6.375-1.488s2.102-2.34,2.695-4.934h3.328v33.422h-4.5
		v-23.766H110.8z"/>
	<path fill="#FFFFFF" d="M136.195,215.786c1.039-2.141,3.066-4.086,6.082-5.836l4.5-2.602c2.016-1.172,3.43-2.173,4.242-3.003
		c1.281-1.299,1.922-2.786,1.922-4.461c0-1.957-0.586-3.512-1.758-4.662s-2.734-1.726-4.688-1.726c-2.891,0-4.891,1.097-6,3.291
		c-0.594,1.175-0.922,2.805-0.984,4.889h-4.289c0.047-2.922,0.586-5.305,1.617-7.148c1.828-3.25,5.055-4.875,9.68-4.875
		c3.844,0,6.652,1.039,8.426,3.117s2.66,4.391,2.66,6.938c0,2.688-0.945,4.984-2.836,6.891c-1.094,1.109-3.055,2.453-5.883,4.031
		l-3.211,1.781c-1.531,0.844-2.734,1.648-3.609,2.414c-1.562,1.359-2.547,2.867-2.953,4.523h18.328v3.984h-23.039
		C134.558,220.442,135.156,217.927,136.195,215.786z"/>
</g>
<g>
	<path fill="#FFFFFF" d="M235.838,273.533c0.125,2.328,1.023,3.938,2.695,4.828c0.859,0.469,1.828,0.703,2.906,0.703
		c2.016,0,3.734-0.84,5.156-2.52s2.43-5.09,3.023-10.23c-0.938,1.484-2.098,2.527-3.48,3.129s-2.871,0.902-4.465,0.902
		c-3.234,0-5.793-1.007-7.676-3.02c-1.883-2.014-2.824-4.605-2.824-7.773c0-3.044,0.93-5.721,2.789-8.031
		c1.859-2.31,4.602-3.465,8.227-3.465c4.891,0,8.266,2.201,10.125,6.605c1.031,2.42,1.547,5.449,1.547,9.087
		c0,4.106-0.617,7.745-1.852,10.915c-2.047,5.277-5.516,7.916-10.406,7.916c-3.281,0-5.773-0.859-7.477-2.578
		s-2.555-3.875-2.555-6.469H235.838z M246.819,264.992c1.383-1.1,2.074-3.021,2.074-5.768c0-2.465-0.621-4.302-1.863-5.511
		s-2.824-1.813-4.746-1.813c-2.062,0-3.699,0.69-4.91,2.07c-1.211,1.381-1.816,3.227-1.816,5.535c0,2.184,0.531,3.92,1.594,5.207
		c1.062,1.286,2.758,1.93,5.086,1.93C243.909,266.643,245.436,266.093,246.819,264.992z"/>
</g>
<g>
	<path fill="#FFFFFF" d="M39.232,248.666v3.68c-1.078,1.047-2.512,2.867-4.301,5.461s-3.371,5.391-4.746,8.391
		c-1.359,2.922-2.391,5.586-3.094,7.992c-0.453,1.547-1.039,4.039-1.758,7.477h-4.664c1.062-6.406,3.406-12.781,7.031-19.125
		c2.141-3.719,4.391-6.93,6.75-9.633H15.888v-4.242H39.232z"/>
</g>
<g>
	<path fill="#FFFFFF" d="M396.503,77.234V74c3.047-0.297,5.172-0.793,6.375-1.488s2.102-2.34,2.695-4.934h3.329V101h-4.5V77.234
		H396.503z"/>
</g>
<g>
	<path fill="#FFFFFF" d="M407.847,223.333v-8.203h-14.719v-4.125l15.375-21.328h3.562v21.773h4.945v3.68h-4.945v8.203H407.847z
		 M407.777,211.45v-15.244l-10.758,15.244H407.777z"/>
</g>
<g>
	<path fill="#FFFFFF" d="M517.756,281.666v-8.203h-14.719v-4.125l15.375-21.328h3.562v21.773h4.945v3.68h-4.945v8.203H517.756z
		 M517.686,269.783v-15.244l-10.758,15.244H517.686z"/>
</g>
<g>
	<path fill="#FFFFFF" d="M291.08,257.9v-3.234c3.047-0.297,5.172-0.793,6.375-1.488s2.102-2.34,2.695-4.934h3.328v33.422h-4.5V257.9
		H291.08z"/>
</g>
<g>
	<path fill="#FFFFFF" d="M669.801,93.453c1.039-2.141,3.066-4.086,6.082-5.836l4.5-2.602c2.016-1.172,3.43-2.173,4.242-3.002
		c1.281-1.299,1.922-2.787,1.922-4.461c0-1.957-0.586-3.511-1.758-4.662c-1.172-1.151-2.734-1.726-4.688-1.726
		c-2.891,0-4.891,1.097-6,3.291c-0.594,1.175-0.922,2.805-0.984,4.889h-4.289c0.047-2.922,0.586-5.305,1.617-7.148
		c1.828-3.25,5.055-4.875,9.68-4.875c3.844,0,6.652,1.039,8.426,3.117s2.66,4.391,2.66,6.938c0,2.688-0.945,4.984-2.836,6.891
		c-1.094,1.109-3.055,2.453-5.883,4.031l-3.211,1.781c-1.531,0.844-2.734,1.648-3.609,2.414c-1.562,1.359-2.547,2.867-2.953,4.523
		h18.328V101h-23.039C668.164,98.109,668.762,95.594,669.801,93.453z"/>
</g>
<g>
	<path fill="#FFFFFF" d="M673.059,191.54c1.93-2.055,4.58-3.082,7.949-3.082c3.115,0,5.611,0.879,7.486,2.637
		c1.873,1.758,2.811,4.004,2.811,6.738c0,1.656-0.34,3-1.02,4.031s-2.072,2.547-4.178,4.547c-1.532,1.453-2.529,2.684-2.992,3.691
		c-0.462,1.008-0.693,2.496-0.693,4.465h-4.172c0-2.234,0.266-4.035,0.797-5.402s1.713-2.934,3.547-4.699l1.912-1.852
		c0.574-0.531,1.039-1.086,1.396-1.664c0.648-1.016,0.973-2.07,0.973-3.164c0-1.531-0.467-2.859-1.399-3.984
		s-2.478-1.688-4.63-1.688c-2.664,0-4.508,0.969-5.528,2.906c-0.574,1.078-0.901,2.633-0.981,4.664h-4.172
		C670.164,196.31,671.129,193.595,673.059,191.54z M678.156,218.458h4.664v4.875h-4.664V218.458z"/>
</g>
<g>
	<path fill="#FFFFFF" d="M782.348,273.111c0.281,2.406,1.398,4.07,3.352,4.992c1,0.469,2.156,0.703,3.469,0.703
		c2.5,0,4.352-0.797,5.555-2.391s1.805-3.359,1.805-5.297c0-2.344-0.715-4.156-2.145-5.438s-3.145-1.922-5.145-1.922
		c-1.453,0-2.699,0.281-3.738,0.844s-1.926,1.344-2.66,2.344l-3.656-0.211l2.555-18.07h17.438v4.078h-14.273l-1.43,9.328
		c0.781-0.594,1.523-1.039,2.227-1.336c1.25-0.516,2.695-0.773,4.336-0.773c3.078,0,5.688,0.992,7.828,2.977s3.211,4.5,3.211,7.547
		c0,3.172-0.98,5.969-2.941,8.391s-5.09,3.633-9.387,3.633c-2.734,0-5.152-0.77-7.254-2.309s-3.277-3.902-3.527-7.09H782.348z"/>
</g>
<g>
	<path fill="#FFFFFF" d="M582.963,250.881c1.477,1.945,2.215,3.949,2.215,6.012h-4.172c-0.25-1.328-0.648-2.367-1.195-3.117
		c-1.016-1.406-2.555-2.109-4.617-2.109c-2.359,0-4.234,1.09-5.625,3.27s-2.164,5.301-2.32,9.363
		c0.969-1.422,2.188-2.484,3.656-3.188c1.344-0.625,2.844-0.938,4.5-0.938c2.812,0,5.266,0.898,7.359,2.695s3.141,4.477,3.141,8.039
		c0,3.047-0.992,5.746-2.977,8.098s-4.812,3.527-8.484,3.527c-3.141,0-5.852-1.191-8.133-3.574s-3.422-6.395-3.422-12.035
		c0-4.172,0.508-7.711,1.523-10.617c1.953-5.562,5.523-8.344,10.711-8.344C578.873,247.963,581.486,248.936,582.963,250.881z
		 M579.799,276.545c1.102-1.492,1.652-3.254,1.652-5.285c0-1.719-0.492-3.355-1.477-4.91s-2.773-2.332-5.367-2.332
		c-1.812,0-3.402,0.602-4.77,1.805s-2.051,3.016-2.051,5.438c0,2.125,0.621,3.91,1.863,5.355s2.965,2.168,5.168,2.168
		C577.037,278.783,578.697,278.037,579.799,276.545z"/>
</g>
</svg>
