<?xml version="1.0" encoding="utf-8"?>
<!-- Generator: Adobe Illustrator 16.0.0, SVG Export Plug-In . SVG Version: 6.00 Build 0)  -->
<!DOCTYPE svg PUBLIC "-//W3C//DTD SVG 1.1//EN" "http://www.w3.org/Graphics/SVG/1.1/DTD/svg11.dtd">
<svg version="1.1" id="Layer_1" xmlns="http://www.w3.org/2000/svg" xmlns:xlink="http://www.w3.org/1999/xlink" x="0px" y="0px"
	 width="864px" height="335px" viewBox="0 0 864 335" enable-background="new 0 0 864 335" xml:space="preserve">
<rect x="284.5" y="124" fill-rule="evenodd" clip-rule="evenodd" fill="none" stroke="#FFFFFF" stroke-width="5" stroke-linecap="square" stroke-miterlimit="10" width="198" height="196"/>
<polyline fill-rule="evenodd" clip-rule="evenodd" fill="none" stroke="#FFFFFF" stroke-width="5" stroke-linecap="square" stroke-miterlimit="10" points="
	382.5,72 579.5,72 579.5,268 "/>
<rect x="355.5" y="208" fill-rule="evenodd" clip-rule="evenodd" fill="#FFFFFF" width="156" height="76"/>
<line fill-rule="evenodd" clip-rule="evenodd" fill="none" stroke="#FFFFFF" stroke-width="5" stroke-linecap="square" stroke-miterlimit="10" x1="484.5" y1="319" x2="578.5" y2="269"/>
<line fill-rule="evenodd" clip-rule="evenodd" fill="none" stroke="#FFFFFF" stroke-width="5" stroke-linecap="square" stroke-miterlimit="10" x1="285.5" y1="319" x2="381.5" y2="268"/>
<line fill-rule="evenodd" clip-rule="evenodd" fill="none" stroke="#FFFFFF" stroke-width="5" stroke-linecap="square" stroke-miterlimit="10" x1="285.5" y1="123" x2="380.5" y2="73"/>
<line fill-rule="evenodd" clip-rule="evenodd" fill="none" stroke="#FFFFFF" stroke-width="5" stroke-linecap="square" stroke-miterlimit="10" x1="481.5" y1="124" x2="578.5" y2="73"/>
<polyline fill-rule="evenodd" clip-rule="evenodd" fill="none" stroke="#FFFFFF" stroke-width="5" stroke-linecap="square" stroke-miterlimit="10" stroke-dasharray="10,10" points="
	578.5,268 381.5,268 381.5,72 "/>
<g>
	<path fill="#FFFFFF" d="M25.125,25.891c0.105,1.953,0.549,3.539,1.332,4.758c1.49,2.281,4.116,3.422,7.879,3.422
		c1.686,0,3.221-0.25,4.606-0.75c2.679-0.969,4.019-2.703,4.019-5.203c0-1.875-0.567-3.211-1.703-4.008
		c-1.15-0.781-2.951-1.461-5.403-2.039l-4.519-1.055c-2.952-0.688-5.041-1.445-6.267-2.273c-2.119-1.438-3.179-3.586-3.179-6.445
		c0-3.094,1.042-5.633,3.125-7.617s5.033-2.977,8.85-2.977c3.512,0,6.496,0.871,8.952,2.613S46.5,8.844,46.5,12.672h-4.383
		c-0.225-1.844-0.704-3.258-1.438-4.242c-1.364-1.797-3.678-2.695-6.943-2.695c-2.637,0-4.532,0.578-5.686,1.734
		s-1.73,2.5-1.73,4.031c0,1.688,0.681,2.922,2.044,3.703c0.893,0.5,2.914,1.125,6.063,1.875l4.678,1.102
		c2.256,0.531,3.997,1.258,5.223,2.18c2.12,1.609,3.18,3.945,3.18,7.008c0,3.812-1.353,6.539-4.057,8.18
		c-2.705,1.641-5.848,2.461-9.429,2.461c-4.175,0-7.444-1.094-9.806-3.281c-2.363-2.172-3.521-5.117-3.474-8.836H25.125z"/>
	<path fill="#FFFFFF" d="M69.036,12.59c1.661,0.836,2.927,1.918,3.797,3.246c0.838,1.266,1.397,2.742,1.677,4.43
		c0.249,1.156,0.373,3,0.373,5.531H56.625c0.078,2.554,0.675,4.603,1.791,6.146c1.116,1.543,2.845,2.315,5.186,2.315
		c2.186,0,3.93-0.73,5.232-2.189c0.729-0.848,1.245-1.829,1.549-2.943h4.148c-0.109,0.922-0.473,1.949-1.09,3.082
		s-1.306,2.059-2.065,2.777c-1.272,1.25-2.846,2.094-4.722,2.531c-1.008,0.25-2.148,0.375-3.419,0.375
		c-3.105,0-5.738-1.137-7.896-3.41s-3.237-5.457-3.237-9.551c0-4.031,1.087-7.305,3.261-9.82c2.174-2.516,5.016-3.773,8.525-3.773
		C65.658,11.336,67.374,11.754,69.036,12.59z M70.547,22.445c-0.171-1.828-0.566-3.289-1.186-4.383
		c-1.146-2.031-3.06-3.047-5.74-3.047c-1.921,0-3.532,0.699-4.834,2.098s-1.991,3.176-2.068,5.332H70.547z"/>
	<path fill="#FFFFFF" d="M80.344,2.57h4.219V37h-4.219V2.57z"/>
	<path fill="#FFFFFF" d="M106.396,12.59c1.661,0.836,2.927,1.918,3.797,3.246c0.838,1.266,1.397,2.742,1.677,4.43
		c0.249,1.156,0.373,3,0.373,5.531H93.984c0.078,2.554,0.675,4.603,1.791,6.146c1.116,1.543,2.845,2.315,5.186,2.315
		c2.186,0,3.93-0.73,5.232-2.189c0.729-0.848,1.245-1.829,1.549-2.943h4.148c-0.109,0.922-0.473,1.949-1.09,3.082
		s-1.306,2.059-2.065,2.777c-1.272,1.25-2.846,2.094-4.722,2.531c-1.008,0.25-2.148,0.375-3.419,0.375
		c-3.105,0-5.738-1.137-7.896-3.41s-3.237-5.457-3.237-9.551c0-4.031,1.087-7.305,3.261-9.82c2.174-2.516,5.016-3.773,8.525-3.773
		C103.018,11.336,104.733,11.754,106.396,12.59z M107.906,22.445c-0.171-1.828-0.566-3.289-1.186-4.383
		c-1.146-2.031-3.06-3.047-5.74-3.047c-1.921,0-3.532,0.699-4.834,2.098s-1.991,3.176-2.068,5.332H107.906z"/>
	<path fill="#FFFFFF" d="M134.168,13.234c1.773,1.375,2.84,3.742,3.199,7.102h-4.102c-0.25-1.547-0.82-2.832-1.711-3.855
		s-2.32-1.535-4.289-1.535c-2.688,0-4.609,1.311-5.766,3.933c-0.75,1.701-1.125,3.8-1.125,6.297c0,2.513,0.531,4.627,1.594,6.344
		s2.734,2.575,5.016,2.575c1.75,0,3.137-0.533,4.16-1.599c1.023-1.066,1.73-2.525,2.121-4.377h4.102
		c-0.469,3.328-1.641,5.762-3.516,7.301s-4.273,2.309-7.195,2.309c-3.281,0-5.898-1.199-7.852-3.598s-2.93-5.395-2.93-8.988
		c0-4.406,1.07-7.836,3.211-10.289s4.867-3.68,8.18-3.68C130.094,11.172,132.395,11.859,134.168,13.234z"/>
	<path fill="#FFFFFF" d="M142.43,4.891h4.266v7.008h4.008v3.445h-4.008v16.383c0,0.875,0.297,1.461,0.891,1.758
		c0.328,0.172,0.875,0.258,1.641,0.258c0.203,0,0.422-0.005,0.656-0.016c0.234-0.01,0.508-0.036,0.82-0.078V37
		c-0.484,0.141-0.988,0.242-1.512,0.305s-1.09,0.094-1.699,0.094c-1.969,0-3.305-0.504-4.008-1.512s-1.055-2.316-1.055-3.926V15.344
		h-3.398v-3.445h3.398V4.891z"/>
	<path fill="#FFFFFF" d="M169.102,4.891h4.266v7.008h4.008v3.445h-4.008v16.383c0,0.875,0.297,1.461,0.891,1.758
		c0.328,0.172,0.875,0.258,1.641,0.258c0.203,0,0.422-0.005,0.656-0.016c0.234-0.01,0.508-0.036,0.82-0.078V37
		c-0.484,0.141-0.988,0.242-1.512,0.305s-1.09,0.094-1.699,0.094c-1.969,0-3.305-0.504-4.008-1.512s-1.055-2.316-1.055-3.926V15.344
		h-3.398v-3.445h3.398V4.891z"/>
	<path fill="#FFFFFF" d="M181.594,2.453h4.219v12.844c1-1.266,1.898-2.156,2.695-2.672c1.359-0.891,3.055-1.336,5.086-1.336
		c3.641,0,6.109,1.273,7.406,3.82c0.703,1.391,1.055,3.32,1.055,5.789V37h-4.336V21.18c0-1.844-0.234-3.195-0.703-4.055
		c-0.766-1.375-2.203-2.062-4.312-2.062c-1.75,0-3.336,0.602-4.758,1.805s-2.133,3.477-2.133,6.82V37h-4.219V2.453z"/>
	<path fill="#FFFFFF" d="M223.794,12.59c1.661,0.836,2.927,1.918,3.797,3.246c0.838,1.266,1.397,2.742,1.677,4.43
		c0.249,1.156,0.373,3,0.373,5.531h-18.258c0.078,2.554,0.675,4.603,1.791,6.146c1.116,1.543,2.845,2.315,5.186,2.315
		c2.186,0,3.93-0.73,5.232-2.189c0.729-0.848,1.245-1.829,1.549-2.943h4.148c-0.109,0.922-0.473,1.949-1.09,3.082
		s-1.306,2.059-2.065,2.777c-1.272,1.25-2.846,2.094-4.722,2.531c-1.008,0.25-2.148,0.375-3.419,0.375
		c-3.105,0-5.738-1.137-7.896-3.41s-3.237-5.457-3.237-9.551c0-4.031,1.087-7.305,3.261-9.82c2.174-2.516,5.016-3.773,8.525-3.773
		C220.416,11.336,222.132,11.754,223.794,12.59z M225.305,22.445c-0.171-1.828-0.566-3.289-1.186-4.383
		c-1.146-2.031-3.06-3.047-5.74-3.047c-1.921,0-3.532,0.699-4.834,2.098s-1.991,3.176-2.068,5.332H225.305z"/>
	<path fill="#FFFFFF" d="M247.969,12.016h4.125v3.328c0.846-1.141,1.771-2.023,2.773-2.648c1.425-0.938,3.102-1.406,5.028-1.406
		c2.852,0,5.272,1.09,7.261,3.27s2.984,5.293,2.984,9.34c0,5.469-1.436,9.375-4.306,11.719c-1.82,1.484-3.938,2.227-6.354,2.227
		c-1.898,0-3.49-0.414-4.776-1.242c-0.753-0.469-1.592-1.273-2.518-2.414v12.82h-4.219V12.016z M263.841,31.691
		c1.309-1.648,1.964-4.113,1.964-7.395c0-2-0.29-3.719-0.87-5.156c-1.098-2.766-3.104-4.148-6.021-4.148
		c-2.932,0-4.938,1.461-6.021,4.383c-0.58,1.562-0.87,3.547-0.87,5.953c0,1.938,0.29,3.586,0.87,4.945
		c1.097,2.594,3.104,3.891,6.021,3.891C260.89,34.164,262.532,33.34,263.841,31.691z"/>
	<path fill="#FFFFFF" d="M275.016,2.57h4.289v4.781h-4.289V2.57z M275.016,12.016h4.289V37h-4.289V12.016z"/>
	<path fill="#FFFFFF" d="M302.262,13.234c1.773,1.375,2.84,3.742,3.199,7.102h-4.102c-0.25-1.547-0.82-2.832-1.711-3.855
		s-2.32-1.535-4.289-1.535c-2.688,0-4.609,1.311-5.766,3.933c-0.75,1.701-1.125,3.8-1.125,6.297c0,2.513,0.531,4.627,1.594,6.344
		s2.734,2.575,5.016,2.575c1.75,0,3.137-0.533,4.16-1.599c1.023-1.066,1.73-2.525,2.121-4.377h4.102
		c-0.469,3.328-1.641,5.762-3.516,7.301s-4.273,2.309-7.195,2.309c-3.281,0-5.898-1.199-7.852-3.598s-2.93-5.395-2.93-8.988
		c0-4.406,1.07-7.836,3.211-10.289s4.867-3.68,8.18-3.68C298.188,11.172,300.488,11.859,302.262,13.234z"/>
	<path fill="#FFFFFF" d="M310.523,4.891h4.266v7.008h4.008v3.445h-4.008v16.383c0,0.875,0.297,1.461,0.891,1.758
		c0.328,0.172,0.875,0.258,1.641,0.258c0.203,0,0.422-0.005,0.656-0.016c0.234-0.01,0.508-0.036,0.82-0.078V37
		c-0.484,0.141-0.988,0.242-1.512,0.305s-1.09,0.094-1.699,0.094c-1.969,0-3.305-0.504-4.008-1.512s-1.055-2.316-1.055-3.926V15.344
		h-3.398v-3.445h3.398V4.891z"/>
	<path fill="#FFFFFF" d="M327.234,11.898v16.664c0,1.281,0.198,2.328,0.594,3.141c0.73,1.5,2.092,2.25,4.086,2.25
		c2.86,0,4.808-1.312,5.843-3.938c0.563-1.406,0.845-3.336,0.845-5.789V11.898h4.219V37h-3.984l0.047-3.703
		c-0.537,0.953-1.205,1.758-2.002,2.414c-1.579,1.312-3.495,1.969-5.749,1.969c-3.511,0-5.903-1.195-7.175-3.586
		c-0.69-1.281-1.035-2.992-1.035-5.133V11.898H327.234z"/>
	<path fill="#FFFFFF" d="M349.828,11.898h4.008v4.336c0.328-0.844,1.133-1.871,2.414-3.082s2.758-1.816,4.43-1.816
		c0.078,0,0.211,0.008,0.398,0.023s0.508,0.047,0.961,0.094v4.453c-0.25-0.047-0.48-0.078-0.691-0.094s-0.441-0.023-0.691-0.023
		c-2.125,0-3.758,0.684-4.898,2.051s-1.711,2.941-1.711,4.723V37h-4.219V11.898z"/>
	<path fill="#FFFFFF" d="M381.2,12.59c1.661,0.836,2.927,1.918,3.797,3.246c0.838,1.266,1.397,2.742,1.677,4.43
		c0.249,1.156,0.373,3,0.373,5.531h-18.258c0.078,2.554,0.675,4.603,1.791,6.146c1.116,1.543,2.845,2.315,5.186,2.315
		c2.186,0,3.93-0.73,5.232-2.189c0.729-0.848,1.245-1.829,1.549-2.943h4.148c-0.109,0.922-0.473,1.949-1.09,3.082
		s-1.306,2.059-2.065,2.777c-1.272,1.25-2.846,2.094-4.722,2.531c-1.008,0.25-2.148,0.375-3.419,0.375
		c-3.105,0-5.738-1.137-7.896-3.41s-3.237-5.457-3.237-9.551c0-4.031,1.087-7.305,3.261-9.82c2.174-2.516,5.016-3.773,8.525-3.773
		C377.822,11.336,379.538,11.754,381.2,12.59z M382.711,22.445c-0.171-1.828-0.566-3.289-1.186-4.383
		c-1.146-2.031-3.06-3.047-5.74-3.047c-1.921,0-3.532,0.699-4.834,2.098s-1.991,3.176-2.068,5.332H382.711z"/>
	<path fill="#FFFFFF" d="M406.57,4.891h4.266v7.008h4.008v3.445h-4.008v16.383c0,0.875,0.297,1.461,0.891,1.758
		c0.328,0.172,0.875,0.258,1.641,0.258c0.203,0,0.422-0.005,0.656-0.016c0.234-0.01,0.508-0.036,0.82-0.078V37
		c-0.484,0.141-0.988,0.242-1.512,0.305s-1.09,0.094-1.699,0.094c-1.969,0-3.305-0.504-4.008-1.512s-1.055-2.316-1.055-3.926V15.344
		h-3.398v-3.445h3.398V4.891z"/>
	<path fill="#FFFFFF" d="M419.062,2.453h4.219v12.844c1-1.266,1.898-2.156,2.695-2.672c1.359-0.891,3.055-1.336,5.086-1.336
		c3.641,0,6.109,1.273,7.406,3.82c0.703,1.391,1.055,3.32,1.055,5.789V37h-4.336V21.18c0-1.844-0.234-3.195-0.703-4.055
		c-0.766-1.375-2.203-2.062-4.312-2.062c-1.75,0-3.336,0.602-4.758,1.805s-2.133,3.477-2.133,6.82V37h-4.219V2.453z"/>
	<path fill="#FFFFFF" d="M459.211,21.809c0.969-0.124,1.617-0.53,1.945-1.216c0.188-0.376,0.281-0.917,0.281-1.624
		c0-1.443-0.511-2.49-1.532-3.141s-2.483-0.977-4.386-0.977c-2.198,0-3.758,0.597-4.678,1.79c-0.515,0.66-0.85,1.642-1.006,2.944
		h-3.938c0.078-3.103,1.08-5.261,3.008-6.476c1.928-1.214,4.163-1.821,6.707-1.821c2.949,0,5.346,0.562,7.188,1.688
		c1.825,1.125,2.738,2.875,2.738,5.25v14.461c0,0.438,0.09,0.789,0.27,1.055c0.18,0.265,0.559,0.397,1.137,0.397
		c0.188,0,0.398-0.012,0.633-0.035s0.484-0.058,0.75-0.105v3.117c-0.656,0.188-1.156,0.305-1.5,0.352s-0.812,0.07-1.406,0.07
		c-1.453,0-2.508-0.516-3.164-1.546c-0.344-0.547-0.586-1.32-0.727-2.32c-0.859,1.125-2.094,2.101-3.703,2.929
		c-1.609,0.828-3.383,1.242-5.32,1.242c-2.328,0-4.23-0.707-5.707-2.119s-2.215-3.179-2.215-5.302c0-2.325,0.727-4.127,2.18-5.407
		s3.359-2.068,5.719-2.365L459.211,21.809z M450.328,33.206c0.891,0.702,1.945,1.052,3.164,1.052c1.484,0,2.922-0.343,4.312-1.029
		c2.344-1.139,3.516-3.003,3.516-5.593v-3.393c-0.515,0.329-1.178,0.604-1.988,0.823c-0.811,0.22-1.605,0.376-2.386,0.47
		l-2.55,0.328c-1.527,0.203-2.678,0.522-3.447,0.959c-1.305,0.733-1.957,1.902-1.957,3.508
		C448.992,31.545,449.438,32.504,450.328,33.206z"/>
	<path fill="#FFFFFF" d="M473.297,4.891h4.266v7.008h4.008v3.445h-4.008v16.383c0,0.875,0.297,1.461,0.891,1.758
		c0.328,0.172,0.875,0.258,1.641,0.258c0.203,0,0.422-0.005,0.656-0.016c0.234-0.01,0.508-0.036,0.82-0.078V37
		c-0.484,0.141-0.988,0.242-1.512,0.305s-1.09,0.094-1.699,0.094c-1.969,0-3.305-0.504-4.008-1.512s-1.055-2.316-1.055-3.926V15.344
		h-3.398v-3.445h3.398V4.891z"/>
	<path fill="#FFFFFF" d="M498.773,2.453h4.102v12.492c0.926-1.203,2.031-2.121,3.317-2.754s2.683-0.949,4.188-0.949
		c3.137,0,5.682,1.074,7.635,3.223s2.93,5.316,2.93,9.504c0,3.969-0.965,7.266-2.895,9.891c-1.929,2.625-4.604,3.938-8.022,3.938
		c-1.914,0-3.529-0.461-4.847-1.383c-0.785-0.547-1.623-1.422-2.518-2.625V37h-3.891V2.453z M514.904,31.352
		c1.137-1.812,1.705-4.203,1.705-7.172c0-2.641-0.568-4.828-1.705-6.562s-2.811-2.602-5.021-2.602c-1.929,0-3.618,0.711-5.067,2.133
		c-1.451,1.422-2.176,3.766-2.176,7.031c0,2.359,0.298,4.273,0.894,5.742c1.112,2.766,3.19,4.148,6.231,4.148
		C512.055,34.07,513.768,33.164,514.904,31.352z"/>
	<path fill="#FFFFFF" d="M541.325,12.59c1.661,0.836,2.927,1.918,3.797,3.246c0.839,1.266,1.397,2.742,1.677,4.43
		c0.248,1.156,0.373,3,0.373,5.531h-18.258c0.078,2.554,0.675,4.603,1.791,6.146c1.116,1.543,2.845,2.315,5.186,2.315
		c2.186,0,3.93-0.73,5.232-2.189c0.729-0.848,1.245-1.829,1.549-2.943h4.148c-0.109,0.922-0.473,1.949-1.09,3.082
		s-1.306,2.059-2.065,2.777c-1.272,1.25-2.846,2.094-4.722,2.531c-1.008,0.25-2.148,0.375-3.42,0.375
		c-3.105,0-5.737-1.137-7.896-3.41s-3.237-5.457-3.237-9.551c0-4.031,1.087-7.305,3.262-9.82c2.174-2.516,5.016-3.773,8.525-3.773
		C537.947,11.336,539.663,11.754,541.325,12.59z M542.836,22.445c-0.171-1.828-0.566-3.289-1.186-4.383
		c-1.146-2.031-3.061-3.047-5.74-3.047c-1.921,0-3.532,0.699-4.834,2.098s-1.991,3.176-2.068,5.332H542.836z"/>
	<path fill="#FFFFFF" d="M555.023,29.125c0.127,1.406,0.486,2.484,1.076,3.234c1.084,1.359,2.967,2.039,5.646,2.039
		c1.595,0,2.998-0.34,4.21-1.02c1.213-0.68,1.818-1.73,1.818-3.152c0-1.078-0.484-1.898-1.453-2.461
		c-0.619-0.344-1.842-0.742-3.668-1.195l-3.406-0.844c-2.176-0.531-3.779-1.125-4.811-1.781c-1.843-1.141-2.764-2.719-2.764-4.734
		c0-2.375,0.867-4.297,2.601-5.766s4.065-2.203,6.995-2.203c3.832,0,6.596,1.109,8.289,3.328c1.061,1.406,1.576,2.922,1.545,4.547
		h-3.984c-0.08-0.948-0.424-1.81-1.031-2.587c-0.992-1.103-2.712-1.655-5.158-1.655c-1.632,0-2.867,0.304-3.707,0.911
		c-0.84,0.607-1.26,1.409-1.26,2.405c0,1.09,0.552,1.962,1.655,2.616c0.637,0.39,1.575,0.732,2.817,1.029l2.842,0.68
		c3.088,0.734,5.158,1.445,6.209,2.133c1.641,1.078,2.461,2.773,2.461,5.086c0,2.234-0.858,4.164-2.574,5.789
		c-1.717,1.625-4.331,2.438-7.843,2.438c-3.781,0-6.458-0.848-8.032-2.543s-2.417-3.793-2.527-6.293H555.023z"/>
	<path fill="#FFFFFF" d="M577.359,4.891h4.266v7.008h4.008v3.445h-4.008v16.383c0,0.875,0.297,1.461,0.891,1.758
		c0.328,0.172,0.875,0.258,1.641,0.258c0.203,0,0.422-0.005,0.656-0.016c0.234-0.01,0.508-0.036,0.82-0.078V37
		c-0.484,0.141-0.988,0.242-1.512,0.305s-1.09,0.094-1.699,0.094c-1.969,0-3.305-0.504-4.008-1.512s-1.055-2.316-1.055-3.926V15.344
		h-3.398v-3.445h3.398V4.891z"/>
	<path fill="#FFFFFF" d="M605.156,4.234c0.984-1.438,2.883-2.156,5.695-2.156c0.266,0,0.539,0.008,0.82,0.023
		s0.602,0.039,0.961,0.07v3.844c-0.442-0.031-0.763-0.051-0.96-0.059c-0.198-0.008-0.384-0.012-0.557-0.012
		c-1.296,0-2.07,0.332-2.323,0.996c-0.252,0.664-0.379,2.355-0.379,5.074h4.219v3.328h-4.219V37h-4.172V15.344h-3.492v-3.328h3.492
		V8.078C604.305,6.328,604.609,5.047,605.156,4.234z"/>
	<path fill="#FFFFFF" d="M616.523,2.57h4.289v4.781h-4.289V2.57z M616.523,12.016h4.289V37h-4.289V12.016z"/>
	<path fill="#FFFFFF" d="M628.031,4.891h4.266v7.008h4.008v3.445h-4.008v16.383c0,0.875,0.297,1.461,0.891,1.758
		c0.328,0.172,0.875,0.258,1.641,0.258c0.203,0,0.422-0.005,0.656-0.016c0.234-0.01,0.508-0.036,0.82-0.078V37
		c-0.484,0.141-0.988,0.242-1.512,0.305s-1.09,0.094-1.699,0.094c-1.969,0-3.305-0.504-4.008-1.512s-1.055-2.316-1.055-3.926V15.344
		h-3.398v-3.445h3.398V4.891z"/>
	<path fill="#FFFFFF" d="M654.703,4.891h4.266v7.008h4.008v3.445h-4.008v16.383c0,0.875,0.297,1.461,0.891,1.758
		c0.328,0.172,0.875,0.258,1.641,0.258c0.203,0,0.422-0.005,0.656-0.016c0.234-0.01,0.508-0.036,0.82-0.078V37
		c-0.484,0.141-0.988,0.242-1.512,0.305s-1.09,0.094-1.699,0.094c-1.969,0-3.305-0.504-4.008-1.512s-1.055-2.316-1.055-3.926V15.344
		h-3.398v-3.445h3.398V4.891z"/>
	<path fill="#FFFFFF" d="M667.195,2.453h4.219v12.844c1-1.266,1.898-2.156,2.695-2.672c1.359-0.891,3.055-1.336,5.086-1.336
		c3.641,0,6.109,1.273,7.406,3.82c0.703,1.391,1.055,3.32,1.055,5.789V37h-4.336V21.18c0-1.844-0.234-3.195-0.703-4.055
		c-0.766-1.375-2.203-2.062-4.312-2.062c-1.75,0-3.336,0.602-4.758,1.805s-2.133,3.477-2.133,6.82V37h-4.219V2.453z"/>
	<path fill="#FFFFFF" d="M709.396,12.59c1.661,0.836,2.927,1.918,3.797,3.246c0.839,1.266,1.397,2.742,1.677,4.43
		c0.248,1.156,0.373,3,0.373,5.531h-18.258c0.078,2.554,0.675,4.603,1.791,6.146c1.116,1.543,2.845,2.315,5.186,2.315
		c2.186,0,3.93-0.73,5.232-2.189c0.729-0.848,1.245-1.829,1.549-2.943h4.148c-0.109,0.922-0.473,1.949-1.09,3.082
		s-1.306,2.059-2.065,2.777c-1.271,1.25-2.846,2.094-4.722,2.531c-1.009,0.25-2.148,0.375-3.42,0.375
		c-3.105,0-5.737-1.137-7.896-3.41s-3.237-5.457-3.237-9.551c0-4.031,1.087-7.305,3.261-9.82s5.016-3.773,8.525-3.773
		C706.018,11.336,707.733,11.754,709.396,12.59z M710.906,22.445c-0.171-1.828-0.565-3.289-1.186-4.383
		c-1.146-2.031-3.06-3.047-5.74-3.047c-1.921,0-3.532,0.699-4.834,2.098s-1.991,3.176-2.068,5.332H710.906z"/>
	<path fill="#FFFFFF" d="M733.57,2.453h4.102v12.492c0.926-1.203,2.031-2.121,3.317-2.754s2.683-0.949,4.188-0.949
		c3.137,0,5.682,1.074,7.635,3.223s2.93,5.316,2.93,9.504c0,3.969-0.965,7.266-2.895,9.891c-1.929,2.625-4.604,3.938-8.022,3.938
		c-1.914,0-3.529-0.461-4.847-1.383c-0.785-0.547-1.624-1.422-2.518-2.625V37h-3.891V2.453z M749.701,31.352
		c1.137-1.812,1.705-4.203,1.705-7.172c0-2.641-0.568-4.828-1.705-6.562s-2.811-2.602-5.021-2.602c-1.929,0-3.618,0.711-5.067,2.133
		c-1.451,1.422-2.176,3.766-2.176,7.031c0,2.359,0.298,4.273,0.894,5.742c1.113,2.766,3.19,4.148,6.231,4.148
		C746.852,34.07,748.564,33.164,749.701,31.352z"/>
	<path fill="#FFFFFF" d="M760.734,2.57h4.219V37h-4.219V2.57z"/>
	<path fill="#FFFFFF" d="M784.734,21.809c0.969-0.124,1.617-0.53,1.945-1.216c0.188-0.376,0.281-0.917,0.281-1.624
		c0-1.443-0.511-2.49-1.532-3.141s-2.483-0.977-4.386-0.977c-2.198,0-3.758,0.597-4.678,1.79c-0.515,0.66-0.85,1.642-1.006,2.944
		h-3.938c0.078-3.103,1.081-5.261,3.008-6.476c1.928-1.214,4.163-1.821,6.707-1.821c2.949,0,5.346,0.562,7.187,1.688
		c1.826,1.125,2.739,2.875,2.739,5.25v14.461c0,0.438,0.09,0.789,0.27,1.055c0.18,0.265,0.559,0.397,1.137,0.397
		c0.188,0,0.398-0.012,0.633-0.035s0.484-0.058,0.75-0.105v3.117c-0.656,0.188-1.156,0.305-1.5,0.352s-0.812,0.07-1.406,0.07
		c-1.453,0-2.508-0.516-3.164-1.546c-0.344-0.547-0.586-1.32-0.727-2.32c-0.859,1.125-2.094,2.101-3.703,2.929
		c-1.609,0.828-3.383,1.242-5.32,1.242c-2.328,0-4.23-0.707-5.707-2.119s-2.215-3.179-2.215-5.302c0-2.325,0.727-4.127,2.18-5.407
		s3.359-2.068,5.719-2.365L784.734,21.809z M775.852,33.206c0.891,0.702,1.945,1.052,3.164,1.052c1.484,0,2.922-0.343,4.312-1.029
		c2.344-1.139,3.516-3.003,3.516-5.593v-3.393c-0.515,0.329-1.178,0.604-1.988,0.823c-0.811,0.22-1.606,0.376-2.386,0.47
		l-2.55,0.328c-1.528,0.203-2.677,0.522-3.447,0.959c-1.305,0.733-1.957,1.902-1.957,3.508
		C774.516,31.545,774.961,32.504,775.852,33.206z"/>
	<path fill="#FFFFFF" d="M797.977,11.898h4.008v3.562c1.188-1.469,2.445-2.523,3.773-3.164s2.805-0.961,4.43-0.961
		c3.562,0,5.969,1.242,7.219,3.727c0.688,1.359,1.031,3.305,1.031,5.836V37h-4.289V21.18c0-1.531-0.227-2.766-0.68-3.703
		c-0.75-1.562-2.109-2.344-4.078-2.344c-1,0-1.82,0.102-2.461,0.305c-1.156,0.344-2.172,1.031-3.047,2.062
		c-0.703,0.828-1.16,1.684-1.371,2.566s-0.316,2.145-0.316,3.785V37h-4.219V11.898z"/>
	<path fill="#FFFFFF" d="M824.578,2.57h4.055v19.99l10.818-10.662h5.389l-9.647,9.333L845.382,37h-5.39l-7.896-12.773l-3.464,3.352
		V37h-4.055V2.57z"/>
</g>
</svg>
